<svg xmlns="http://www.w3.org/2000/svg" xmlns:xlink="http://www.w3.org/1999/xlink" width="120" zoomAndPan="magnify" viewBox="0 0 90 91.5" height="122" preserveAspectRatio="xMidYMid meet" version="1.0"><defs><clipPath id="770665efb2"><path d="M 0.246094 0 L 89.753906 0 L 89.753906 91 L 0.246094 91 Z M 0.246094 0 " clip-rule="nonzero"/></clipPath><clipPath id="60eae96ad0"><path d="M 2.183594 2.585938 L 80.382812 2.585938 L 80.382812 87.246094 L 2.183594 87.246094 Z M 2.183594 2.585938 " clip-rule="nonzero"/></clipPath><clipPath id="d020bd0adb"><path d="M 75.382812 24.539062 C 69.664062 17.371094 69.664062 16.40625 69.109375 15.578125 C 68.558594 14.753906 68.007812 14.269531 66.90625 13.582031 C 64.5625 12.0625 58.632812 8.960938 55.324219 8.273438 C 53.050781 7.859375 51.324219 7.925781 49.1875 8.546875 C 46.636719 9.375 44.019531 11.238281 41.125 13.511719 C 36.988281 16.820312 30.644531 23.367188 27.335938 27.503906 C 24.992188 30.332031 24.441406 32.191406 22.167969 35.15625 C 18.789062 39.707031 9.828125 47.152344 8.378906 51.5625 C 7.550781 53.90625 8.378906 56.183594 8.792969 57.769531 C 9.066406 58.941406 9.480469 59.699219 10.101562 60.523438 C 10.722656 61.492188 11.273438 62.042969 12.445312 63.144531 C 15.132812 65.558594 24.164062 71.074219 26.785156 73.621094 C 27.957031 74.863281 27.886719 75.621094 28.992188 76.65625 C 30.851562 78.378906 36.230469 80.515625 37.675781 82.171875 C 38.367188 83 38.710938 83.757812 38.710938 84.515625 C 38.640625 85.273438 37.953125 86.308594 37.261719 86.722656 C 36.640625 87.066406 35.332031 86.996094 34.710938 86.789062 C 34.160156 86.515625 33.679688 86.03125 33.472656 85.480469 C 33.195312 84.996094 33.058594 84.308594 33.195312 83.757812 C 33.402344 83.066406 34.160156 82.03125 34.851562 81.757812 C 35.539062 81.480469 36.78125 81.550781 37.402344 81.964844 C 38.089844 82.378906 38.640625 83.480469 38.710938 84.238281 C 38.710938 84.996094 38.089844 86.101562 37.539062 86.515625 C 37.054688 86.925781 36.503906 87.066406 35.816406 87.066406 C 34.917969 86.996094 33.539062 86.238281 32.507812 85.617188 C 31.472656 84.929688 30.714844 83.757812 29.679688 83.066406 C 28.578125 82.378906 27.335938 82.378906 26.164062 81.550781 C 24.648438 80.449219 23.613281 78.242188 21.546875 76.378906 C 18.304688 73.417969 10.308594 68.796875 7.894531 66.523438 C 6.792969 65.558594 6.519531 65.144531 5.828125 64.109375 C 4.933594 62.59375 3.621094 60.320312 3.140625 58.042969 C 2.519531 55.425781 1.832031 52.253906 3.003906 49.082031 C 4.863281 44.050781 13.894531 37.085938 17.410156 32.398438 C 19.753906 29.296875 21.0625 25.988281 22.785156 24.195312 C 23.820312 23.023438 24.511719 23.023438 25.75 21.851562 C 28.4375 19.441406 33.539062 12.613281 37.195312 9.445312 C 40.019531 7.03125 42.707031 4.964844 45.398438 3.859375 C 47.464844 3.03125 49.464844 2.828125 51.53125 2.757812 C 53.667969 2.621094 55.667969 2.621094 58.011719 3.238281 C 61.183594 4.136719 65.734375 6.617188 68.492188 8.273438 C 70.628906 9.445312 72.695312 10.546875 73.660156 11.855469 C 74.351562 12.820312 73.9375 13.855469 74.558594 15.027344 C 75.589844 16.890625 79.382812 19.992188 80.070312 21.644531 C 80.417969 22.402344 80.417969 23.023438 80.210938 23.574219 C 80.003906 24.195312 79.519531 24.816406 79.039062 25.160156 C 78.484375 25.4375 77.726562 25.644531 77.109375 25.507812 C 76.488281 25.4375 75.382812 24.539062 75.382812 24.539062 " clip-rule="nonzero"/></clipPath><clipPath id="671275a40e"><path d="M 0.183594 0.585938 L 78.382812 0.585938 L 78.382812 85.125 L 0.183594 85.125 Z M 0.183594 0.585938 " clip-rule="nonzero"/></clipPath><clipPath id="db28717fd4"><path d="M 73.382812 22.539062 C 67.664062 15.371094 67.664062 14.40625 67.109375 13.578125 C 66.558594 12.753906 66.007812 12.269531 64.90625 11.582031 C 62.5625 10.0625 56.632812 6.960938 53.324219 6.273438 C 51.050781 5.859375 49.324219 5.925781 47.1875 6.546875 C 44.636719 7.375 42.019531 9.238281 39.125 11.511719 C 34.988281 14.820312 28.644531 21.367188 25.335938 25.503906 C 22.992188 28.332031 22.441406 30.191406 20.167969 33.15625 C 16.789062 37.707031 7.828125 45.152344 6.378906 49.5625 C 5.550781 51.90625 6.378906 54.183594 6.792969 55.769531 C 7.066406 56.941406 7.480469 57.699219 8.101562 58.523438 C 8.722656 59.492188 9.273438 60.042969 10.445312 61.144531 C 13.132812 63.558594 22.164062 69.074219 24.785156 71.621094 C 25.957031 72.863281 25.886719 73.621094 26.992188 74.65625 C 28.851562 76.378906 34.230469 78.515625 35.675781 80.171875 C 36.367188 81 36.710938 81.757812 36.710938 82.515625 C 36.640625 83.273438 35.953125 84.308594 35.261719 84.722656 C 34.640625 85.066406 33.332031 84.996094 32.710938 84.789062 C 32.160156 84.515625 31.679688 84.03125 31.472656 83.480469 C 31.195312 82.996094 31.058594 82.308594 31.195312 81.757812 C 31.402344 81.066406 32.160156 80.03125 32.851562 79.757812 C 33.539062 79.480469 34.78125 79.550781 35.402344 79.964844 C 36.089844 80.378906 36.640625 81.480469 36.710938 82.238281 C 36.710938 82.996094 36.089844 84.101562 35.539062 84.515625 C 35.054688 84.925781 34.503906 85.066406 33.816406 85.066406 C 32.917969 84.996094 31.539062 84.238281 30.507812 83.617188 C 29.472656 82.929688 28.714844 81.757812 27.679688 81.066406 C 26.578125 80.378906 25.335938 80.378906 24.164062 79.550781 C 22.648438 78.449219 21.613281 76.242188 19.546875 74.378906 C 16.304688 71.417969 8.308594 66.796875 5.894531 64.523438 C 4.792969 63.558594 4.519531 63.144531 3.828125 62.109375 C 2.933594 60.59375 1.621094 58.320312 1.140625 56.042969 C 0.519531 53.425781 -0.167969 50.253906 1.003906 47.082031 C 2.863281 42.050781 11.894531 35.085938 15.410156 30.398438 C 17.753906 27.296875 19.0625 23.988281 20.785156 22.195312 C 21.820312 21.023438 22.511719 21.023438 23.75 19.851562 C 26.4375 17.441406 31.539062 10.613281 35.195312 7.445312 C 38.019531 5.03125 40.707031 2.964844 43.398438 1.859375 C 45.464844 1.03125 47.464844 0.828125 49.53125 0.757812 C 51.667969 0.621094 53.667969 0.621094 56.011719 1.238281 C 59.183594 2.136719 63.734375 4.617188 66.492188 6.273438 C 68.628906 7.445312 70.695312 8.546875 71.660156 9.855469 C 72.351562 10.820312 71.9375 11.855469 72.558594 13.027344 C 73.589844 14.890625 77.382812 17.992188 78.070312 19.644531 C 78.417969 20.402344 78.417969 21.023438 78.210938 21.574219 C 78.003906 22.195312 77.519531 22.816406 77.039062 23.160156 C 76.484375 23.4375 75.726562 23.644531 75.109375 23.507812 C 74.488281 23.4375 73.382812 22.539062 73.382812 22.539062 " clip-rule="nonzero"/></clipPath><clipPath id="7881c2240a"><rect x="0" width="79" y="0" height="86"/></clipPath><clipPath id="3cc87ff50b"><path d="M 32 45.542969 L 86.664062 45.542969 L 86.664062 88.21875 L 32 88.21875 Z M 32 45.542969 " clip-rule="nonzero"/></clipPath><clipPath id="0c22f1231d"><path d="M 34.988281 82.101562 C 46.292969 81.480469 48.015625 80.859375 49.878906 79.964844 C 51.738281 79 54.015625 77.34375 55.324219 76.105469 C 56.21875 75.140625 56.21875 74.382812 57.183594 73.347656 C 58.976562 71.417969 63.941406 68.382812 66.078125 65.972656 C 67.730469 64.039062 67.9375 62.523438 69.59375 60.320312 C 72.28125 56.664062 79.105469 48.53125 81.796875 46.667969 C 82.761719 45.980469 83.449219 45.703125 84.207031 45.703125 C 84.757812 45.703125 85.378906 46.050781 85.792969 46.460938 C 86.207031 46.808594 86.550781 47.359375 86.621094 47.980469 C 86.691406 48.667969 86.34375 49.910156 85.792969 50.460938 C 85.242188 50.941406 84.070312 51.21875 83.3125 51.148438 C 82.761719 51.082031 82.207031 50.667969 81.796875 50.253906 C 81.449219 49.839844 81.175781 49.152344 81.175781 48.597656 C 81.105469 48.046875 81.3125 47.359375 81.589844 46.945312 C 81.933594 46.460938 82.484375 46.050781 83.035156 45.84375 C 83.519531 45.636719 84.207031 45.636719 84.757812 45.84375 C 85.3125 45.980469 85.863281 46.394531 86.207031 46.875 C 86.550781 47.496094 86.691406 48.597656 86.484375 49.425781 C 86.207031 50.597656 85.171875 51.5625 84 53.011719 C 81.933594 55.5625 77.382812 59.558594 74.625 62.800781 C 72.214844 65.695312 70.765625 68.730469 68.285156 71.554688 C 65.59375 74.589844 61.667969 78.242188 58.839844 80.449219 C 56.839844 82.03125 55.460938 83 53.257812 84.101562 C 50.5 85.480469 46.84375 87.132812 43.535156 87.6875 C 40.226562 88.167969 35.125 88.375 33.402344 87.203125 C 32.4375 86.582031 32.09375 85.136719 32.09375 84.375 C 32.160156 83.6875 32.644531 83.066406 33.125 82.652344 C 33.609375 82.308594 34.988281 82.101562 34.988281 82.101562 " clip-rule="nonzero"/></clipPath><clipPath id="7bdc250a9e"><path d="M 0 0.589844 L 54.664062 0.589844 L 54.664062 43.21875 L 0 43.21875 Z M 0 0.589844 " clip-rule="nonzero"/></clipPath><clipPath id="b889bfb3a4"><path d="M 2.988281 37.101562 C 14.292969 36.480469 16.015625 35.859375 17.878906 34.964844 C 19.738281 34 22.015625 32.34375 23.324219 31.105469 C 24.21875 30.140625 24.21875 29.382812 25.183594 28.347656 C 26.976562 26.417969 31.941406 23.382812 34.078125 20.972656 C 35.730469 19.039062 35.9375 17.523438 37.59375 15.320312 C 40.28125 11.664062 47.105469 3.53125 49.796875 1.667969 C 50.761719 0.980469 51.449219 0.703125 52.207031 0.703125 C 52.757812 0.703125 53.378906 1.050781 53.792969 1.460938 C 54.207031 1.808594 54.550781 2.359375 54.621094 2.980469 C 54.691406 3.667969 54.34375 4.910156 53.792969 5.460938 C 53.242188 5.941406 52.070312 6.21875 51.3125 6.148438 C 50.761719 6.082031 50.207031 5.667969 49.796875 5.253906 C 49.449219 4.839844 49.175781 4.152344 49.175781 3.597656 C 49.105469 3.046875 49.3125 2.359375 49.589844 1.945312 C 49.933594 1.460938 50.484375 1.050781 51.035156 0.84375 C 51.519531 0.636719 52.207031 0.636719 52.757812 0.84375 C 53.3125 0.980469 53.863281 1.394531 54.207031 1.875 C 54.550781 2.496094 54.691406 3.597656 54.484375 4.425781 C 54.207031 5.597656 53.171875 6.5625 52 8.011719 C 49.933594 10.5625 45.382812 14.558594 42.625 17.800781 C 40.214844 20.695312 38.765625 23.730469 36.285156 26.554688 C 33.59375 29.589844 29.667969 33.242188 26.839844 35.449219 C 24.839844 37.03125 23.460938 38 21.257812 39.101562 C 18.5 40.480469 14.84375 42.132812 11.535156 42.6875 C 8.226562 43.167969 3.125 43.375 1.402344 42.203125 C 0.4375 41.582031 0.09375 40.136719 0.09375 39.375 C 0.160156 38.6875 0.644531 38.066406 1.125 37.652344 C 1.609375 37.308594 2.988281 37.101562 2.988281 37.101562 " clip-rule="nonzero"/></clipPath><clipPath id="3057c8fe78"><rect x="0" width="55" y="0" height="44"/></clipPath><clipPath id="28127dcda5"><path d="M 75.296875 21.972656 L 86.984375 21.972656 L 86.984375 51.820312 L 75.296875 51.820312 Z M 75.296875 21.972656 " clip-rule="nonzero"/></clipPath><clipPath id="a1e454f799"><path d="M 80.898438 24.609375 C 83.792969 40.878906 86.757812 46.460938 86.894531 48.667969 C 86.964844 49.496094 86.894531 49.910156 86.550781 50.390625 C 86.136719 51.011719 85.035156 51.632812 84.347656 51.769531 C 83.792969 51.839844 83.105469 51.632812 82.621094 51.289062 C 82.207031 51.011719 81.726562 50.460938 81.589844 49.910156 C 81.382812 49.21875 81.519531 47.980469 82.003906 47.359375 C 82.414062 46.738281 83.585938 46.253906 84.347656 46.253906 C 84.898438 46.253906 85.519531 46.53125 85.929688 46.875 C 86.414062 47.222656 86.757812 47.839844 86.894531 48.394531 C 86.964844 48.945312 86.894531 49.632812 86.691406 50.117188 C 86.484375 50.667969 86 51.21875 85.519531 51.425781 C 84.828125 51.703125 83.585938 51.703125 82.898438 51.425781 C 82.347656 51.21875 82.140625 50.875 81.65625 50.183594 C 80.484375 48.1875 78.347656 41.84375 77.246094 37.570312 C 76.210938 33.363281 75.175781 27.230469 75.382812 24.886719 C 75.453125 23.988281 75.523438 23.507812 75.9375 23.023438 C 76.417969 22.472656 77.589844 21.992188 78.28125 21.992188 C 78.898438 21.992188 79.65625 22.335938 80.070312 22.816406 C 80.484375 23.230469 80.898438 24.609375 80.898438 24.609375 " clip-rule="nonzero"/></clipPath><clipPath id="05447823fc"><path d="M 0.296875 0.972656 L 11.984375 0.972656 L 11.984375 30.820312 L 0.296875 30.820312 Z M 0.296875 0.972656 " clip-rule="nonzero"/></clipPath><clipPath id="1472567f1d"><path d="M 5.898438 3.609375 C 8.792969 19.878906 11.757812 25.460938 11.894531 27.667969 C 11.964844 28.496094 11.894531 28.910156 11.550781 29.390625 C 11.136719 30.011719 10.035156 30.632812 9.347656 30.769531 C 8.792969 30.839844 8.105469 30.632812 7.621094 30.289062 C 7.207031 30.011719 6.726562 29.460938 6.589844 28.910156 C 6.382812 28.21875 6.519531 26.980469 7.003906 26.359375 C 7.414062 25.738281 8.585938 25.253906 9.347656 25.253906 C 9.898438 25.253906 10.519531 25.53125 10.929688 25.875 C 11.414062 26.222656 11.757812 26.839844 11.894531 27.394531 C 11.964844 27.945312 11.894531 28.632812 11.691406 29.117188 C 11.484375 29.667969 11 30.21875 10.519531 30.425781 C 9.828125 30.703125 8.585938 30.703125 7.898438 30.425781 C 7.347656 30.21875 7.140625 29.875 6.65625 29.183594 C 5.484375 27.1875 3.347656 20.84375 2.246094 16.570312 C 1.210938 12.363281 0.175781 6.230469 0.382812 3.886719 C 0.453125 2.988281 0.523438 2.507812 0.9375 2.023438 C 1.417969 1.472656 2.589844 0.992188 3.28125 0.992188 C 3.898438 0.992188 4.65625 1.335938 5.070312 1.816406 C 5.484375 2.230469 5.898438 3.609375 5.898438 3.609375 " clip-rule="nonzero"/></clipPath><clipPath id="077e57d4af"><rect x="0" width="12" y="0" height="31"/></clipPath><clipPath id="e37d7b65fb"><path d="M 42.632812 14.707031 L 69.265625 14.707031 L 69.265625 34.582031 L 42.632812 34.582031 Z M 42.632812 14.707031 " clip-rule="nonzero"/></clipPath><clipPath id="c1cc5bf1a0"><path d="M 44.984375 15.925781 C 54.703125 14.683594 55.875 14.546875 56.632812 15.164062 C 57.390625 15.785156 57.875 17.507812 57.667969 18.542969 C 57.460938 19.648438 55.945312 20.820312 55.046875 21.578125 C 54.289062 22.265625 53.53125 22.816406 52.636719 23.023438 C 51.738281 23.230469 50.222656 23.300781 49.535156 22.75 C 48.914062 22.195312 48.566406 20.542969 48.707031 19.714844 C 48.84375 19.09375 49.328125 18.613281 49.945312 18.199219 C 51.117188 17.441406 54.152344 16.542969 55.738281 16.613281 C 56.910156 16.613281 58.21875 16.890625 58.769531 17.507812 C 59.253906 17.921875 59.390625 18.75 59.390625 19.371094 C 59.320312 19.921875 59.046875 20.542969 58.5625 21.164062 C 57.875 22.058594 55.945312 23.507812 54.773438 23.921875 C 54.082031 24.195312 53.460938 24.335938 52.84375 24.058594 C 52.085938 23.78125 50.910156 22.542969 50.84375 21.714844 C 50.773438 20.820312 51.464844 19.648438 52.359375 18.957031 C 53.601562 17.921875 56.632812 16.957031 58.5625 17.097656 C 60.289062 17.234375 62.90625 18.199219 63.457031 19.371094 C 63.941406 20.40625 63.042969 23.300781 62.285156 23.507812 C 61.527344 23.714844 58.632812 20.820312 58.839844 20.265625 C 58.976562 19.851562 60.699219 19.851562 61.667969 20.058594 C 62.699219 20.335938 64.355469 21.023438 64.835938 21.992188 C 65.386719 23.023438 64.976562 25.507812 64.285156 26.402344 C 63.664062 27.230469 62.21875 27.851562 61.390625 27.710938 C 60.5625 27.574219 59.460938 26.265625 59.183594 25.507812 C 58.976562 24.886719 59.183594 24.058594 59.527344 23.574219 C 60.082031 22.886719 61.460938 22.058594 62.425781 21.992188 C 63.390625 21.992188 64.769531 22.542969 65.386719 23.367188 C 66.078125 24.265625 66.558594 27.230469 66.214844 27.4375 C 65.871094 27.644531 63.664062 25.78125 63.804688 25.574219 C 63.871094 25.300781 67.730469 25.78125 68.628906 26.886719 C 69.523438 27.988281 69.109375 30.953125 68.835938 32.191406 C 68.699219 32.882812 68.421875 33.363281 68.078125 33.777344 C 67.664062 34.121094 67.042969 34.46875 66.421875 34.535156 C 65.734375 34.535156 64.5625 34.121094 64.011719 33.570312 C 63.527344 33.019531 63.320312 31.777344 63.457031 31.089844 C 63.597656 30.46875 64.011719 29.917969 64.421875 29.574219 C 64.835938 29.230469 65.527344 28.953125 66.078125 29.023438 C 66.835938 29.089844 67.9375 29.640625 68.421875 30.195312 C 68.765625 30.675781 68.902344 31.296875 68.902344 31.917969 C 68.835938 32.46875 68.628906 33.089844 68.214844 33.503906 C 67.730469 34.054688 66.558594 34.535156 65.871094 34.535156 C 65.25 34.535156 64.628906 34.191406 64.214844 33.777344 C 63.734375 33.296875 63.113281 31.847656 63.390625 31.367188 C 63.664062 30.882812 65.734375 30.882812 65.734375 30.746094 C 65.734375 30.46875 62.285156 30.953125 61.527344 30.195312 C 60.839844 29.367188 60.699219 26.472656 61.320312 25.917969 C 61.804688 25.4375 64.214844 26.125 64.285156 26.402344 C 64.285156 26.746094 62.839844 27.710938 62.078125 27.710938 C 61.320312 27.78125 60.289062 27.4375 59.734375 26.679688 C 58.769531 25.507812 58.011719 20.199219 58.355469 20.058594 C 58.5625 19.992188 60.148438 21.851562 59.941406 22.472656 C 59.597656 23.4375 55.117188 24.472656 53.53125 24.195312 C 52.429688 23.988281 51.257812 23.164062 50.980469 22.335938 C 50.707031 21.507812 51.1875 20.199219 51.808594 19.300781 C 52.566406 18.199219 54.566406 16.890625 55.738281 16.613281 C 56.632812 16.40625 57.667969 16.542969 58.289062 17.027344 C 58.910156 17.507812 59.390625 18.613281 59.390625 19.371094 C 59.390625 19.992188 59.183594 20.613281 58.5625 21.164062 C 57.460938 22.128906 53.117188 23.507812 51.394531 23.367188 C 50.429688 23.300781 49.535156 22.886719 49.121094 22.265625 C 48.636719 21.644531 48.5 20.40625 48.707031 19.714844 C 48.914062 19.09375 49.394531 18.679688 49.945312 18.199219 C 50.773438 17.578125 52.773438 16.132812 53.460938 16.476562 C 54.152344 16.820312 54.773438 19.234375 54.152344 20.128906 C 53.1875 21.4375 47.050781 21.714844 45.191406 21.4375 C 44.363281 21.300781 43.878906 21.023438 43.46875 20.542969 C 43.054688 20.128906 42.707031 19.371094 42.707031 18.75 C 42.640625 18.128906 42.914062 17.371094 43.328125 16.890625 C 43.675781 16.476562 44.984375 15.925781 44.984375 15.925781 " clip-rule="nonzero"/></clipPath><clipPath id="e8a3725fe6"><path d="M 0.632812 0.707031 L 27.265625 0.707031 L 27.265625 20.582031 L 0.632812 20.582031 Z M 0.632812 0.707031 " clip-rule="nonzero"/></clipPath><clipPath id="b58148dad7"><path d="M 2.984375 1.925781 C 12.703125 0.683594 13.875 0.546875 14.632812 1.164062 C 15.390625 1.785156 15.875 3.507812 15.667969 4.542969 C 15.460938 5.648438 13.945312 6.820312 13.046875 7.578125 C 12.289062 8.265625 11.53125 8.816406 10.636719 9.023438 C 9.738281 9.230469 8.222656 9.300781 7.535156 8.75 C 6.914062 8.195312 6.566406 6.542969 6.707031 5.714844 C 6.84375 5.09375 7.328125 4.613281 7.945312 4.199219 C 9.117188 3.441406 12.152344 2.542969 13.738281 2.613281 C 14.910156 2.613281 16.21875 2.890625 16.769531 3.507812 C 17.253906 3.921875 17.390625 4.75 17.390625 5.371094 C 17.320312 5.921875 17.046875 6.542969 16.5625 7.164062 C 15.875 8.058594 13.945312 9.507812 12.773438 9.921875 C 12.082031 10.195312 11.460938 10.335938 10.84375 10.058594 C 10.085938 9.78125 8.910156 8.542969 8.84375 7.714844 C 8.773438 6.820312 9.464844 5.648438 10.359375 4.957031 C 11.601562 3.921875 14.632812 2.957031 16.5625 3.097656 C 18.289062 3.234375 20.90625 4.199219 21.457031 5.371094 C 21.941406 6.40625 21.042969 9.300781 20.285156 9.507812 C 19.527344 9.714844 16.632812 6.820312 16.839844 6.265625 C 16.976562 5.851562 18.699219 5.851562 19.667969 6.058594 C 20.699219 6.335938 22.355469 7.023438 22.835938 7.992188 C 23.386719 9.023438 22.976562 11.507812 22.285156 12.402344 C 21.664062 13.230469 20.21875 13.851562 19.390625 13.710938 C 18.5625 13.574219 17.460938 12.265625 17.183594 11.507812 C 16.976562 10.886719 17.183594 10.058594 17.527344 9.574219 C 18.082031 8.886719 19.460938 8.058594 20.425781 7.992188 C 21.390625 7.992188 22.769531 8.542969 23.386719 9.367188 C 24.078125 10.265625 24.558594 13.230469 24.214844 13.4375 C 23.871094 13.644531 21.664062 11.78125 21.804688 11.574219 C 21.871094 11.300781 25.730469 11.78125 26.628906 12.886719 C 27.523438 13.988281 27.109375 16.953125 26.835938 18.191406 C 26.699219 18.882812 26.421875 19.363281 26.078125 19.777344 C 25.664062 20.121094 25.042969 20.46875 24.421875 20.535156 C 23.734375 20.535156 22.5625 20.121094 22.011719 19.570312 C 21.527344 19.019531 21.320312 17.777344 21.457031 17.089844 C 21.597656 16.46875 22.011719 15.917969 22.421875 15.574219 C 22.835938 15.230469 23.527344 14.953125 24.078125 15.023438 C 24.835938 15.089844 25.9375 15.640625 26.421875 16.195312 C 26.765625 16.675781 26.902344 17.296875 26.902344 17.917969 C 26.835938 18.46875 26.628906 19.089844 26.214844 19.503906 C 25.730469 20.054688 24.558594 20.535156 23.871094 20.535156 C 23.25 20.535156 22.628906 20.191406 22.214844 19.777344 C 21.734375 19.296875 21.113281 17.847656 21.390625 17.367188 C 21.664062 16.882812 23.734375 16.882812 23.734375 16.746094 C 23.734375 16.46875 20.285156 16.953125 19.527344 16.195312 C 18.839844 15.367188 18.699219 12.472656 19.320312 11.917969 C 19.804688 11.4375 22.214844 12.125 22.285156 12.402344 C 22.285156 12.746094 20.839844 13.710938 20.078125 13.710938 C 19.320312 13.78125 18.289062 13.4375 17.734375 12.679688 C 16.769531 11.507812 16.011719 6.199219 16.355469 6.058594 C 16.5625 5.992188 18.148438 7.851562 17.941406 8.472656 C 17.597656 9.4375 13.117188 10.472656 11.53125 10.195312 C 10.429688 9.988281 9.257812 9.164062 8.980469 8.335938 C 8.707031 7.507812 9.1875 6.199219 9.808594 5.300781 C 10.566406 4.199219 12.566406 2.890625 13.738281 2.613281 C 14.632812 2.40625 15.667969 2.542969 16.289062 3.027344 C 16.910156 3.507812 17.390625 4.613281 17.390625 5.371094 C 17.390625 5.992188 17.183594 6.613281 16.5625 7.164062 C 15.460938 8.128906 11.117188 9.507812 9.394531 9.367188 C 8.429688 9.300781 7.535156 8.886719 7.121094 8.265625 C 6.636719 7.644531 6.5 6.40625 6.707031 5.714844 C 6.914062 5.09375 7.394531 4.679688 7.945312 4.199219 C 8.773438 3.578125 10.773438 2.132812 11.460938 2.476562 C 12.152344 2.820312 12.773438 5.234375 12.152344 6.128906 C 11.1875 7.4375 5.050781 7.714844 3.191406 7.4375 C 2.363281 7.300781 1.878906 7.023438 1.46875 6.542969 C 1.054688 6.128906 0.707031 5.371094 0.707031 4.75 C 0.640625 4.128906 0.914062 3.371094 1.328125 2.890625 C 1.675781 2.476562 2.984375 1.925781 2.984375 1.925781 " clip-rule="nonzero"/></clipPath><clipPath id="289e8a78f7"><rect x="0" width="28" y="0" height="21"/></clipPath><clipPath id="7a724d7769"><path d="M 29.554688 27.074219 L 65.519531 27.074219 L 65.519531 47.964844 L 29.554688 47.964844 Z M 29.554688 27.074219 " clip-rule="nonzero"/></clipPath><clipPath id="0a88afa3fe"><path d="M 32.160156 27.089844 C 36.917969 27.089844 39.261719 27.78125 40.15625 28.816406 C 40.847656 29.640625 40.226562 31.226562 41.054688 31.984375 C 42.15625 33.019531 45.398438 32.46875 46.984375 33.296875 C 48.363281 33.984375 48.707031 35.363281 50.152344 36.191406 C 52.289062 37.292969 57.53125 37.085938 58.910156 38.328125 C 59.734375 39.015625 59.253906 40.1875 59.875 40.878906 C 60.769531 41.84375 63.25 42.121094 64.148438 42.808594 C 64.699219 43.222656 65.042969 43.636719 65.25 44.1875 C 65.457031 44.671875 65.457031 45.359375 65.320312 45.910156 C 65.183594 46.460938 64.835938 47.082031 64.285156 47.359375 C 63.664062 47.773438 62.492188 47.980469 61.734375 47.773438 C 61.046875 47.496094 60.21875 46.601562 60.011719 45.84375 C 59.804688 45.082031 60.082031 43.910156 60.632812 43.292969 C 61.113281 42.738281 62.285156 42.328125 63.042969 42.394531 C 63.804688 42.53125 64.769531 43.222656 65.113281 43.910156 C 65.457031 44.601562 65.457031 45.84375 65.113281 46.460938 C 64.699219 47.152344 63.871094 47.773438 62.90625 47.910156 C 61.390625 48.046875 57.945312 46.460938 56.359375 45.359375 C 55.1875 44.464844 54.980469 42.878906 53.808594 42.257812 C 52.289062 41.5 48.914062 42.671875 47.742188 41.84375 C 46.914062 41.222656 47.535156 39.429688 46.707031 38.742188 C 45.464844 37.84375 41.8125 38.949219 39.953125 38.328125 C 38.503906 37.84375 36.988281 37.15625 36.296875 36.121094 C 35.675781 35.15625 36.574219 32.949219 35.882812 32.332031 C 35.125 31.710938 32.921875 32.882812 31.886719 32.539062 C 31.058594 32.261719 30.164062 31.710938 29.816406 31.019531 C 29.542969 30.332031 29.609375 29.089844 29.957031 28.46875 C 30.371094 27.78125 32.160156 27.089844 32.160156 27.089844 " clip-rule="nonzero"/></clipPath><clipPath id="a51b0a4758"><path d="M 0.554688 0.0742188 L 36.519531 0.0742188 L 36.519531 20.964844 L 0.554688 20.964844 Z M 0.554688 0.0742188 " clip-rule="nonzero"/></clipPath><clipPath id="517e97061b"><path d="M 3.160156 0.0898438 C 7.917969 0.0898438 10.261719 0.78125 11.15625 1.816406 C 11.847656 2.640625 11.226562 4.226562 12.054688 4.984375 C 13.15625 6.019531 16.398438 5.46875 17.984375 6.296875 C 19.363281 6.984375 19.707031 8.363281 21.152344 9.191406 C 23.289062 10.292969 28.53125 10.085938 29.910156 11.328125 C 30.734375 12.015625 30.253906 13.1875 30.875 13.878906 C 31.769531 14.84375 34.25 15.121094 35.148438 15.808594 C 35.699219 16.222656 36.042969 16.636719 36.25 17.1875 C 36.457031 17.671875 36.457031 18.359375 36.320312 18.910156 C 36.183594 19.460938 35.835938 20.082031 35.285156 20.359375 C 34.664062 20.773438 33.492188 20.980469 32.734375 20.773438 C 32.046875 20.496094 31.21875 19.601562 31.011719 18.84375 C 30.804688 18.082031 31.082031 16.910156 31.632812 16.292969 C 32.113281 15.738281 33.285156 15.328125 34.042969 15.394531 C 34.804688 15.53125 35.769531 16.222656 36.113281 16.910156 C 36.457031 17.601562 36.457031 18.84375 36.113281 19.460938 C 35.699219 20.152344 34.871094 20.773438 33.90625 20.910156 C 32.390625 21.046875 28.945312 19.460938 27.359375 18.359375 C 26.1875 17.464844 25.980469 15.878906 24.808594 15.257812 C 23.289062 14.5 19.914062 15.671875 18.742188 14.84375 C 17.914062 14.222656 18.535156 12.429688 17.707031 11.742188 C 16.464844 10.84375 12.8125 11.949219 10.953125 11.328125 C 9.503906 10.84375 7.988281 10.15625 7.296875 9.121094 C 6.675781 8.15625 7.574219 5.949219 6.882812 5.332031 C 6.125 4.710938 3.921875 5.882812 2.886719 5.539062 C 2.058594 5.261719 1.164062 4.710938 0.816406 4.019531 C 0.542969 3.332031 0.609375 2.089844 0.957031 1.46875 C 1.371094 0.78125 3.160156 0.0898438 3.160156 0.0898438 " clip-rule="nonzero"/></clipPath><clipPath id="0a2c04bc44"><rect x="0" width="37" y="0" height="21"/></clipPath><clipPath id="22804d14e6"><path d="M 24.6875 37.53125 L 61.34375 37.53125 L 61.34375 65.25 L 24.6875 65.25 Z M 24.6875 37.53125 " clip-rule="nonzero"/></clipPath><clipPath id="ea3d6f9577"><path d="M 28.371094 37.570312 C 37.46875 41.359375 38.296875 42.464844 38.710938 43.703125 C 39.125 44.945312 37.882812 47.359375 38.710938 48.046875 C 39.746094 48.875 43.949219 46.53125 45.671875 46.945312 C 46.84375 47.222656 47.878906 47.839844 48.363281 48.738281 C 48.914062 49.769531 48.773438 52.734375 48.292969 52.941406 C 47.878906 53.082031 45.878906 51.21875 46.019531 50.875 C 46.15625 50.53125 48.222656 50.53125 49.257812 50.875 C 50.292969 51.289062 50.84375 52.597656 52.015625 53.425781 C 53.738281 54.527344 57.183594 54.804688 58.769531 56.390625 C 60.21875 57.90625 61.390625 61.007812 61.320312 62.59375 C 61.253906 63.488281 60.699219 64.386719 60.082031 64.800781 C 59.390625 65.214844 58.148438 65.28125 57.460938 65.074219 C 56.910156 64.867188 56.425781 64.386719 56.152344 63.902344 C 55.875 63.421875 55.667969 62.730469 55.804688 62.179688 C 55.945312 61.492188 56.632812 60.386719 57.324219 60.042969 C 57.945312 59.699219 59.183594 59.699219 59.875 60.113281 C 60.5625 60.457031 61.183594 61.492188 61.320312 62.25 C 61.390625 63.007812 60.90625 64.179688 60.289062 64.660156 C 59.667969 65.144531 58.425781 65.28125 57.738281 65.144531 C 57.183594 65.007812 56.703125 64.660156 56.289062 64.109375 C 55.738281 63.351562 56.21875 61.214844 55.324219 60.386719 C 54.082031 59.351562 50.222656 60.320312 48.773438 59.421875 C 47.742188 58.734375 47.742188 57.078125 46.84375 56.457031 C 46.019531 55.835938 43.878906 56.25 43.535156 55.632812 C 43.191406 54.941406 45.257812 53.082031 44.847656 52.527344 C 44.226562 51.703125 39.46875 53.355469 37.46875 53.21875 C 36.089844 53.082031 34.851562 53.082031 34.023438 52.390625 C 33.195312 51.632812 32.644531 49.839844 32.644531 48.597656 C 32.574219 47.425781 34.09375 46.1875 33.679688 45.289062 C 32.921875 43.84375 27.472656 43.5 26.09375 42.53125 C 25.40625 42.050781 25.0625 41.566406 24.855469 40.949219 C 24.714844 40.257812 24.855469 39.015625 25.335938 38.464844 C 25.957031 37.84375 28.371094 37.570312 28.371094 37.570312 " clip-rule="nonzero"/></clipPath><clipPath id="f0964a47ef"><path d="M 0.6875 0.53125 L 37.34375 0.53125 L 37.34375 28.25 L 0.6875 28.25 Z M 0.6875 0.53125 " clip-rule="nonzero"/></clipPath><clipPath id="55a0ef327a"><path d="M 4.371094 0.570312 C 13.46875 4.359375 14.296875 5.464844 14.710938 6.703125 C 15.125 7.945312 13.882812 10.359375 14.710938 11.046875 C 15.746094 11.875 19.949219 9.53125 21.671875 9.945312 C 22.84375 10.222656 23.878906 10.839844 24.363281 11.738281 C 24.914062 12.769531 24.773438 15.734375 24.292969 15.941406 C 23.878906 16.082031 21.878906 14.21875 22.019531 13.875 C 22.15625 13.53125 24.222656 13.53125 25.257812 13.875 C 26.292969 14.289062 26.84375 15.597656 28.015625 16.425781 C 29.738281 17.527344 33.183594 17.804688 34.769531 19.390625 C 36.21875 20.90625 37.390625 24.007812 37.320312 25.59375 C 37.253906 26.488281 36.699219 27.386719 36.082031 27.800781 C 35.390625 28.214844 34.148438 28.28125 33.460938 28.074219 C 32.910156 27.867188 32.425781 27.386719 32.152344 26.902344 C 31.875 26.421875 31.667969 25.730469 31.804688 25.179688 C 31.945312 24.492188 32.632812 23.386719 33.324219 23.042969 C 33.945312 22.699219 35.183594 22.699219 35.875 23.113281 C 36.5625 23.457031 37.183594 24.492188 37.320312 25.25 C 37.390625 26.007812 36.90625 27.179688 36.289062 27.660156 C 35.667969 28.144531 34.425781 28.28125 33.738281 28.144531 C 33.183594 28.007812 32.703125 27.660156 32.289062 27.109375 C 31.738281 26.351562 32.21875 24.214844 31.324219 23.386719 C 30.082031 22.351562 26.222656 23.320312 24.773438 22.421875 C 23.742188 21.734375 23.742188 20.078125 22.84375 19.457031 C 22.019531 18.835938 19.878906 19.25 19.535156 18.632812 C 19.191406 17.941406 21.257812 16.082031 20.847656 15.527344 C 20.226562 14.703125 15.46875 16.355469 13.46875 16.21875 C 12.089844 16.082031 10.851562 16.082031 10.023438 15.390625 C 9.195312 14.632812 8.644531 12.839844 8.644531 11.597656 C 8.574219 10.425781 10.09375 9.1875 9.679688 8.289062 C 8.921875 6.84375 3.472656 6.5 2.09375 5.53125 C 1.40625 5.050781 1.0625 4.566406 0.855469 3.949219 C 0.714844 3.257812 0.855469 2.015625 1.335938 1.464844 C 1.957031 0.84375 4.371094 0.570312 4.371094 0.570312 " clip-rule="nonzero"/></clipPath><clipPath id="5241a43c21"><rect x="0" width="38" y="0" height="29"/></clipPath><clipPath id="8601d979ba"><path d="M 15.628906 50.6875 L 51.375 50.6875 L 51.375 75.199219 L 15.628906 75.199219 Z M 15.628906 50.6875 " clip-rule="nonzero"/></clipPath><clipPath id="2c5a992371"><path d="M 18.03125 50.804688 C 26.578125 50.460938 27.886719 51.703125 28.371094 52.804688 C 28.851562 53.699219 28.09375 55.5625 28.644531 55.90625 C 29.128906 56.183594 30.4375 54.664062 31.402344 54.734375 C 32.4375 54.804688 33.953125 55.5625 34.503906 56.527344 C 35.125 57.492188 35.402344 60.179688 34.917969 60.523438 C 34.503906 60.800781 32.230469 59.492188 32.230469 59.148438 C 32.300781 58.800781 34.851562 58.320312 36.023438 58.457031 C 37.054688 58.527344 38.296875 58.800781 38.917969 59.492188 C 39.675781 60.25 39.125 61.695312 40.019531 62.9375 C 41.742188 65.558594 50.566406 70.105469 51.257812 72.105469 C 51.464844 72.796875 51.050781 73.347656 50.773438 73.828125 C 50.5 74.3125 49.945312 74.726562 49.394531 74.933594 C 48.707031 75.070312 47.464844 75 46.84375 74.519531 C 46.222656 74.035156 45.671875 72.933594 45.742188 72.175781 C 45.742188 71.417969 46.363281 70.382812 47.050781 69.96875 C 47.671875 69.554688 48.914062 69.554688 49.601562 69.761719 C 50.152344 69.96875 50.636719 70.453125 50.910156 71.003906 C 51.1875 71.625 51.257812 72.863281 50.910156 73.554688 C 50.566406 74.242188 49.535156 74.863281 48.773438 75.070312 C 48.222656 75.140625 47.535156 75 47.050781 74.65625 C 46.5 74.242188 45.878906 72.449219 45.742188 72.449219 C 45.605469 72.519531 46.085938 73.484375 45.878906 73.691406 C 45.398438 74.035156 41.191406 71.832031 40.019531 70.589844 C 39.125 69.695312 39.261719 68.109375 38.503906 67.488281 C 37.675781 66.9375 35.816406 67.761719 35.332031 67.144531 C 34.851562 66.589844 36.023438 64.59375 35.46875 64.109375 C 34.917969 63.488281 32.574219 64.730469 31.609375 64.109375 C 30.507812 63.488281 30.507812 60.9375 29.472656 60.042969 C 28.371094 59.214844 26.234375 59.765625 25.0625 59.007812 C 23.957031 58.320312 23.613281 56.320312 22.441406 55.699219 C 20.992188 55.078125 18.03125 56.597656 16.925781 55.835938 C 16.101562 55.355469 15.546875 53.839844 15.753906 53.011719 C 15.894531 52.113281 18.03125 50.804688 18.03125 50.804688 " clip-rule="nonzero"/></clipPath><clipPath id="7a8204bdf9"><path d="M 0.628906 0.6875 L 36.375 0.6875 L 36.375 25.1875 L 0.628906 25.1875 Z M 0.628906 0.6875 " clip-rule="nonzero"/></clipPath><clipPath id="011be87a8e"><path d="M 3.03125 0.804688 C 11.578125 0.460938 12.886719 1.703125 13.371094 2.804688 C 13.851562 3.699219 13.09375 5.5625 13.644531 5.90625 C 14.128906 6.183594 15.4375 4.664062 16.402344 4.734375 C 17.4375 4.804688 18.953125 5.5625 19.503906 6.527344 C 20.125 7.492188 20.402344 10.179688 19.917969 10.523438 C 19.503906 10.800781 17.230469 9.492188 17.230469 9.148438 C 17.300781 8.800781 19.851562 8.320312 21.023438 8.457031 C 22.054688 8.527344 23.296875 8.800781 23.917969 9.492188 C 24.675781 10.25 24.125 11.695312 25.019531 12.9375 C 26.742188 15.558594 35.566406 20.105469 36.257812 22.105469 C 36.464844 22.796875 36.050781 23.347656 35.773438 23.828125 C 35.5 24.3125 34.945312 24.726562 34.394531 24.933594 C 33.707031 25.070312 32.464844 25 31.84375 24.519531 C 31.222656 24.035156 30.671875 22.933594 30.742188 22.175781 C 30.742188 21.417969 31.363281 20.382812 32.050781 19.96875 C 32.671875 19.554688 33.914062 19.554688 34.601562 19.761719 C 35.152344 19.96875 35.636719 20.453125 35.910156 21.003906 C 36.1875 21.625 36.257812 22.863281 35.910156 23.554688 C 35.566406 24.242188 34.535156 24.863281 33.773438 25.070312 C 33.222656 25.140625 32.535156 25 32.050781 24.65625 C 31.5 24.242188 30.878906 22.449219 30.742188 22.449219 C 30.605469 22.519531 31.085938 23.484375 30.878906 23.691406 C 30.398438 24.035156 26.191406 21.832031 25.019531 20.589844 C 24.125 19.695312 24.261719 18.109375 23.503906 17.488281 C 22.675781 16.9375 20.816406 17.761719 20.332031 17.144531 C 19.851562 16.589844 21.023438 14.59375 20.46875 14.109375 C 19.917969 13.488281 17.574219 14.730469 16.609375 14.109375 C 15.507812 13.488281 15.507812 10.9375 14.472656 10.042969 C 13.371094 9.214844 11.234375 9.765625 10.0625 9.007812 C 8.957031 8.320312 8.613281 6.320312 7.441406 5.699219 C 5.992188 5.078125 3.03125 6.597656 1.925781 5.835938 C 1.101562 5.355469 0.546875 3.839844 0.753906 3.011719 C 0.894531 2.113281 3.03125 0.804688 3.03125 0.804688 " clip-rule="nonzero"/></clipPath><clipPath id="de29b32b05"><rect x="0" width="37" y="0" height="26"/></clipPath><clipPath id="03a2dda177"><rect x="0" width="90" y="0" height="91"/></clipPath></defs><g clip-path="url(#770665efb2)"><g transform="matrix(1, 0, 0, 1, 0.000000000000000028, 0.000000000000004566)"><g clip-path="url(#03a2dda177)"><g clip-path="url(#60eae96ad0)"><g clip-path="url(#d020bd0adb)"><g transform="matrix(1, 0, 0, 1, 2, 2)"><g clip-path="url(#7881c2240a)"><g clip-path="url(#671275a40e)"><g clip-path="url(#db28717fd4)"><rect x="-34.76" width="155.52" fill="#dbdbdb" y="-35.306" height="158.112" fill-opacity="1"/></g></g></g></g></g></g><g clip-path="url(#3cc87ff50b)"><g clip-path="url(#0c22f1231d)"><g transform="matrix(1, 0, 0, 1, 32, 45)"><g clip-path="url(#3057c8fe78)"><g clip-path="url(#7bdc250a9e)"><g clip-path="url(#b889bfb3a4)"><rect x="-64.76" width="155.52" fill="#dbdbdb" y="-78.306" height="158.112" fill-opacity="1"/></g></g></g></g></g></g><g clip-path="url(#28127dcda5)"><g clip-path="url(#a1e454f799)"><g transform="matrix(1, 0, 0, 1, 75, 21)"><g clip-path="url(#077e57d4af)"><g clip-path="url(#05447823fc)"><g clip-path="url(#1472567f1d)"><rect x="-107.76" width="155.52" fill="#dbdbdb" y="-54.306" height="158.112" fill-opacity="1"/></g></g></g></g></g></g><g clip-path="url(#e37d7b65fb)"><g clip-path="url(#c1cc5bf1a0)"><g transform="matrix(1, 0, 0, 1, 42, 14)"><g clip-path="url(#289e8a78f7)"><g clip-path="url(#e8a3725fe6)"><g clip-path="url(#b58148dad7)"><rect x="-74.76" width="155.52" fill="#dbdbdb" y="-47.306" height="158.112" fill-opacity="1"/></g></g></g></g></g></g><g clip-path="url(#7a724d7769)"><g clip-path="url(#0a88afa3fe)"><g transform="matrix(1, 0, 0, 1, 29, 27)"><g clip-path="url(#0a2c04bc44)"><g clip-path="url(#a51b0a4758)"><g clip-path="url(#517e97061b)"><rect x="-61.76" width="155.52" fill="#dbdbdb" y="-60.306" height="158.112" fill-opacity="1"/></g></g></g></g></g></g><g clip-path="url(#22804d14e6)"><g clip-path="url(#ea3d6f9577)"><g transform="matrix(1, 0, 0, 1, 24, 37)"><g clip-path="url(#5241a43c21)"><g clip-path="url(#f0964a47ef)"><g clip-path="url(#55a0ef327a)"><rect x="-56.76" width="155.52" fill="#dbdbdb" y="-70.306" height="158.112" fill-opacity="1"/></g></g></g></g></g></g><g clip-path="url(#8601d979ba)"><g clip-path="url(#2c5a992371)"><g transform="matrix(1, 0, 0, 1, 15, 50)"><g clip-path="url(#de29b32b05)"><g clip-path="url(#7a8204bdf9)"><g clip-path="url(#011be87a8e)"><rect x="-47.76" width="155.52" fill="#dbdbdb" y="-83.306" height="158.112" fill-opacity="1"/></g></g></g></g></g></g></g></g></g></svg>