<svg xmlns="http://www.w3.org/2000/svg" xmlns:xlink="http://www.w3.org/1999/xlink" width="140" zoomAndPan="magnify" viewBox="0 0 104.88 83.249999" height="111" preserveAspectRatio="xMidYMid meet" version="1.0"><defs><clipPath id="9e602aa0b4"><path d="M 24.058594 2.910156 L 71.457031 2.910156 L 71.457031 67.148438 L 24.058594 67.148438 Z M 24.058594 2.910156 " clip-rule="nonzero"/></clipPath><clipPath id="d736f36758"><path d="M 24.121094 21.332031 C 24.34375 13.898438 24.34375 12.710938 25.308594 11.445312 C 27.019531 9.21875 32.964844 6.242188 35.566406 4.90625 C 37.054688 4.238281 37.796875 3.941406 39.285156 3.640625 C 41.140625 3.195312 43.371094 2.75 46.121094 2.972656 C 50.285156 3.195312 58.015625 4.460938 61.730469 6.242188 C 64.183594 7.507812 65.671875 8.992188 67.230469 10.851562 C 68.792969 12.859375 70.355469 16.128906 70.949219 18.136719 C 71.320312 19.398438 71.320312 20.21875 71.394531 21.332031 C 71.394531 22.523438 71.46875 23.5625 71.171875 24.976562 C 70.578125 26.980469 69.3125 30.105469 67.601562 32.257812 C 65.746094 34.5625 62.996094 36.570312 60.320312 38.207031 C 57.644531 39.839844 52.8125 40.285156 51.472656 42.070312 C 50.65625 43.113281 50.878906 44.300781 50.878906 45.714844 C 50.878906 47.570312 51.769531 49.726562 51.917969 52.253906 C 52.21875 55.820312 52.664062 62.957031 51.917969 65.113281 C 51.621094 65.929688 51.324219 66.300781 50.804688 66.675781 C 50.136719 67.046875 48.722656 67.195312 47.980469 66.972656 C 47.386719 66.75 46.863281 66.226562 46.566406 65.707031 C 46.269531 65.1875 46.046875 64.519531 46.121094 63.851562 C 46.269531 63.105469 47.089844 61.992188 47.757812 61.546875 C 48.277344 61.175781 49.019531 61.175781 49.617188 61.25 C 50.210938 61.324219 50.878906 61.621094 51.25 62.140625 C 51.769531 62.734375 52.144531 64.074219 51.992188 64.816406 C 51.917969 65.484375 51.472656 66.078125 51.027344 66.453125 C 50.582031 66.824219 49.839844 67.121094 49.242188 67.121094 C 48.648438 67.195312 47.90625 66.972656 47.460938 66.675781 C 46.941406 66.300781 46.640625 66.003906 46.269531 65.113281 C 45.15625 62.066406 44.488281 46.605469 45.007812 42.367188 C 45.230469 40.660156 45.527344 39.839844 46.121094 38.875 C 46.714844 38.058594 47.386719 37.609375 48.425781 36.941406 C 50.433594 35.679688 55.042969 34.488281 57.570312 32.929688 C 59.722656 31.589844 61.65625 30.253906 62.921875 28.542969 C 64.183594 26.90625 65.152344 24.527344 65.449219 22.820312 C 65.671875 21.703125 65.523438 20.664062 65.226562 19.699219 C 65 18.65625 64.554688 17.691406 63.886719 16.648438 C 62.847656 15.089844 61.507812 12.933594 59.5 11.746094 C 56.898438 10.257812 52.21875 9.664062 49.167969 9.21875 C 46.789062 8.84375 44.488281 8.769531 42.628906 8.992188 C 41.214844 9.066406 40.398438 9.21875 38.984375 9.8125 C 36.609375 10.851562 31.40625 13.007812 30.066406 15.386719 C 29.027344 17.246094 30.4375 20.589844 29.992188 22.074219 C 29.769531 22.894531 29.398438 23.488281 28.804688 23.785156 C 27.984375 24.230469 26.203125 24.304688 25.457031 23.785156 C 24.714844 23.414062 24.121094 21.332031 24.121094 21.332031 " clip-rule="nonzero"/></clipPath><clipPath id="97fd8b558f"><path d="M 0.0585938 0.910156 L 47.457031 0.910156 L 47.457031 65.148438 L 0.0585938 65.148438 Z M 0.0585938 0.910156 " clip-rule="nonzero"/></clipPath><clipPath id="2400d1be5f"><path d="M 0.121094 19.332031 C 0.34375 11.898438 0.34375 10.710938 1.308594 9.445312 C 3.019531 7.21875 8.964844 4.242188 11.566406 2.90625 C 13.054688 2.238281 13.796875 1.941406 15.285156 1.640625 C 17.140625 1.195312 19.371094 0.75 22.121094 0.972656 C 26.285156 1.195312 34.015625 2.460938 37.730469 4.242188 C 40.183594 5.507812 41.671875 6.992188 43.230469 8.851562 C 44.792969 10.859375 46.355469 14.128906 46.949219 16.136719 C 47.320312 17.398438 47.320312 18.21875 47.394531 19.332031 C 47.394531 20.523438 47.46875 21.5625 47.171875 22.976562 C 46.578125 24.980469 45.3125 28.105469 43.601562 30.257812 C 41.746094 32.5625 38.996094 34.570312 36.320312 36.207031 C 33.644531 37.839844 28.8125 38.285156 27.472656 40.070312 C 26.65625 41.113281 26.878906 42.300781 26.878906 43.714844 C 26.878906 45.570312 27.769531 47.726562 27.917969 50.253906 C 28.21875 53.820312 28.664062 60.957031 27.917969 63.113281 C 27.621094 63.929688 27.324219 64.300781 26.804688 64.675781 C 26.136719 65.046875 24.722656 65.195312 23.980469 64.972656 C 23.386719 64.75 22.863281 64.226562 22.566406 63.707031 C 22.269531 63.1875 22.046875 62.519531 22.121094 61.851562 C 22.269531 61.105469 23.089844 59.992188 23.757812 59.546875 C 24.277344 59.175781 25.019531 59.175781 25.617188 59.25 C 26.210938 59.324219 26.878906 59.621094 27.25 60.140625 C 27.769531 60.734375 28.144531 62.074219 27.992188 62.816406 C 27.917969 63.484375 27.472656 64.078125 27.027344 64.453125 C 26.582031 64.824219 25.839844 65.121094 25.242188 65.121094 C 24.648438 65.195312 23.90625 64.972656 23.460938 64.675781 C 22.941406 64.300781 22.640625 64.003906 22.269531 63.113281 C 21.15625 60.066406 20.488281 44.605469 21.007812 40.367188 C 21.230469 38.660156 21.527344 37.839844 22.121094 36.875 C 22.714844 36.058594 23.386719 35.609375 24.425781 34.941406 C 26.433594 33.679688 31.042969 32.488281 33.570312 30.929688 C 35.722656 29.589844 37.65625 28.253906 38.921875 26.542969 C 40.183594 24.90625 41.152344 22.527344 41.449219 20.820312 C 41.671875 19.703125 41.523438 18.664062 41.226562 17.699219 C 41 16.65625 40.554688 15.691406 39.886719 14.648438 C 38.847656 13.089844 37.507812 10.933594 35.5 9.746094 C 32.898438 8.257812 28.21875 7.664062 25.167969 7.21875 C 22.789062 6.84375 20.488281 6.769531 18.628906 6.992188 C 17.214844 7.066406 16.398438 7.21875 14.984375 7.8125 C 12.609375 8.851562 7.40625 11.007812 6.066406 13.386719 C 5.027344 15.246094 6.4375 18.589844 5.992188 20.074219 C 5.769531 20.894531 5.398438 21.488281 4.804688 21.785156 C 3.984375 22.230469 2.203125 22.304688 1.457031 21.785156 C 0.714844 21.414062 0.121094 19.332031 0.121094 19.332031 " clip-rule="nonzero"/></clipPath><clipPath id="6493349acb"><rect x="0" width="48" y="0" height="66"/></clipPath><clipPath id="1c1242cd7f"><path d="M 44.902344 72.515625 L 50.746094 72.515625 L 50.746094 78.359375 L 44.902344 78.359375 Z M 44.902344 72.515625 " clip-rule="nonzero"/></clipPath><clipPath id="2413382b55"><path d="M 50.730469 74.628906 C 49.988281 77.75 49.617188 78.046875 49.167969 78.195312 C 48.425781 78.417969 47.015625 78.34375 46.417969 78.046875 C 45.898438 77.824219 45.601562 77.378906 45.378906 77.007812 C 45.15625 76.632812 44.933594 76.1875 44.933594 75.667969 C 45.007812 74.925781 45.601562 73.660156 46.121094 73.140625 C 46.492188 72.769531 46.863281 72.621094 47.386719 72.546875 C 48.128906 72.546875 50.0625 73.363281 50.0625 73.363281 " clip-rule="nonzero"/></clipPath><clipPath id="2794de9dd0"><path d="M 0.902344 0.546875 L 6.746094 0.546875 L 6.746094 6.359375 L 0.902344 6.359375 Z M 0.902344 0.546875 " clip-rule="nonzero"/></clipPath><clipPath id="b50992e062"><path d="M 6.730469 2.628906 C 5.988281 5.75 5.617188 6.046875 5.167969 6.195312 C 4.425781 6.417969 3.015625 6.34375 2.417969 6.046875 C 1.898438 5.824219 1.601562 5.378906 1.378906 5.007812 C 1.15625 4.632812 0.933594 4.1875 0.933594 3.667969 C 1.007812 2.925781 1.601562 1.660156 2.121094 1.140625 C 2.492188 0.769531 2.863281 0.621094 3.386719 0.546875 C 4.128906 0.546875 6.0625 1.363281 6.0625 1.363281 " clip-rule="nonzero"/></clipPath><clipPath id="5a9817e9b2"><rect x="0" width="7" y="0" height="7"/></clipPath><clipPath id="d656c585aa"><path d="M 3.125 21 L 41 21 L 41 79.210938 L 3.125 79.210938 Z M 3.125 21 " clip-rule="nonzero"/></clipPath><clipPath id="535607fd78"><path d="M 19.363281 25.792969 C 16.613281 32.332031 16.390625 34.785156 17.355469 36.644531 C 18.695312 38.875 24.195312 40.4375 25.53125 42.144531 C 26.203125 43.113281 26.5 44.003906 26.351562 44.820312 C 26.203125 45.640625 25.53125 46.308594 24.640625 46.976562 C 23.078125 48.089844 18.917969 48.242188 16.835938 49.503906 C 14.976562 50.617188 13.640625 52.179688 12.449219 53.816406 C 11.1875 55.597656 9.996094 57.828125 9.476562 59.910156 C 8.957031 61.917969 8.957031 64.371094 9.105469 66.078125 C 9.253906 67.417969 9.179688 68.53125 9.921875 69.425781 C 10.964844 70.613281 13.269531 71.058594 15.945312 71.65625 C 21.074219 72.769531 35.566406 71.804688 38.910156 73.363281 C 40.101562 73.882812 40.621094 74.554688 40.84375 75.371094 C 41.066406 76.1875 40.769531 77.453125 40.25 78.121094 C 39.730469 78.714844 38.464844 79.234375 37.648438 79.085938 C 36.832031 79.011719 35.714844 78.195312 35.34375 77.527344 C 34.972656 77.007812 34.898438 76.261719 35.046875 75.667969 C 35.121094 75.074219 35.417969 74.40625 35.9375 74.03125 C 36.535156 73.511719 37.796875 73.066406 38.613281 73.289062 C 39.433594 73.4375 40.398438 74.40625 40.695312 75.074219 C 40.992188 75.667969 40.992188 76.410156 40.84375 76.933594 C 40.695312 77.527344 40.472656 78.121094 39.730469 78.566406 C 38.242188 79.386719 34.230469 79.234375 30.511719 79.085938 C 25.011719 78.9375 13.640625 77.527344 9.773438 76.335938 C 8.214844 75.890625 7.46875 75.667969 6.578125 74.851562 C 5.6875 74.105469 5.089844 72.84375 4.496094 71.804688 C 3.976562 70.761719 3.605469 69.945312 3.382812 68.53125 C 3.011719 66.226562 3.160156 61.621094 3.53125 59.242188 C 3.828125 57.605469 4.050781 56.714844 4.71875 55.226562 C 5.761719 52.921875 7.992188 49.207031 9.921875 47.199219 C 11.632812 45.488281 13.269531 44.375 15.421875 43.484375 C 17.949219 42.367188 22.558594 41.03125 24.269531 41.402344 C 25.160156 41.625 25.605469 42.144531 25.976562 42.738281 C 26.351562 43.410156 26.425781 44.746094 26.128906 45.488281 C 25.753906 46.234375 24.789062 46.976562 23.972656 47.199219 C 22.929688 47.421875 21.59375 46.976562 20.253906 46.234375 C 17.949219 45.117188 13.714844 41.773438 12.375 39.691406 C 11.484375 38.355469 11.335938 37.460938 11.1875 35.976562 C 10.890625 33.597656 10.890625 29.359375 11.707031 26.832031 C 12.300781 24.976562 13.640625 23.117188 14.679688 22.152344 C 15.273438 21.554688 15.796875 21.109375 16.464844 21.035156 C 17.355469 21.035156 19.066406 21.628906 19.511719 22.449219 C 20.03125 23.265625 19.363281 25.792969 19.363281 25.792969 " clip-rule="nonzero"/></clipPath><clipPath id="f25dc4f550"><path d="M 0.125 0 L 38 0 L 38 58.210938 L 0.125 58.210938 Z M 0.125 0 " clip-rule="nonzero"/></clipPath><clipPath id="4e3c2aeaa3"><path d="M 16.363281 4.792969 C 13.613281 11.332031 13.390625 13.785156 14.355469 15.644531 C 15.695312 17.875 21.195312 19.4375 22.53125 21.144531 C 23.203125 22.113281 23.5 23.003906 23.351562 23.820312 C 23.203125 24.640625 22.53125 25.308594 21.640625 25.976562 C 20.078125 27.089844 15.917969 27.242188 13.835938 28.503906 C 11.976562 29.617188 10.640625 31.179688 9.449219 32.816406 C 8.1875 34.597656 6.996094 36.828125 6.476562 38.910156 C 5.957031 40.917969 5.957031 43.371094 6.105469 45.078125 C 6.253906 46.417969 6.179688 47.53125 6.921875 48.425781 C 7.964844 49.613281 10.269531 50.058594 12.945312 50.65625 C 18.074219 51.769531 32.566406 50.804688 35.910156 52.363281 C 37.101562 52.882812 37.621094 53.554688 37.84375 54.371094 C 38.066406 55.1875 37.769531 56.453125 37.25 57.121094 C 36.730469 57.714844 35.464844 58.234375 34.648438 58.085938 C 33.832031 58.011719 32.714844 57.195312 32.34375 56.527344 C 31.972656 56.007812 31.898438 55.261719 32.046875 54.667969 C 32.121094 54.074219 32.417969 53.40625 32.9375 53.03125 C 33.535156 52.511719 34.796875 52.066406 35.613281 52.289062 C 36.433594 52.4375 37.398438 53.40625 37.695312 54.074219 C 37.992188 54.667969 37.992188 55.410156 37.84375 55.933594 C 37.695312 56.527344 37.472656 57.121094 36.730469 57.566406 C 35.242188 58.386719 31.230469 58.234375 27.511719 58.085938 C 22.011719 57.9375 10.640625 56.527344 6.773438 55.335938 C 5.214844 54.890625 4.46875 54.667969 3.578125 53.851562 C 2.6875 53.105469 2.089844 51.84375 1.496094 50.804688 C 0.976562 49.761719 0.605469 48.945312 0.382812 47.53125 C 0.0117188 45.226562 0.160156 40.621094 0.53125 38.242188 C 0.828125 36.605469 1.050781 35.714844 1.71875 34.226562 C 2.761719 31.921875 4.992188 28.207031 6.921875 26.199219 C 8.632812 24.488281 10.269531 23.375 12.421875 22.484375 C 14.949219 21.367188 19.558594 20.03125 21.269531 20.402344 C 22.160156 20.625 22.605469 21.144531 22.976562 21.738281 C 23.351562 22.410156 23.425781 23.746094 23.128906 24.488281 C 22.753906 25.234375 21.789062 25.976562 20.972656 26.199219 C 19.929688 26.421875 18.59375 25.976562 17.253906 25.234375 C 14.949219 24.117188 10.714844 20.773438 9.375 18.691406 C 8.484375 17.355469 8.335938 16.460938 8.1875 14.976562 C 7.890625 12.597656 7.890625 8.359375 8.707031 5.832031 C 9.300781 3.976562 10.640625 2.117188 11.679688 1.152344 C 12.273438 0.554688 12.796875 0.109375 13.464844 0.0351562 C 14.355469 0.0351562 16.066406 0.628906 16.511719 1.449219 C 17.03125 2.265625 16.363281 4.792969 16.363281 4.792969 " clip-rule="nonzero"/></clipPath><clipPath id="de46ce7fe4"><rect x="0" width="38" y="0" height="59"/></clipPath><clipPath id="d501861f7a"><path d="M 56.246094 22.957031 L 101 22.957031 L 101 79.226562 L 56.246094 79.226562 Z M 56.246094 22.957031 " clip-rule="nonzero"/></clipPath><clipPath id="08d45cbd58"><path d="M 79.941406 25.050781 C 81.578125 31.886719 80.609375 35.308594 81.503906 36.273438 C 82.246094 37.015625 83.734375 36.050781 85.144531 36.496094 C 87.523438 37.089844 91.6875 39.023438 93.917969 40.882812 C 95.847656 42.515625 97.1875 44.300781 98.300781 46.753906 C 99.789062 50.023438 101.050781 55.746094 100.976562 59.242188 C 100.902344 61.84375 100.382812 63.777344 99.269531 65.929688 C 97.929688 68.457031 95.699219 71.28125 93.171875 73.140625 C 90.71875 75.074219 87.226562 76.261719 84.328125 77.15625 C 81.800781 77.898438 80.015625 78.121094 77.042969 78.34375 C 72.359375 78.789062 61.730469 79.460938 58.90625 78.789062 C 58.015625 78.566406 57.644531 78.417969 57.195312 77.898438 C 56.75 77.304688 56.378906 76.039062 56.453125 75.222656 C 56.527344 74.628906 56.972656 74.03125 57.421875 73.585938 C 57.867188 73.214844 58.535156 72.917969 59.203125 72.917969 C 59.949219 72.917969 61.210938 73.511719 61.730469 74.03125 C 62.175781 74.554688 62.324219 75.222656 62.324219 75.816406 C 62.324219 76.410156 62.175781 77.15625 61.730469 77.675781 C 61.210938 78.195312 60.023438 78.789062 59.203125 78.863281 C 58.609375 78.863281 57.941406 78.566406 57.496094 78.121094 C 56.972656 77.75 56.601562 77.082031 56.453125 76.558594 C 56.304688 75.964844 56.378906 75.222656 56.675781 74.628906 C 57.046875 73.957031 57.644531 73.363281 58.832031 72.917969 C 61.953125 71.878906 72.136719 73.140625 77.191406 72.398438 C 80.835938 71.878906 84.253906 70.984375 86.558594 70.019531 C 88.042969 69.5 88.863281 69.054688 89.902344 68.160156 C 91.390625 66.898438 93.246094 64.59375 94.066406 63.03125 C 94.660156 61.917969 95.03125 61.324219 95.03125 59.910156 C 95.105469 57.160156 93.320312 49.800781 91.984375 47.496094 C 91.316406 46.308594 90.792969 46.011719 89.828125 45.339844 C 88.488281 44.300781 86.335938 43.039062 84.328125 42.292969 C 82.171875 41.550781 78.902344 41.921875 77.414062 40.882812 C 76.375 40.136719 75.929688 39.097656 75.558594 37.910156 C 75.109375 36.273438 75.855469 33.820312 75.632812 31.664062 C 75.480469 29.433594 73.699219 26.089844 74.367188 24.675781 C 74.8125 23.636719 76.375 22.894531 77.265625 22.96875 C 78.234375 23.042969 79.941406 25.050781 79.941406 25.050781 " clip-rule="nonzero"/></clipPath><clipPath id="abbad21d18"><path d="M 0.304688 0.957031 L 45 0.957031 L 45 57.226562 L 0.304688 57.226562 Z M 0.304688 0.957031 " clip-rule="nonzero"/></clipPath><clipPath id="335027608c"><path d="M 23.941406 3.050781 C 25.578125 9.886719 24.609375 13.308594 25.503906 14.273438 C 26.246094 15.015625 27.734375 14.050781 29.144531 14.496094 C 31.523438 15.089844 35.6875 17.023438 37.917969 18.882812 C 39.847656 20.515625 41.1875 22.300781 42.300781 24.753906 C 43.789062 28.023438 45.050781 33.746094 44.976562 37.242188 C 44.902344 39.84375 44.382812 41.777344 43.269531 43.929688 C 41.929688 46.457031 39.699219 49.28125 37.171875 51.140625 C 34.71875 53.074219 31.226562 54.261719 28.328125 55.15625 C 25.800781 55.898438 24.015625 56.121094 21.042969 56.34375 C 16.359375 56.789062 5.730469 57.460938 2.90625 56.789062 C 2.015625 56.566406 1.644531 56.417969 1.195312 55.898438 C 0.75 55.304688 0.378906 54.039062 0.453125 53.222656 C 0.527344 52.628906 0.972656 52.03125 1.421875 51.585938 C 1.867188 51.214844 2.535156 50.917969 3.203125 50.917969 C 3.949219 50.917969 5.210938 51.511719 5.730469 52.03125 C 6.175781 52.554688 6.324219 53.222656 6.324219 53.816406 C 6.324219 54.410156 6.175781 55.15625 5.730469 55.675781 C 5.210938 56.195312 4.023438 56.789062 3.203125 56.863281 C 2.609375 56.863281 1.941406 56.566406 1.496094 56.121094 C 0.972656 55.75 0.601562 55.082031 0.453125 54.558594 C 0.304688 53.964844 0.378906 53.222656 0.675781 52.628906 C 1.046875 51.957031 1.644531 51.363281 2.832031 50.917969 C 5.953125 49.878906 16.136719 51.140625 21.191406 50.398438 C 24.835938 49.878906 28.253906 48.984375 30.558594 48.019531 C 32.042969 47.5 32.863281 47.054688 33.902344 46.160156 C 35.390625 44.898438 37.246094 42.59375 38.066406 41.03125 C 38.660156 39.917969 39.03125 39.324219 39.03125 37.910156 C 39.105469 35.160156 37.320312 27.800781 35.984375 25.496094 C 35.316406 24.308594 34.792969 24.011719 33.828125 23.339844 C 32.488281 22.300781 30.335938 21.039062 28.328125 20.292969 C 26.171875 19.550781 22.902344 19.921875 21.414062 18.882812 C 20.375 18.136719 19.929688 17.097656 19.558594 15.910156 C 19.109375 14.273438 19.855469 11.820312 19.632812 9.664062 C 19.480469 7.433594 17.699219 4.089844 18.367188 2.675781 C 18.8125 1.636719 20.375 0.894531 21.265625 0.96875 C 22.234375 1.042969 23.941406 3.050781 23.941406 3.050781 " clip-rule="nonzero"/></clipPath><clipPath id="83d74ae101"><rect x="0" width="45" y="0" height="58"/></clipPath></defs><g clip-path="url(#9e602aa0b4)"><g clip-path="url(#d736f36758)"><g transform="matrix(1, 0, 0, 1, 24, 2)"><g clip-path="url(#6493349acb)"><g clip-path="url(#97fd8b558f)"><g clip-path="url(#2400d1be5f)"><rect x="-47.0736" width="151.0272" fill="#dbdbdb" height="119.879998" y="-20.315" fill-opacity="1"/></g></g></g></g></g></g><g clip-path="url(#1c1242cd7f)"><g clip-path="url(#2413382b55)"><g transform="matrix(1, 0, 0, 1, 44, 72)"><g clip-path="url(#5a9817e9b2)"><g clip-path="url(#2794de9dd0)"><g clip-path="url(#b50992e062)"><rect x="-67.0736" width="151.0272" fill="#dbdbdb" height="119.879998" y="-90.315" fill-opacity="1"/></g></g></g></g></g></g><g clip-path="url(#d656c585aa)"><g clip-path="url(#535607fd78)"><g transform="matrix(1, 0, 0, 1, 3, 21)"><g clip-path="url(#de46ce7fe4)"><g clip-path="url(#f25dc4f550)"><g clip-path="url(#4e3c2aeaa3)"><rect x="-26.0736" width="151.0272" fill="#dbdbdb" height="119.879998" y="-39.315" fill-opacity="1"/></g></g></g></g></g></g><g clip-path="url(#d501861f7a)"><g clip-path="url(#08d45cbd58)"><g transform="matrix(1, 0, 0, 1, 56, 22)"><g clip-path="url(#83d74ae101)"><g clip-path="url(#abbad21d18)"><g clip-path="url(#335027608c)"><rect x="-79.0736" width="151.0272" fill="#dbdbdb" height="119.879998" y="-40.315" fill-opacity="1"/></g></g></g></g></g></g></svg>