<svg xmlns="http://www.w3.org/2000/svg" xmlns:xlink="http://www.w3.org/1999/xlink" width="125" zoomAndPan="magnify" viewBox="0 0 93.75 88.499997" height="118" preserveAspectRatio="xMidYMid meet" version="1.0"><defs><clipPath id="bfdfeae744"><path d="M 3 31.410156 L 61.589844 31.410156 L 61.589844 85 L 3 85 Z M 3 31.410156 " clip-rule="nonzero"/></clipPath><clipPath id="1ec85a382b"><path d="M 53.386719 69.507812 C 35.488281 84.050781 35.117188 84.273438 33.996094 84.570312 C 32.132812 85.019531 29 84.871094 26.613281 84.722656 C 24.300781 84.570312 21.914062 84.347656 19.679688 83.675781 C 17.367188 82.929688 14.980469 81.886719 12.964844 80.46875 C 10.953125 79.128906 8.789062 77.113281 7.523438 75.472656 C 6.554688 74.28125 6.179688 73.234375 5.582031 72.042969 C 4.988281 70.925781 4.167969 69.878906 3.792969 68.464844 C 3.269531 66.597656 3.046875 64.210938 3.121094 61.976562 C 3.195312 59.4375 3.269531 56.53125 4.539062 53.921875 C 6.105469 50.640625 10.953125 46.984375 12.816406 44.449219 C 13.9375 42.957031 13.863281 41.914062 15.128906 40.496094 C 17.292969 38.035156 23.480469 33.335938 26.167969 32.144531 C 27.507812 31.621094 28.179688 31.546875 29.449219 31.621094 C 31.3125 31.695312 33.476562 33.039062 36.382812 33.335938 C 41.007812 33.785156 50.332031 32.367188 54.65625 32.515625 C 57.117188 32.589844 59.207031 32.292969 60.324219 33.113281 C 61.070312 33.636719 61.441406 34.902344 61.515625 35.648438 C 61.515625 36.246094 61.21875 36.917969 60.773438 37.4375 C 60.398438 37.886719 59.726562 38.257812 59.128906 38.40625 C 58.609375 38.558594 57.863281 38.484375 57.265625 38.183594 C 56.59375 37.8125 55.773438 36.691406 55.550781 35.945312 C 55.402344 35.351562 55.550781 34.605469 55.847656 34.082031 C 56.296875 33.410156 57.414062 32.664062 58.234375 32.515625 C 58.832031 32.367188 59.578125 32.589844 60.027344 32.890625 C 60.546875 33.261719 61.070312 33.785156 61.292969 34.378906 C 61.515625 34.902344 61.59375 35.648438 61.367188 36.246094 C 61.144531 36.992188 60.621094 37.8125 59.503906 38.332031 C 56.59375 39.675781 46.824219 39.527344 41.230469 39.378906 C 36.457031 39.304688 31.535156 36.992188 27.882812 38.035156 C 24.824219 38.855469 22.960938 41.390625 20.351562 43.925781 C 16.917969 47.28125 11.027344 53.25 9.460938 57.050781 C 8.492188 59.363281 8.640625 61.304688 8.9375 63.390625 C 9.238281 65.554688 10.355469 68.164062 11.175781 69.878906 C 11.699219 71 12.144531 71.746094 12.890625 72.640625 C 13.785156 73.683594 14.90625 74.726562 16.324219 75.546875 C 18.039062 76.59375 20.125 77.636719 22.511719 78.160156 C 25.496094 78.828125 29.226562 79.800781 32.878906 78.605469 C 38.324219 76.816406 47.273438 65.480469 50.332031 64.511719 C 51.300781 64.210938 51.898438 64.363281 52.492188 64.660156 C 53.089844 64.882812 53.761719 65.480469 53.984375 66.152344 C 54.207031 66.972656 53.386719 69.507812 53.386719 69.507812 " clip-rule="nonzero"/></clipPath><clipPath id="bd7f5feddb"><path d="M 0.00390625 0.503906 L 58.589844 0.503906 L 58.589844 54 L 0.00390625 54 Z M 0.00390625 0.503906 " clip-rule="nonzero"/></clipPath><clipPath id="946d95260e"><path d="M 50.386719 38.507812 C 32.488281 53.050781 32.117188 53.273438 30.996094 53.570312 C 29.132812 54.019531 26 53.871094 23.613281 53.722656 C 21.300781 53.570312 18.914062 53.347656 16.679688 52.675781 C 14.367188 51.929688 11.980469 50.886719 9.964844 49.46875 C 7.953125 48.128906 5.789062 46.113281 4.523438 44.472656 C 3.554688 43.28125 3.179688 42.234375 2.582031 41.042969 C 1.988281 39.925781 1.167969 38.878906 0.792969 37.464844 C 0.269531 35.597656 0.046875 33.210938 0.121094 30.976562 C 0.195312 28.4375 0.269531 25.53125 1.539062 22.921875 C 3.105469 19.640625 7.953125 15.984375 9.816406 13.449219 C 10.9375 11.957031 10.863281 10.914062 12.128906 9.496094 C 14.292969 7.035156 20.480469 2.335938 23.167969 1.144531 C 24.507812 0.621094 25.179688 0.546875 26.449219 0.621094 C 28.3125 0.695312 30.476562 2.039062 33.382812 2.335938 C 38.007812 2.785156 47.332031 1.367188 51.65625 1.515625 C 54.117188 1.589844 56.207031 1.292969 57.324219 2.113281 C 58.070312 2.636719 58.441406 3.902344 58.515625 4.648438 C 58.515625 5.246094 58.21875 5.917969 57.773438 6.4375 C 57.398438 6.886719 56.726562 7.257812 56.128906 7.40625 C 55.609375 7.558594 54.863281 7.484375 54.265625 7.183594 C 53.59375 6.8125 52.773438 5.691406 52.550781 4.945312 C 52.402344 4.351562 52.550781 3.605469 52.847656 3.082031 C 53.296875 2.410156 54.414062 1.664062 55.234375 1.515625 C 55.832031 1.367188 56.578125 1.589844 57.027344 1.890625 C 57.546875 2.261719 58.070312 2.785156 58.292969 3.378906 C 58.515625 3.902344 58.59375 4.648438 58.367188 5.246094 C 58.144531 5.992188 57.621094 6.8125 56.503906 7.332031 C 53.59375 8.675781 43.824219 8.527344 38.230469 8.378906 C 33.457031 8.304688 28.535156 5.992188 24.882812 7.035156 C 21.824219 7.855469 19.960938 10.390625 17.351562 12.925781 C 13.917969 16.28125 8.027344 22.25 6.460938 26.050781 C 5.492188 28.363281 5.640625 30.304688 5.9375 32.390625 C 6.238281 34.554688 7.355469 37.164062 8.175781 38.878906 C 8.699219 40 9.144531 40.746094 9.890625 41.640625 C 10.785156 42.683594 11.90625 43.726562 13.324219 44.546875 C 15.039062 45.59375 17.125 46.636719 19.511719 47.160156 C 22.496094 47.828125 26.226562 48.800781 29.878906 47.605469 C 35.324219 45.816406 44.273438 34.480469 47.332031 33.511719 C 48.300781 33.210938 48.898438 33.363281 49.492188 33.660156 C 50.089844 33.882812 50.761719 34.480469 50.984375 35.152344 C 51.207031 35.972656 50.386719 38.507812 50.386719 38.507812 " clip-rule="nonzero"/></clipPath><clipPath id="5b32b52cf3"><rect x="0" width="59" y="0" height="54"/></clipPath><clipPath id="74ac216e84"><path d="M 23.105469 53.023438 L 64.144531 53.023438 L 64.144531 59.9375 L 23.105469 59.9375 Z M 23.105469 53.023438 " clip-rule="nonzero"/></clipPath><clipPath id="b51928ecbe"><path d="M 26.242188 53.101562 C 50.03125 53.921875 58.085938 52.578125 61.144531 53.25 C 62.335938 53.546875 63.082031 53.996094 63.605469 54.589844 C 63.976562 55.113281 64.128906 55.859375 64.128906 56.457031 C 64.054688 57.050781 63.753906 57.722656 63.382812 58.171875 C 63.007812 58.695312 62.414062 59.066406 61.742188 59.214844 C 60.996094 59.289062 59.652344 58.917969 59.054688 58.46875 C 58.535156 58.023438 58.234375 57.351562 58.160156 56.753906 C 58.085938 56.15625 58.160156 55.410156 58.460938 54.890625 C 58.90625 54.21875 60.027344 53.472656 60.773438 53.324219 C 61.441406 53.175781 62.113281 53.324219 62.636719 53.695312 C 63.308594 54.144531 63.976562 55.335938 64.128906 56.082031 C 64.203125 56.753906 63.976562 57.425781 63.605469 57.949219 C 63.082031 58.542969 62.335938 58.917969 61.144531 59.214844 C 58.386719 59.960938 52.34375 59.886719 47.199219 59.886719 C 40.859375 59.960938 29.375 60.109375 25.867188 58.992188 C 24.675781 58.617188 24.003906 58.246094 23.558594 57.574219 C 23.109375 57.050781 23.035156 56.15625 23.183594 55.488281 C 23.257812 54.890625 23.707031 54.070312 24.226562 53.695312 C 24.75 53.324219 26.242188 53.101562 26.242188 53.101562 " clip-rule="nonzero"/></clipPath><clipPath id="43b23e4383"><path d="M 0.105469 0.0234375 L 41.144531 0.0234375 L 41.144531 6.9375 L 0.105469 6.9375 Z M 0.105469 0.0234375 " clip-rule="nonzero"/></clipPath><clipPath id="f293dcb0d4"><path d="M 3.242188 0.101562 C 27.03125 0.921875 35.085938 -0.421875 38.144531 0.25 C 39.335938 0.546875 40.082031 0.996094 40.605469 1.589844 C 40.976562 2.113281 41.128906 2.859375 41.128906 3.457031 C 41.054688 4.050781 40.753906 4.722656 40.382812 5.171875 C 40.007812 5.695312 39.414062 6.066406 38.742188 6.214844 C 37.996094 6.289062 36.652344 5.917969 36.054688 5.46875 C 35.535156 5.023438 35.234375 4.351562 35.160156 3.753906 C 35.085938 3.15625 35.160156 2.410156 35.460938 1.890625 C 35.90625 1.21875 37.027344 0.472656 37.773438 0.324219 C 38.441406 0.175781 39.113281 0.324219 39.636719 0.695312 C 40.308594 1.144531 40.976562 2.335938 41.128906 3.082031 C 41.203125 3.753906 40.976562 4.425781 40.605469 4.949219 C 40.082031 5.542969 39.335938 5.917969 38.144531 6.214844 C 35.386719 6.960938 29.34375 6.886719 24.199219 6.886719 C 17.859375 6.960938 6.375 7.109375 2.867188 5.992188 C 1.675781 5.617188 1.003906 5.246094 0.558594 4.574219 C 0.109375 4.050781 0.0351562 3.15625 0.183594 2.488281 C 0.257812 1.890625 0.707031 1.070312 1.226562 0.695312 C 1.75 0.324219 3.242188 0.101562 3.242188 0.101562 " clip-rule="nonzero"/></clipPath><clipPath id="44e0c10dfd"><rect x="0" width="42" y="0" height="7"/></clipPath><clipPath id="f16df7faa2"><path d="M 38.109375 2.695312 L 89.769531 2.695312 L 89.769531 58.847656 L 38.109375 58.847656 Z M 38.109375 2.695312 " clip-rule="nonzero"/></clipPath><clipPath id="f30780ee8a"><path d="M 58.757812 52.652344 C 61.59375 52.054688 62.1875 51.460938 63.234375 50.414062 C 65.542969 48.101562 69.796875 41.316406 73.300781 37.664062 C 76.285156 34.53125 80.90625 32.890625 82.546875 29.683594 C 84.113281 26.773438 84.1875 21.777344 83.59375 19.539062 C 83.292969 18.347656 82.621094 17.675781 81.878906 17.003906 C 80.980469 16.183594 80.011719 15.8125 78.445312 14.992188 C 75.238281 13.425781 68.003906 8.277344 63.234375 8.800781 C 58.535156 9.324219 53.613281 15.289062 49.957031 18.195312 C 47.199219 20.433594 44.664062 23.492188 43.023438 24.460938 C 42.277344 24.910156 41.828125 25.132812 41.15625 25.132812 C 40.5625 25.132812 39.890625 24.910156 39.367188 24.535156 C 38.769531 24.015625 38.175781 22.746094 38.175781 22 C 38.175781 21.328125 38.398438 20.660156 38.84375 20.210938 C 39.441406 19.6875 40.710938 19.167969 41.457031 19.167969 C 42.125 19.167969 42.722656 19.539062 43.171875 19.914062 C 43.617188 20.359375 44.066406 20.957031 44.066406 21.628906 C 44.140625 22.375 43.765625 23.714844 43.246094 24.238281 C 42.796875 24.761719 42.125 24.984375 41.53125 25.058594 C 40.933594 25.132812 40.1875 25.058594 39.664062 24.683594 C 38.996094 24.238281 38.324219 23.042969 38.175781 22.300781 C 38.097656 21.703125 38.25 21.179688 38.695312 20.433594 C 39.742188 18.792969 43.617188 15.585938 46.453125 13.425781 C 49.285156 11.261719 53.3125 9.398438 55.773438 7.53125 C 57.640625 6.117188 58.683594 4.175781 60.25 3.429688 C 61.59375 2.835938 63.082031 2.835938 64.351562 2.984375 C 65.617188 3.058594 66.363281 3.429688 67.929688 4.027344 C 71.285156 5.21875 79.789062 7.90625 83.367188 10.441406 C 85.753906 12.15625 87.394531 14.542969 88.441406 16.183594 C 89.113281 17.152344 89.484375 17.898438 89.632812 18.941406 C 89.855469 20.0625 89.78125 21.179688 89.558594 22.671875 C 89.261719 25.132812 88.289062 29.980469 87.246094 32.21875 C 86.574219 33.636719 85.980469 34.304688 85.007812 35.351562 C 83.667969 36.617188 81.726562 37.214844 79.714844 39.078125 C 76.285156 42.359375 70.914062 51.683594 67.335938 54.890625 C 65.246094 56.679688 63.308594 57.796875 61.515625 58.320312 C 60.25 58.695312 58.980469 58.84375 58.085938 58.394531 C 57.191406 57.949219 56.222656 56.457031 56.148438 55.636719 C 56.074219 54.890625 56.445312 54.144531 56.894531 53.621094 C 57.339844 53.101562 58.757812 52.652344 58.757812 52.652344 " clip-rule="nonzero"/></clipPath><clipPath id="7c0f47cb69"><path d="M 0.109375 0.695312 L 51.769531 0.695312 L 51.769531 56.847656 L 0.109375 56.847656 Z M 0.109375 0.695312 " clip-rule="nonzero"/></clipPath><clipPath id="64a84bafe4"><path d="M 20.757812 50.652344 C 23.59375 50.054688 24.1875 49.460938 25.234375 48.414062 C 27.542969 46.101562 31.796875 39.316406 35.300781 35.664062 C 38.285156 32.53125 42.90625 30.890625 44.546875 27.683594 C 46.113281 24.773438 46.1875 19.777344 45.59375 17.539062 C 45.292969 16.347656 44.621094 15.675781 43.878906 15.003906 C 42.980469 14.183594 42.011719 13.8125 40.445312 12.992188 C 37.238281 11.425781 30.003906 6.277344 25.234375 6.800781 C 20.535156 7.324219 15.613281 13.289062 11.957031 16.195312 C 9.199219 18.433594 6.664062 21.492188 5.023438 22.460938 C 4.277344 22.910156 3.828125 23.132812 3.15625 23.132812 C 2.5625 23.132812 1.890625 22.910156 1.367188 22.535156 C 0.769531 22.015625 0.175781 20.746094 0.175781 20 C 0.175781 19.328125 0.398438 18.660156 0.84375 18.210938 C 1.441406 17.6875 2.710938 17.167969 3.457031 17.167969 C 4.125 17.167969 4.722656 17.539062 5.171875 17.914062 C 5.617188 18.359375 6.066406 18.957031 6.066406 19.628906 C 6.140625 20.375 5.765625 21.714844 5.246094 22.238281 C 4.796875 22.761719 4.125 22.984375 3.53125 23.058594 C 2.933594 23.132812 2.1875 23.058594 1.664062 22.683594 C 0.996094 22.238281 0.324219 21.042969 0.175781 20.300781 C 0.0976562 19.703125 0.25 19.179688 0.695312 18.433594 C 1.742188 16.792969 5.617188 13.585938 8.453125 11.425781 C 11.285156 9.261719 15.3125 7.398438 17.773438 5.53125 C 19.640625 4.117188 20.683594 2.175781 22.25 1.429688 C 23.59375 0.835938 25.082031 0.835938 26.351562 0.984375 C 27.617188 1.058594 28.363281 1.429688 29.929688 2.027344 C 33.285156 3.21875 41.789062 5.90625 45.367188 8.441406 C 47.753906 10.15625 49.394531 12.542969 50.441406 14.183594 C 51.113281 15.152344 51.484375 15.898438 51.632812 16.941406 C 51.855469 18.0625 51.78125 19.179688 51.558594 20.671875 C 51.261719 23.132812 50.289062 27.980469 49.246094 30.21875 C 48.574219 31.636719 47.980469 32.304688 47.007812 33.351562 C 45.667969 34.617188 43.726562 35.214844 41.714844 37.078125 C 38.285156 40.359375 32.914062 49.683594 29.335938 52.890625 C 27.246094 54.679688 25.308594 55.796875 23.515625 56.320312 C 22.25 56.695312 20.980469 56.84375 20.085938 56.394531 C 19.191406 55.949219 18.222656 54.457031 18.148438 53.636719 C 18.074219 52.890625 18.445312 52.144531 18.894531 51.621094 C 19.339844 51.101562 20.757812 50.652344 20.757812 50.652344 " clip-rule="nonzero"/></clipPath><clipPath id="22cb4096a1"><rect x="0" width="52" y="0" height="57"/></clipPath></defs><g clip-path="url(#bfdfeae744)"><g clip-path="url(#1ec85a382b)"><g transform="matrix(1, 0, 0, 1, 3, 31)"><g clip-path="url(#5b32b52cf3)"><g clip-path="url(#bd7f5feddb)"><g clip-path="url(#946d95260e)"><rect x="-23.625" width="135" fill="#dbdbdb" height="127.439996" y="-50.469999" fill-opacity="1"/></g></g></g></g></g></g><g clip-path="url(#74ac216e84)"><g clip-path="url(#b51928ecbe)"><g transform="matrix(1, 0, 0, 1, 23, 53)"><g clip-path="url(#44e0c10dfd)"><g clip-path="url(#43b23e4383)"><g clip-path="url(#f293dcb0d4)"><rect x="-43.625" width="135" fill="#dbdbdb" height="127.439996" y="-72.469999" fill-opacity="1"/></g></g></g></g></g></g><g clip-path="url(#f16df7faa2)"><g clip-path="url(#f30780ee8a)"><g transform="matrix(1, 0, 0, 1, 38, 2)"><g clip-path="url(#22cb4096a1)"><g clip-path="url(#7c0f47cb69)"><g clip-path="url(#64a84bafe4)"><rect x="-58.625" width="135" fill="#dbdbdb" height="127.439996" y="-21.469999" fill-opacity="1"/></g></g></g></g></g></g></svg>