<svg xmlns="http://www.w3.org/2000/svg" xmlns:xlink="http://www.w3.org/1999/xlink" width="129" zoomAndPan="magnify" viewBox="0 0 96.75 94.499997" height="126" preserveAspectRatio="xMidYMid meet" version="1.0"><defs><clipPath id="6419cf9e51"><path d="M 31.46875 2.914062 L 64.882812 2.914062 L 64.882812 36.636719 L 31.46875 36.636719 Z M 31.46875 2.914062 " clip-rule="nonzero"/></clipPath><clipPath id="e1d73cf51a"><path d="M 32.582031 31.335938 C 34.820312 29.097656 35.195312 27.902344 35.492188 26.484375 C 35.941406 24.621094 35.195312 22.308594 35.941406 19.695312 C 37.132812 15.742188 41.535156 8.132812 43.699219 5.746094 C 44.667969 4.699219 45.339844 4.402344 46.386719 3.953125 C 47.652344 3.433594 49.519531 2.761719 50.789062 2.984375 C 51.832031 3.207031 52.652344 4.253906 53.398438 5 C 54.144531 5.820312 54.441406 6.339844 55.113281 7.683594 C 56.457031 10.667969 58.171875 18.800781 59.964844 23.277344 C 61.457031 26.785156 64.589844 30.511719 64.8125 32.453125 C 64.886719 33.273438 64.589844 33.796875 64.289062 34.242188 C 63.917969 34.765625 63.320312 35.214844 62.722656 35.4375 C 62.128906 35.585938 61.382812 35.660156 60.859375 35.363281 C 60.113281 35.066406 59.144531 34.167969 58.917969 33.347656 C 58.695312 32.527344 59.070312 31.257812 59.515625 30.589844 C 59.964844 30.140625 60.636719 29.765625 61.230469 29.691406 C 61.753906 29.542969 62.5 29.542969 63.097656 29.917969 C 63.769531 30.289062 64.664062 31.335938 64.738281 32.15625 C 64.886719 32.976562 64.441406 34.167969 63.84375 34.765625 C 63.246094 35.363281 61.902344 35.585938 61.15625 35.511719 C 60.484375 35.363281 60.113281 35.140625 59.515625 34.46875 C 57.949219 32.976562 54.964844 28.5 53.398438 24.621094 C 51.609375 19.996094 51.757812 9.027344 50.117188 8.503906 C 49.445312 8.207031 48.550781 9.398438 47.652344 10.445312 C 45.863281 12.683594 42.355469 19.097656 41.386719 22.605469 C 40.714844 24.917969 41.609375 26.933594 41.015625 28.871094 C 40.492188 30.886719 39.222656 33.199219 38.03125 34.542969 C 37.210938 35.511719 36.089844 36.332031 35.121094 36.554688 C 34.449219 36.707031 33.628906 36.632812 33.03125 36.257812 C 32.359375 35.808594 31.613281 34.691406 31.539062 33.945312 C 31.464844 33.125 32.582031 31.335938 32.582031 31.335938 " clip-rule="nonzero"/></clipPath><clipPath id="3b59c392e0"><path d="M 0.46875 0.914062 L 33.882812 0.914062 L 33.882812 34.636719 L 0.46875 34.636719 Z M 0.46875 0.914062 " clip-rule="nonzero"/></clipPath><clipPath id="4cc461e0dc"><path d="M 1.582031 29.335938 C 3.820312 27.097656 4.195312 25.902344 4.492188 24.484375 C 4.941406 22.621094 4.195312 20.308594 4.941406 17.695312 C 6.132812 13.742188 10.535156 6.132812 12.699219 3.746094 C 13.667969 2.699219 14.339844 2.402344 15.386719 1.953125 C 16.652344 1.433594 18.519531 0.761719 19.789062 0.984375 C 20.832031 1.207031 21.652344 2.253906 22.398438 3 C 23.144531 3.820312 23.441406 4.339844 24.113281 5.683594 C 25.457031 8.667969 27.171875 16.800781 28.964844 21.277344 C 30.457031 24.785156 33.589844 28.511719 33.8125 30.453125 C 33.886719 31.273438 33.589844 31.796875 33.289062 32.242188 C 32.917969 32.765625 32.320312 33.214844 31.722656 33.4375 C 31.128906 33.585938 30.382812 33.660156 29.859375 33.363281 C 29.113281 33.066406 28.144531 32.167969 27.917969 31.347656 C 27.695312 30.527344 28.070312 29.257812 28.515625 28.589844 C 28.964844 28.140625 29.636719 27.765625 30.230469 27.691406 C 30.753906 27.542969 31.5 27.542969 32.097656 27.917969 C 32.769531 28.289062 33.664062 29.335938 33.738281 30.15625 C 33.886719 30.976562 33.441406 32.167969 32.84375 32.765625 C 32.246094 33.363281 30.902344 33.585938 30.15625 33.511719 C 29.484375 33.363281 29.113281 33.140625 28.515625 32.46875 C 26.949219 30.976562 23.964844 26.5 22.398438 22.621094 C 20.609375 17.996094 20.757812 7.027344 19.117188 6.503906 C 18.445312 6.207031 17.550781 7.398438 16.652344 8.445312 C 14.863281 10.683594 11.355469 17.097656 10.386719 20.605469 C 9.714844 22.917969 10.609375 24.933594 10.015625 26.871094 C 9.492188 28.886719 8.222656 31.199219 7.03125 32.542969 C 6.210938 33.511719 5.089844 34.332031 4.121094 34.554688 C 3.449219 34.707031 2.628906 34.632812 2.03125 34.257812 C 1.359375 33.808594 0.613281 32.691406 0.539062 31.945312 C 0.464844 31.125 1.582031 29.335938 1.582031 29.335938 " clip-rule="nonzero"/></clipPath><clipPath id="7110d7c2bc"><rect x="0" width="34" y="0" height="35"/></clipPath><clipPath id="52f6eb829b"><path d="M 58.339844 31.351562 L 93.15625 31.351562 L 93.15625 62.949219 L 58.339844 62.949219 Z M 58.339844 31.351562 " clip-rule="nonzero"/></clipPath><clipPath id="3b254f4a72"><path d="M 63.023438 31.410156 C 80.40625 36.78125 81.671875 38.125 83.761719 39.019531 C 85.925781 39.914062 89.058594 40.210938 90.625 41.257812 C 91.671875 42.003906 92.34375 42.972656 92.714844 43.941406 C 93.089844 44.988281 93.089844 46.179688 93.015625 47.300781 C 92.863281 48.417969 92.640625 49.613281 92.117188 50.582031 C 91.523438 51.550781 90.925781 52.222656 89.582031 53.195312 C 86.226562 55.355469 75.480469 58.9375 70.109375 60.578125 C 66.453125 61.699219 62.425781 63.117188 60.636719 62.742188 C 59.816406 62.59375 59.367188 62.222656 58.992188 61.699219 C 58.621094 61.25 58.324219 60.578125 58.398438 59.90625 C 58.398438 59.160156 59.070312 57.894531 59.664062 57.445312 C 60.113281 57 60.859375 56.847656 61.457031 56.921875 C 62.277344 57 63.46875 57.59375 63.917969 58.339844 C 64.367188 59.011719 64.367188 60.355469 64.066406 61.101562 C 63.84375 61.699219 63.320312 62.222656 62.796875 62.519531 C 62.277344 62.816406 61.53125 62.890625 60.933594 62.816406 C 60.335938 62.742188 59.589844 62.445312 59.21875 61.996094 C 58.695312 61.398438 58.324219 60.058594 58.472656 59.3125 C 58.546875 58.640625 58.769531 58.191406 59.367188 57.667969 C 61.082031 56.328125 66.753906 55.582031 70.707031 54.164062 C 75.332031 52.597656 82.644531 49.910156 85.480469 48.34375 C 86.746094 47.671875 88.164062 47.152344 88.089844 46.554688 C 87.941406 45.507812 81.003906 44.539062 78.914062 43.421875 C 77.570312 42.75 77.347656 41.929688 76.003906 41.332031 C 73.765625 40.363281 68.917969 40.363281 66.15625 39.390625 C 63.992188 38.71875 61.679688 37.675781 60.558594 36.78125 C 59.890625 36.183594 59.441406 35.734375 59.21875 35.066406 C 59.070312 34.46875 59.144531 33.574219 59.367188 32.976562 C 59.664062 32.378906 60.261719 31.78125 60.933594 31.484375 C 61.53125 31.257812 63.023438 31.410156 63.023438 31.410156 " clip-rule="nonzero"/></clipPath><clipPath id="ed1cfddfb4"><path d="M 0.339844 0.351562 L 35.15625 0.351562 L 35.15625 31.949219 L 0.339844 31.949219 Z M 0.339844 0.351562 " clip-rule="nonzero"/></clipPath><clipPath id="572d96a325"><path d="M 5.023438 0.410156 C 22.40625 5.78125 23.671875 7.125 25.761719 8.019531 C 27.925781 8.914062 31.058594 9.210938 32.625 10.257812 C 33.671875 11.003906 34.34375 11.972656 34.714844 12.941406 C 35.089844 13.988281 35.089844 15.179688 35.015625 16.300781 C 34.863281 17.417969 34.640625 18.613281 34.117188 19.582031 C 33.523438 20.550781 32.925781 21.222656 31.582031 22.195312 C 28.226562 24.355469 17.480469 27.9375 12.109375 29.578125 C 8.453125 30.699219 4.425781 32.117188 2.636719 31.742188 C 1.816406 31.59375 1.367188 31.222656 0.992188 30.699219 C 0.621094 30.25 0.324219 29.578125 0.398438 28.90625 C 0.398438 28.160156 1.070312 26.894531 1.664062 26.445312 C 2.113281 26 2.859375 25.847656 3.457031 25.921875 C 4.277344 26 5.46875 26.59375 5.917969 27.339844 C 6.367188 28.011719 6.367188 29.355469 6.066406 30.101562 C 5.84375 30.699219 5.320312 31.222656 4.796875 31.519531 C 4.277344 31.816406 3.53125 31.890625 2.933594 31.816406 C 2.335938 31.742188 1.589844 31.445312 1.21875 30.996094 C 0.695312 30.398438 0.324219 29.058594 0.472656 28.3125 C 0.546875 27.640625 0.769531 27.191406 1.367188 26.667969 C 3.082031 25.328125 8.753906 24.582031 12.707031 23.164062 C 17.332031 21.597656 24.644531 18.910156 27.480469 17.34375 C 28.746094 16.671875 30.164062 16.152344 30.089844 15.554688 C 29.941406 14.507812 23.003906 13.539062 20.914062 12.421875 C 19.570312 11.75 19.347656 10.929688 18.003906 10.332031 C 15.765625 9.363281 10.917969 9.363281 8.15625 8.390625 C 5.992188 7.71875 3.679688 6.675781 2.558594 5.78125 C 1.890625 5.183594 1.441406 4.734375 1.21875 4.066406 C 1.070312 3.46875 1.144531 2.574219 1.367188 1.976562 C 1.664062 1.378906 2.261719 0.78125 2.933594 0.484375 C 3.53125 0.257812 5.023438 0.410156 5.023438 0.410156 " clip-rule="nonzero"/></clipPath><clipPath id="454308339f"><rect x="0" width="36" y="0" height="32"/></clipPath><clipPath id="163fadecc0"><path d="M 31.21875 57.125 L 63.492188 57.125 L 63.492188 90.878906 L 31.21875 90.878906 Z M 31.21875 57.125 " clip-rule="nonzero"/></clipPath><clipPath id="a7a6b0e616"><path d="M 63.320312 61.101562 C 54.667969 87.511719 54.367188 87.960938 53.621094 88.707031 C 52.800781 89.453125 51.609375 90.199219 50.5625 90.496094 C 49.519531 90.871094 48.398438 90.792969 47.355469 90.792969 C 46.3125 90.71875 45.191406 90.792969 44.296875 90.347656 C 43.328125 89.898438 42.355469 89.078125 41.835938 88.035156 C 41.015625 86.542969 41.761719 84.003906 40.9375 81.691406 C 39.746094 78.335938 35.566406 73.710938 33.925781 70.203125 C 32.65625 67.519531 31.539062 64.308594 31.390625 62.667969 C 31.316406 61.847656 31.390625 61.324219 31.6875 60.730469 C 31.988281 60.207031 32.507812 59.683594 33.03125 59.460938 C 33.628906 59.160156 34.300781 59.011719 34.972656 59.160156 C 35.71875 59.386719 36.761719 60.207031 37.132812 60.953125 C 37.433594 61.773438 37.285156 63.042969 36.835938 63.789062 C 36.386719 64.457031 35.195312 65.128906 34.375 65.128906 C 33.554688 65.128906 32.359375 64.535156 31.910156 63.863281 C 31.464844 63.191406 31.242188 61.847656 31.539062 61.027344 C 31.835938 60.28125 32.957031 59.460938 33.703125 59.238281 C 34.300781 59.011719 35.046875 59.160156 35.566406 59.386719 C 36.089844 59.609375 36.539062 59.984375 36.984375 60.652344 C 37.957031 62.296875 38.476562 66.773438 39.894531 69.53125 C 41.3125 72.441406 44.222656 75.351562 45.492188 77.664062 C 46.3125 79.15625 46.980469 80.425781 47.132812 81.765625 C 47.207031 82.8125 46.160156 84.304688 46.535156 84.675781 C 46.980469 85.125 48.699219 84.976562 49.742188 84.082031 C 52.726562 81.394531 55.785156 61.625 57.949219 58.566406 C 58.546875 57.746094 58.992188 57.519531 59.664062 57.296875 C 60.261719 57.148438 61.15625 57.222656 61.753906 57.519531 C 62.351562 57.746094 62.949219 58.414062 63.246094 59.011719 C 63.46875 59.609375 63.320312 61.101562 63.320312 61.101562 " clip-rule="nonzero"/></clipPath><clipPath id="abed6ccf94"><path d="M 0.21875 0.125 L 32.492188 0.125 L 32.492188 33.878906 L 0.21875 33.878906 Z M 0.21875 0.125 " clip-rule="nonzero"/></clipPath><clipPath id="cf9f2e2a84"><path d="M 32.320312 4.101562 C 23.667969 30.511719 23.367188 30.960938 22.621094 31.707031 C 21.800781 32.453125 20.609375 33.199219 19.5625 33.496094 C 18.519531 33.871094 17.398438 33.792969 16.355469 33.792969 C 15.3125 33.71875 14.191406 33.792969 13.296875 33.347656 C 12.328125 32.898438 11.355469 32.078125 10.835938 31.035156 C 10.015625 29.542969 10.761719 27.003906 9.9375 24.691406 C 8.746094 21.335938 4.566406 16.710938 2.925781 13.203125 C 1.65625 10.519531 0.539062 7.308594 0.390625 5.667969 C 0.316406 4.847656 0.390625 4.324219 0.6875 3.730469 C 0.988281 3.207031 1.507812 2.683594 2.03125 2.460938 C 2.628906 2.160156 3.300781 2.011719 3.972656 2.160156 C 4.71875 2.386719 5.761719 3.207031 6.132812 3.953125 C 6.433594 4.773438 6.285156 6.042969 5.835938 6.789062 C 5.386719 7.457031 4.195312 8.128906 3.375 8.128906 C 2.554688 8.128906 1.359375 7.535156 0.910156 6.863281 C 0.464844 6.191406 0.242188 4.847656 0.539062 4.027344 C 0.835938 3.28125 1.957031 2.460938 2.703125 2.238281 C 3.300781 2.011719 4.046875 2.160156 4.566406 2.386719 C 5.089844 2.609375 5.539062 2.984375 5.984375 3.652344 C 6.957031 5.296875 7.476562 9.773438 8.894531 12.53125 C 10.3125 15.441406 13.222656 18.351562 14.492188 20.664062 C 15.3125 22.15625 15.980469 23.425781 16.132812 24.765625 C 16.207031 25.8125 15.160156 27.304688 15.535156 27.675781 C 15.980469 28.125 17.699219 27.976562 18.742188 27.082031 C 21.726562 24.394531 24.785156 4.625 26.949219 1.566406 C 27.546875 0.746094 27.992188 0.519531 28.664062 0.296875 C 29.261719 0.148438 30.15625 0.222656 30.753906 0.519531 C 31.351562 0.746094 31.949219 1.414062 32.246094 2.011719 C 32.46875 2.609375 32.320312 4.101562 32.320312 4.101562 " clip-rule="nonzero"/></clipPath><clipPath id="a9e64c1edf"><rect x="0" width="33" y="0" height="34"/></clipPath><clipPath id="f52beb68d8"><path d="M 2.953125 31.324219 L 38.625 31.324219 L 38.625 63.574219 L 2.953125 63.574219 Z M 2.953125 31.324219 " clip-rule="nonzero"/></clipPath><clipPath id="9a22f9c57d"><path d="M 33.777344 63.488281 C 14.304688 57.445312 9.679688 55.132812 7.367188 53.714844 C 6.097656 52.96875 5.425781 52.597656 4.753906 51.777344 C 4.085938 50.878906 3.636719 49.6875 3.339844 48.566406 C 3.039062 47.523438 2.816406 46.253906 3.113281 45.285156 C 3.414062 44.316406 4.085938 43.421875 5.054688 42.597656 C 6.472656 41.257812 8.933594 39.691406 11.246094 38.71875 C 13.933594 37.675781 16.992188 37.898438 20.273438 36.929688 C 24.601562 35.660156 32.210938 31.855469 34.820312 31.484375 C 35.71875 31.335938 36.089844 31.335938 36.6875 31.632812 C 37.359375 31.929688 38.253906 33.050781 38.476562 33.796875 C 38.625 34.394531 38.476562 35.140625 38.253906 35.660156 C 37.957031 36.183594 37.507812 36.78125 36.910156 37.003906 C 36.164062 37.300781 34.820312 37.378906 34.074219 37.003906 C 33.402344 36.554688 32.65625 35.4375 32.582031 34.617188 C 32.507812 33.796875 33.03125 32.601562 33.628906 32.082031 C 34.300781 31.558594 35.566406 31.257812 36.386719 31.484375 C 37.210938 31.707031 38.105469 32.75 38.402344 33.421875 C 38.625 34.019531 38.550781 34.765625 38.328125 35.363281 C 38.179688 35.960938 37.878906 36.40625 37.210938 36.855469 C 35.71875 37.898438 31.167969 38.421875 28.480469 39.464844 C 26.09375 40.363281 24.152344 41.929688 21.914062 42.675781 C 19.601562 43.421875 16.917969 43.269531 14.679688 44.089844 C 12.515625 44.835938 8.636719 46.03125 8.636719 47.226562 C 8.636719 48.941406 15.796875 51.476562 19.976562 53.195312 C 24.75 55.132812 33.554688 56.476562 35.867188 57.96875 C 36.761719 58.566406 37.058594 58.9375 37.285156 59.609375 C 37.507812 60.207031 37.507812 61.101562 37.285156 61.699219 C 37.058594 62.296875 36.464844 62.96875 35.867188 63.265625 C 35.269531 63.5625 33.777344 63.488281 33.777344 63.488281 " clip-rule="nonzero"/></clipPath><clipPath id="9059cbf149"><path d="M 0.953125 0.324219 L 36.625 0.324219 L 36.625 32.574219 L 0.953125 32.574219 Z M 0.953125 0.324219 " clip-rule="nonzero"/></clipPath><clipPath id="fb4c077fa8"><path d="M 31.777344 32.488281 C 12.304688 26.445312 7.679688 24.132812 5.367188 22.714844 C 4.097656 21.96875 3.425781 21.597656 2.753906 20.777344 C 2.085938 19.878906 1.636719 18.6875 1.339844 17.566406 C 1.039062 16.523438 0.816406 15.253906 1.113281 14.285156 C 1.414062 13.316406 2.085938 12.421875 3.054688 11.597656 C 4.472656 10.257812 6.933594 8.691406 9.246094 7.71875 C 11.933594 6.675781 14.992188 6.898438 18.273438 5.929688 C 22.601562 4.660156 30.210938 0.855469 32.820312 0.484375 C 33.71875 0.335938 34.089844 0.335938 34.6875 0.632812 C 35.359375 0.929688 36.253906 2.050781 36.476562 2.796875 C 36.625 3.394531 36.476562 4.140625 36.253906 4.660156 C 35.957031 5.183594 35.507812 5.78125 34.910156 6.003906 C 34.164062 6.300781 32.820312 6.378906 32.074219 6.003906 C 31.402344 5.554688 30.65625 4.4375 30.582031 3.617188 C 30.507812 2.796875 31.03125 1.601562 31.628906 1.082031 C 32.300781 0.558594 33.566406 0.257812 34.386719 0.484375 C 35.210938 0.707031 36.105469 1.75 36.402344 2.421875 C 36.625 3.019531 36.550781 3.765625 36.328125 4.363281 C 36.179688 4.960938 35.878906 5.40625 35.210938 5.855469 C 33.71875 6.898438 29.167969 7.421875 26.480469 8.464844 C 24.09375 9.363281 22.152344 10.929688 19.914062 11.675781 C 17.601562 12.421875 14.917969 12.269531 12.679688 13.089844 C 10.515625 13.835938 6.636719 15.03125 6.636719 16.226562 C 6.636719 17.941406 13.796875 20.476562 17.976562 22.195312 C 22.75 24.132812 31.554688 25.476562 33.867188 26.96875 C 34.761719 27.566406 35.058594 27.9375 35.285156 28.609375 C 35.507812 29.207031 35.507812 30.101562 35.285156 30.699219 C 35.058594 31.296875 34.464844 31.96875 33.867188 32.265625 C 33.269531 32.5625 31.777344 32.488281 31.777344 32.488281 " clip-rule="nonzero"/></clipPath><clipPath id="605bb36e49"><rect x="0" width="37" y="0" height="33"/></clipPath><clipPath id="d6e89d43d0"><path d="M 11.476562 10.042969 L 34.179688 10.042969 L 34.179688 34 L 11.476562 34 Z M 11.476562 10.042969 " clip-rule="nonzero"/></clipPath><clipPath id="7aa7ccac17"><path d="M 34.074219 21.785156 C 32.285156 28.5 31.390625 29.246094 30.269531 30.140625 C 28.851562 31.410156 26.390625 33.199219 24.675781 33.722656 C 23.257812 34.09375 21.839844 34.09375 20.796875 33.574219 C 19.75 33.125 19.230469 32.230469 18.410156 30.960938 C 16.542969 28.351562 12.589844 21.039062 11.769531 18.054688 C 11.394531 16.636719 11.394531 15.742188 11.695312 14.695312 C 11.917969 13.652344 12.589844 12.460938 13.410156 11.714844 C 14.230469 10.890625 15.425781 10.296875 16.542969 10.144531 C 17.589844 9.921875 18.855469 10.222656 19.976562 10.445312 C 21.09375 10.667969 21.914062 10.742188 23.183594 11.488281 C 25.867188 13.128906 33.179688 19.472656 33.851562 22.007812 C 34.148438 23.054688 33.554688 24.097656 33.03125 24.695312 C 32.65625 25.140625 31.988281 25.441406 31.390625 25.515625 C 30.792969 25.589844 30.046875 25.515625 29.449219 25.214844 C 28.851562 24.769531 28.03125 23.648438 27.957031 22.828125 C 27.882812 22.007812 28.40625 20.816406 29.003906 20.292969 C 29.675781 19.769531 31.015625 19.546875 31.761719 19.695312 C 32.359375 19.84375 32.957031 20.367188 33.328125 20.816406 C 33.703125 21.335938 33.925781 22.007812 33.925781 22.605469 C 33.925781 23.203125 33.628906 23.949219 33.253906 24.394531 C 32.882812 24.917969 32.285156 25.292969 31.6875 25.441406 C 31.089844 25.589844 30.570312 25.664062 29.75 25.367188 C 27.808594 24.46875 23.183594 18.203125 20.871094 17.085938 C 19.675781 16.488281 18.109375 16.113281 17.8125 16.5625 C 17.066406 17.605469 21.691406 27.304688 23.707031 27.605469 C 25.121094 27.828125 27.359375 24.769531 28.03125 23.425781 C 28.40625 22.53125 27.957031 21.5625 28.183594 20.816406 C 28.480469 20.144531 28.851562 19.472656 29.523438 19.171875 C 30.269531 18.800781 32.136719 18.800781 32.882812 19.324219 C 33.554688 19.769531 34.074219 21.859375 34.074219 21.859375 " clip-rule="nonzero"/></clipPath><clipPath id="e70afb6e2d"><path d="M 0.476562 0.0429688 L 23.179688 0.0429688 L 23.179688 24 L 0.476562 24 Z M 0.476562 0.0429688 " clip-rule="nonzero"/></clipPath><clipPath id="342001cbfa"><path d="M 23.074219 11.785156 C 21.285156 18.5 20.390625 19.246094 19.269531 20.140625 C 17.851562 21.410156 15.390625 23.199219 13.675781 23.722656 C 12.257812 24.09375 10.839844 24.09375 9.796875 23.574219 C 8.75 23.125 8.230469 22.230469 7.410156 20.960938 C 5.542969 18.351562 1.589844 11.039062 0.769531 8.054688 C 0.394531 6.636719 0.394531 5.742188 0.695312 4.695312 C 0.917969 3.652344 1.589844 2.460938 2.410156 1.714844 C 3.230469 0.890625 4.425781 0.296875 5.542969 0.144531 C 6.589844 -0.078125 7.855469 0.222656 8.976562 0.445312 C 10.09375 0.667969 10.914062 0.742188 12.183594 1.488281 C 14.867188 3.128906 22.179688 9.472656 22.851562 12.007812 C 23.148438 13.054688 22.554688 14.097656 22.03125 14.695312 C 21.65625 15.140625 20.988281 15.441406 20.390625 15.515625 C 19.792969 15.589844 19.046875 15.515625 18.449219 15.214844 C 17.851562 14.769531 17.03125 13.648438 16.957031 12.828125 C 16.882812 12.007812 17.40625 10.816406 18.003906 10.292969 C 18.675781 9.769531 20.015625 9.546875 20.761719 9.695312 C 21.359375 9.84375 21.957031 10.367188 22.328125 10.816406 C 22.703125 11.335938 22.925781 12.007812 22.925781 12.605469 C 22.925781 13.203125 22.628906 13.949219 22.253906 14.394531 C 21.882812 14.917969 21.285156 15.292969 20.6875 15.441406 C 20.089844 15.589844 19.570312 15.664062 18.75 15.367188 C 16.808594 14.46875 12.183594 8.203125 9.871094 7.085938 C 8.675781 6.488281 7.109375 6.113281 6.8125 6.5625 C 6.066406 7.605469 10.691406 17.304688 12.707031 17.605469 C 14.121094 17.828125 16.359375 14.769531 17.03125 13.425781 C 17.40625 12.53125 16.957031 11.5625 17.183594 10.816406 C 17.480469 10.144531 17.851562 9.472656 18.523438 9.171875 C 19.269531 8.800781 21.136719 8.800781 21.882812 9.324219 C 22.554688 9.769531 23.074219 11.859375 23.074219 11.859375 " clip-rule="nonzero"/></clipPath><clipPath id="14d24f7d14"><rect x="0" width="24" y="0" height="24"/></clipPath><clipPath id="8293afda91"><path d="M 61.851562 9.285156 L 86.457031 9.285156 L 86.457031 33.539062 L 61.851562 33.539062 Z M 61.851562 9.285156 " clip-rule="nonzero"/></clipPath><clipPath id="9420a43fb2"><path d="M 63.695312 18.726562 C 77.945312 9.476562 78.765625 9.25 79.808594 9.324219 C 80.929688 9.398438 82.046875 9.921875 82.941406 10.519531 C 83.910156 11.117188 84.882812 12.085938 85.480469 13.054688 C 86 14.027344 86.375 15.292969 86.375 16.414062 C 86.449219 17.53125 86.375 18.425781 85.777344 19.84375 C 84.433594 22.902344 78.316406 31.484375 76.152344 32.976562 C 75.480469 33.421875 74.960938 33.496094 74.363281 33.496094 C 73.765625 33.421875 73.019531 33.199219 72.570312 32.75 C 72.125 32.378906 71.75 31.707031 71.601562 31.183594 C 71.453125 30.589844 71.453125 29.84375 71.75 29.246094 C 72.125 28.574219 73.167969 27.679688 73.988281 27.53125 C 74.808594 27.378906 76.078125 27.828125 76.675781 28.425781 C 77.199219 29.019531 77.570312 30.289062 77.421875 31.109375 C 77.273438 31.929688 76.300781 32.902344 75.628906 33.273438 C 75.035156 33.574219 74.289062 33.496094 73.691406 33.347656 C 73.167969 33.199219 72.496094 32.828125 72.125 32.304688 C 71.675781 31.632812 71.378906 30.738281 71.675781 29.542969 C 72.199219 27.007812 78.765625 21.1875 79.359375 18.578125 C 79.734375 17.308594 79.585938 15.742188 78.988281 15.441406 C 77.867188 14.996094 73.242188 20.070312 70.78125 21.636719 C 68.839844 22.828125 66.902344 24.097656 65.558594 24.320312 C 64.738281 24.46875 63.992188 24.320312 63.46875 23.949219 C 62.875 23.648438 62.351562 22.976562 62.128906 22.308594 C 61.902344 21.710938 61.902344 20.816406 62.203125 20.21875 C 62.425781 19.621094 63.695312 18.726562 63.695312 18.726562 " clip-rule="nonzero"/></clipPath><clipPath id="b6eb1725fe"><path d="M 0.851562 0.285156 L 25.457031 0.285156 L 25.457031 24.539062 L 0.851562 24.539062 Z M 0.851562 0.285156 " clip-rule="nonzero"/></clipPath><clipPath id="797c8e7986"><path d="M 2.695312 9.726562 C 16.945312 0.476562 17.765625 0.25 18.808594 0.324219 C 19.929688 0.398438 21.046875 0.921875 21.941406 1.519531 C 22.910156 2.117188 23.882812 3.085938 24.480469 4.054688 C 25 5.027344 25.375 6.292969 25.375 7.414062 C 25.449219 8.53125 25.375 9.425781 24.777344 10.84375 C 23.433594 13.902344 17.316406 22.484375 15.152344 23.976562 C 14.480469 24.421875 13.960938 24.496094 13.363281 24.496094 C 12.765625 24.421875 12.019531 24.199219 11.570312 23.75 C 11.125 23.378906 10.75 22.707031 10.601562 22.183594 C 10.453125 21.589844 10.453125 20.84375 10.75 20.246094 C 11.125 19.574219 12.167969 18.679688 12.988281 18.53125 C 13.808594 18.378906 15.078125 18.828125 15.675781 19.425781 C 16.199219 20.019531 16.570312 21.289062 16.421875 22.109375 C 16.273438 22.929688 15.300781 23.902344 14.628906 24.273438 C 14.035156 24.574219 13.289062 24.496094 12.691406 24.347656 C 12.167969 24.199219 11.496094 23.828125 11.125 23.304688 C 10.675781 22.632812 10.378906 21.738281 10.675781 20.542969 C 11.199219 18.007812 17.765625 12.1875 18.359375 9.578125 C 18.734375 8.308594 18.585938 6.742188 17.988281 6.441406 C 16.867188 5.996094 12.242188 11.070312 9.78125 12.636719 C 7.839844 13.828125 5.902344 15.097656 4.558594 15.320312 C 3.738281 15.46875 2.992188 15.320312 2.46875 14.949219 C 1.875 14.648438 1.351562 13.976562 1.128906 13.308594 C 0.902344 12.710938 0.902344 11.816406 1.203125 11.21875 C 1.425781 10.621094 2.695312 9.726562 2.695312 9.726562 " clip-rule="nonzero"/></clipPath><clipPath id="b68f65d125"><rect x="0" width="26" y="0" height="25"/></clipPath><clipPath id="0fbb6a6ef8"><path d="M 62.402344 20.792969 L 75.097656 20.792969 L 75.097656 32.921875 L 62.402344 32.921875 Z M 62.402344 20.792969 " clip-rule="nonzero"/></clipPath><clipPath id="35740b7544"><path d="M 67.796875 22.082031 C 71.976562 27.007812 74.289062 27.753906 74.882812 28.722656 C 75.183594 29.394531 75.109375 30.066406 74.960938 30.664062 C 74.808594 31.257812 74.4375 31.929688 73.914062 32.230469 C 73.316406 32.675781 71.976562 32.976562 71.15625 32.75 C 70.410156 32.453125 69.511719 31.410156 69.214844 30.738281 C 68.992188 30.140625 69.140625 29.394531 69.289062 28.796875 C 69.511719 28.277344 69.960938 27.679688 70.558594 27.378906 C 71.230469 27.007812 72.570312 26.933594 73.316406 27.15625 C 73.914062 27.378906 74.4375 27.902344 74.734375 28.5 C 75.035156 29.019531 75.183594 29.691406 75.035156 30.363281 C 74.882812 31.109375 74.0625 32.230469 73.394531 32.601562 C 72.796875 32.902344 72.199219 32.902344 71.527344 32.828125 C 70.558594 32.675781 69.4375 32.304688 68.320312 31.484375 C 66.679688 30.289062 63.769531 27.082031 62.949219 25.515625 C 62.5 24.695312 62.351562 24.097656 62.425781 23.425781 C 62.5 22.753906 62.875 22.007812 63.394531 21.5625 C 63.84375 21.113281 64.664062 20.742188 65.335938 20.816406 C 66.15625 20.816406 67.796875 22.082031 67.796875 22.082031 " clip-rule="nonzero"/></clipPath><clipPath id="ca79d119b5"><path d="M 0.402344 0.792969 L 13.097656 0.792969 L 13.097656 12.921875 L 0.402344 12.921875 Z M 0.402344 0.792969 " clip-rule="nonzero"/></clipPath><clipPath id="3ed4be9639"><path d="M 5.796875 2.082031 C 9.976562 7.007812 12.289062 7.753906 12.882812 8.722656 C 13.183594 9.394531 13.109375 10.066406 12.960938 10.664062 C 12.808594 11.257812 12.4375 11.929688 11.914062 12.230469 C 11.316406 12.675781 9.976562 12.976562 9.15625 12.75 C 8.410156 12.453125 7.511719 11.410156 7.214844 10.738281 C 6.992188 10.140625 7.140625 9.394531 7.289062 8.796875 C 7.511719 8.277344 7.960938 7.679688 8.558594 7.378906 C 9.230469 7.007812 10.570312 6.933594 11.316406 7.15625 C 11.914062 7.378906 12.4375 7.902344 12.734375 8.5 C 13.035156 9.019531 13.183594 9.691406 13.035156 10.363281 C 12.882812 11.109375 12.0625 12.230469 11.394531 12.601562 C 10.796875 12.902344 10.199219 12.902344 9.527344 12.828125 C 8.558594 12.675781 7.4375 12.304688 6.320312 11.484375 C 4.679688 10.289062 1.769531 7.082031 0.949219 5.515625 C 0.5 4.695312 0.351562 4.097656 0.425781 3.425781 C 0.5 2.753906 0.875 2.007812 1.394531 1.5625 C 1.84375 1.113281 2.664062 0.742188 3.335938 0.816406 C 4.15625 0.816406 5.796875 2.082031 5.796875 2.082031 " clip-rule="nonzero"/></clipPath><clipPath id="089b0a3679"><rect x="0" width="14" y="0" height="13"/></clipPath><clipPath id="b45e846020"><path d="M 19.21875 62.140625 L 33 62.140625 L 33 76.800781 L 19.21875 76.800781 Z M 19.21875 62.140625 " clip-rule="nonzero"/></clipPath><clipPath id="4b16d49f16"><path d="M 22.585938 62.144531 C 29.078125 64.832031 29.972656 65.203125 30.71875 66.398438 C 31.910156 68.1875 33.179688 73.039062 32.882812 74.679688 C 32.734375 75.425781 32.285156 75.875 31.761719 76.171875 C 31.242188 76.546875 30.570312 76.769531 29.972656 76.769531 C 29.300781 76.695312 28.628906 76.46875 28.183594 76.097656 C 27.660156 75.722656 27.210938 75.128906 27.136719 74.457031 C 26.988281 73.710938 27.285156 72.367188 27.808594 71.769531 C 28.332031 71.171875 29.675781 70.726562 30.421875 70.800781 C 31.089844 70.875 31.761719 71.171875 32.136719 71.621094 C 32.65625 72.21875 33.105469 73.5625 32.957031 74.308594 C 32.808594 75.128906 31.910156 76.171875 31.167969 76.46875 C 30.644531 76.769531 29.898438 76.84375 29.300781 76.621094 C 28.554688 76.394531 27.734375 75.648438 27.210938 74.753906 C 26.539062 73.710938 26.839844 71.695312 25.867188 70.351562 C 24.601562 68.785156 20.125 67.964844 19.453125 66.398438 C 18.929688 65.429688 19.378906 63.789062 19.976562 63.042969 C 20.496094 62.445312 22.585938 62.144531 22.585938 62.144531 " clip-rule="nonzero"/></clipPath><clipPath id="01e0d32d68"><path d="M 0.21875 0.140625 L 14 0.140625 L 14 14.800781 L 0.21875 14.800781 Z M 0.21875 0.140625 " clip-rule="nonzero"/></clipPath><clipPath id="adbff4d6e6"><path d="M 3.585938 0.144531 C 10.078125 2.832031 10.972656 3.203125 11.71875 4.398438 C 12.910156 6.1875 14.179688 11.039062 13.882812 12.679688 C 13.734375 13.425781 13.285156 13.875 12.761719 14.171875 C 12.242188 14.546875 11.570312 14.769531 10.972656 14.769531 C 10.300781 14.695312 9.628906 14.46875 9.183594 14.097656 C 8.660156 13.722656 8.210938 13.128906 8.136719 12.457031 C 7.988281 11.710938 8.285156 10.367188 8.808594 9.769531 C 9.332031 9.171875 10.675781 8.726562 11.421875 8.800781 C 12.089844 8.875 12.761719 9.171875 13.136719 9.621094 C 13.65625 10.21875 14.105469 11.5625 13.957031 12.308594 C 13.808594 13.128906 12.910156 14.171875 12.167969 14.46875 C 11.644531 14.769531 10.898438 14.84375 10.300781 14.621094 C 9.554688 14.394531 8.734375 13.648438 8.210938 12.753906 C 7.539062 11.710938 7.839844 9.695312 6.867188 8.351562 C 5.601562 6.785156 1.125 5.964844 0.453125 4.398438 C -0.0703125 3.429688 0.378906 1.789062 0.976562 1.042969 C 1.496094 0.445312 3.585938 0.144531 3.585938 0.144531 " clip-rule="nonzero"/></clipPath><clipPath id="9651c698d7"><rect x="0" width="14" y="0" height="15"/></clipPath><clipPath id="62d75deb81"><path d="M 11.003906 63.609375 L 32.316406 63.609375 L 32.316406 84.8125 L 11.003906 84.8125 Z M 11.003906 63.609375 " clip-rule="nonzero"/></clipPath><clipPath id="53d52b6db5"><path d="M 22.960938 68.488281 C 17.140625 76.917969 16.992188 81.097656 17.214844 81.097656 C 17.363281 81.171875 17.363281 78.933594 18.257812 77.960938 C 19.976562 76.097656 26.691406 73.5625 28.851562 73.335938 C 29.675781 73.261719 30.195312 73.410156 30.71875 73.710938 C 31.242188 73.933594 31.761719 74.457031 31.988281 75.054688 C 32.285156 75.800781 32.285156 77.140625 31.835938 77.886719 C 31.390625 78.558594 30.195312 79.230469 29.375 79.304688 C 28.554688 79.304688 27.359375 78.632812 26.914062 78.113281 C 26.464844 77.589844 26.316406 76.84375 26.316406 76.246094 C 26.316406 75.648438 26.464844 74.902344 26.914062 74.457031 C 27.4375 73.859375 28.628906 73.261719 29.449219 73.335938 C 30.269531 73.335938 31.390625 74.15625 31.835938 74.753906 C 32.210938 75.277344 32.285156 76.023438 32.210938 76.621094 C 32.136719 77.214844 32.0625 77.738281 31.390625 78.410156 C 29.75 80.050781 21.46875 83.558594 18.632812 84.378906 C 17.289062 84.75 16.542969 84.828125 15.5 84.75 C 14.453125 84.675781 13.1875 84.601562 12.441406 83.929688 C 11.695312 83.183594 11.394531 81.542969 11.246094 80.351562 C 11.023438 79.378906 11.023438 78.558594 11.246094 77.367188 C 11.542969 75.574219 12.367188 72.816406 13.484375 70.726562 C 14.679688 68.5625 16.992188 65.875 18.257812 64.757812 C 19.003906 64.160156 19.453125 63.710938 20.125 63.636719 C 21.019531 63.636719 22.734375 64.308594 23.183594 65.054688 C 23.707031 65.875 22.960938 68.488281 22.960938 68.488281 " clip-rule="nonzero"/></clipPath><clipPath id="de71fefc5c"><path d="M 0.00390625 0.609375 L 21.316406 0.609375 L 21.316406 21.8125 L 0.00390625 21.8125 Z M 0.00390625 0.609375 " clip-rule="nonzero"/></clipPath><clipPath id="1531de4843"><path d="M 11.960938 5.488281 C 6.140625 13.917969 5.992188 18.097656 6.214844 18.097656 C 6.363281 18.171875 6.363281 15.933594 7.257812 14.960938 C 8.976562 13.097656 15.691406 10.5625 17.851562 10.335938 C 18.675781 10.261719 19.195312 10.410156 19.71875 10.710938 C 20.242188 10.933594 20.761719 11.457031 20.988281 12.054688 C 21.285156 12.800781 21.285156 14.140625 20.835938 14.886719 C 20.390625 15.558594 19.195312 16.230469 18.375 16.304688 C 17.554688 16.304688 16.359375 15.632812 15.914062 15.113281 C 15.464844 14.589844 15.316406 13.84375 15.316406 13.246094 C 15.316406 12.648438 15.464844 11.902344 15.914062 11.457031 C 16.4375 10.859375 17.628906 10.261719 18.449219 10.335938 C 19.269531 10.335938 20.390625 11.15625 20.835938 11.753906 C 21.210938 12.277344 21.285156 13.023438 21.210938 13.621094 C 21.136719 14.214844 21.0625 14.738281 20.390625 15.410156 C 18.75 17.050781 10.46875 20.558594 7.632812 21.378906 C 6.289062 21.75 5.542969 21.828125 4.5 21.75 C 3.453125 21.675781 2.1875 21.601562 1.441406 20.929688 C 0.695312 20.183594 0.394531 18.542969 0.246094 17.351562 C 0.0234375 16.378906 0.0234375 15.558594 0.246094 14.367188 C 0.542969 12.574219 1.367188 9.816406 2.484375 7.726562 C 3.679688 5.5625 5.992188 2.875 7.257812 1.757812 C 8.003906 1.160156 8.453125 0.710938 9.125 0.636719 C 10.019531 0.636719 11.734375 1.308594 12.183594 2.054688 C 12.707031 2.875 11.960938 5.488281 11.960938 5.488281 " clip-rule="nonzero"/></clipPath><clipPath id="85ef7f8e34"><rect x="0" width="22" y="0" height="22"/></clipPath><clipPath id="ac2802c54e"><path d="M 61.902344 61.921875 L 77.199219 61.921875 L 77.199219 75.128906 L 61.902344 75.128906 Z M 61.902344 61.921875 " clip-rule="nonzero"/></clipPath><clipPath id="f4bd0cc2b5"><path d="M 62.5 70.425781 C 66.902344 64.535156 68.917969 62.890625 70.707031 62.296875 C 72.347656 61.847656 74.808594 61.847656 75.855469 62.445312 C 76.675781 62.96875 77.121094 64.160156 77.199219 64.90625 C 77.199219 65.578125 76.972656 66.25 76.601562 66.773438 C 76.078125 67.292969 74.882812 67.964844 74.0625 67.964844 C 73.242188 67.890625 72.050781 67.21875 71.675781 66.472656 C 71.230469 65.800781 71.15625 64.457031 71.453125 63.710938 C 71.824219 62.96875 72.945312 62.222656 73.691406 61.996094 C 74.289062 61.847656 75.035156 62.070312 75.554688 62.296875 C 76.078125 62.59375 76.675781 63.117188 76.898438 63.710938 C 77.199219 64.382812 77.273438 65.652344 76.75 66.472656 C 75.855469 67.816406 71.902344 68.1875 70.183594 69.605469 C 68.691406 70.875 68.019531 73.484375 66.902344 74.382812 C 66.230469 74.902344 65.558594 75.128906 64.886719 75.128906 C 64.289062 75.128906 63.46875 74.753906 62.949219 74.308594 C 62.425781 73.933594 62.050781 73.113281 61.976562 72.441406 C 61.902344 71.769531 62.5 70.425781 62.5 70.425781 " clip-rule="nonzero"/></clipPath><clipPath id="44c5c00055"><path d="M 0.902344 0.921875 L 16.199219 0.921875 L 16.199219 14.128906 L 0.902344 14.128906 Z M 0.902344 0.921875 " clip-rule="nonzero"/></clipPath><clipPath id="3511a3dcd6"><path d="M 1.5 9.425781 C 5.902344 3.535156 7.917969 1.890625 9.707031 1.296875 C 11.347656 0.847656 13.808594 0.847656 14.855469 1.445312 C 15.675781 1.96875 16.121094 3.160156 16.199219 3.90625 C 16.199219 4.578125 15.972656 5.25 15.601562 5.773438 C 15.078125 6.292969 13.882812 6.964844 13.0625 6.964844 C 12.242188 6.890625 11.050781 6.21875 10.675781 5.472656 C 10.230469 4.800781 10.15625 3.457031 10.453125 2.710938 C 10.824219 1.96875 11.945312 1.222656 12.691406 0.996094 C 13.289062 0.847656 14.035156 1.070312 14.554688 1.296875 C 15.078125 1.59375 15.675781 2.117188 15.898438 2.710938 C 16.199219 3.382812 16.273438 4.652344 15.75 5.472656 C 14.855469 6.816406 10.902344 7.1875 9.183594 8.605469 C 7.691406 9.875 7.019531 12.484375 5.902344 13.382812 C 5.230469 13.902344 4.558594 14.128906 3.886719 14.128906 C 3.289062 14.128906 2.46875 13.753906 1.949219 13.308594 C 1.425781 12.933594 1.050781 12.113281 0.976562 11.441406 C 0.902344 10.769531 1.5 9.425781 1.5 9.425781 " clip-rule="nonzero"/></clipPath><clipPath id="7c4c0748b3"><rect x="0" width="17" y="0" height="15"/></clipPath><clipPath id="58ec9ba389"><path d="M 61.777344 64 L 86.820312 64 L 86.820312 83.660156 L 61.777344 83.660156 Z M 61.777344 64 " clip-rule="nonzero"/></clipPath><clipPath id="4c57e33fa5"><path d="M 66.304688 71.171875 C 78.316406 77.664062 80.257812 78.335938 80.703125 77.738281 C 81.375 76.695312 74.660156 69.679688 74.511719 67.367188 C 74.4375 66.25 74.960938 65.28125 75.554688 64.757812 C 76.152344 64.234375 77.496094 63.9375 78.316406 64.160156 C 79.0625 64.382812 80.03125 65.429688 80.332031 66.101562 C 80.554688 66.695312 80.480469 67.441406 80.332031 68.039062 C 80.105469 68.5625 79.660156 69.234375 79.136719 69.53125 C 78.464844 69.90625 77.121094 70.128906 76.375 69.832031 C 75.554688 69.53125 74.734375 68.488281 74.585938 67.667969 C 74.363281 66.847656 74.808594 65.578125 75.332031 64.980469 C 75.707031 64.457031 76.453125 64.160156 77.046875 64.085938 C 77.570312 64.011719 78.242188 64.085938 78.914062 64.382812 C 79.882812 64.980469 80.929688 66.621094 81.972656 68.265625 C 83.464844 70.503906 86.074219 74.679688 86.597656 77.066406 C 86.894531 78.558594 86.894531 79.828125 86.375 80.871094 C 85.851562 81.917969 84.359375 82.738281 83.164062 83.183594 C 82.121094 83.632812 81.152344 83.632812 79.882812 83.558594 C 78.019531 83.484375 75.332031 83.335938 72.945312 82.4375 C 69.886719 81.320312 64.960938 77.8125 63.246094 76.320312 C 62.574219 75.648438 62.128906 75.277344 61.976562 74.679688 C 61.753906 74.082031 61.753906 73.1875 62.050781 72.589844 C 62.425781 71.84375 63.46875 71.023438 64.214844 70.800781 C 64.886719 70.652344 66.304688 71.171875 66.304688 71.171875 " clip-rule="nonzero"/></clipPath><clipPath id="3a23b125d9"><path d="M 0.777344 0 L 25.820312 0 L 25.820312 19.660156 L 0.777344 19.660156 Z M 0.777344 0 " clip-rule="nonzero"/></clipPath><clipPath id="f30a41edb6"><path d="M 5.304688 7.171875 C 17.316406 13.664062 19.257812 14.335938 19.703125 13.738281 C 20.375 12.695312 13.660156 5.679688 13.511719 3.367188 C 13.4375 2.25 13.960938 1.28125 14.554688 0.757812 C 15.152344 0.234375 16.496094 -0.0625 17.316406 0.160156 C 18.0625 0.382812 19.03125 1.429688 19.332031 2.101562 C 19.554688 2.695312 19.480469 3.441406 19.332031 4.039062 C 19.105469 4.5625 18.660156 5.234375 18.136719 5.53125 C 17.464844 5.90625 16.121094 6.128906 15.375 5.832031 C 14.554688 5.53125 13.734375 4.488281 13.585938 3.667969 C 13.363281 2.847656 13.808594 1.578125 14.332031 0.980469 C 14.707031 0.457031 15.453125 0.160156 16.046875 0.0859375 C 16.570312 0.0117188 17.242188 0.0859375 17.914062 0.382812 C 18.882812 0.980469 19.929688 2.621094 20.972656 4.265625 C 22.464844 6.503906 25.074219 10.679688 25.597656 13.066406 C 25.894531 14.558594 25.894531 15.828125 25.375 16.871094 C 24.851562 17.917969 23.359375 18.738281 22.164062 19.183594 C 21.121094 19.632812 20.152344 19.632812 18.882812 19.558594 C 17.019531 19.484375 14.332031 19.335938 11.945312 18.4375 C 8.886719 17.320312 3.960938 13.8125 2.246094 12.320312 C 1.574219 11.648438 1.128906 11.277344 0.976562 10.679688 C 0.753906 10.082031 0.753906 9.1875 1.050781 8.589844 C 1.425781 7.84375 2.46875 7.023438 3.214844 6.800781 C 3.886719 6.652344 5.304688 7.171875 5.304688 7.171875 " clip-rule="nonzero"/></clipPath><clipPath id="6600a06308"><rect x="0" width="26" y="0" height="20"/></clipPath></defs><g clip-path="url(#6419cf9e51)"><g clip-path="url(#e1d73cf51a)"><g transform="matrix(1, 0, 0, 1, 31, 2)"><g clip-path="url(#7110d7c2bc)"><g clip-path="url(#3b59c392e0)"><g clip-path="url(#4cc461e0dc)"><rect x="-52.285" width="139.32" fill="#dbdbdb" height="136.079996" y="-22.789999" fill-opacity="1"/></g></g></g></g></g></g><g clip-path="url(#52f6eb829b)"><g clip-path="url(#3b254f4a72)"><g transform="matrix(1, 0, 0, 1, 58, 31)"><g clip-path="url(#454308339f)"><g clip-path="url(#ed1cfddfb4)"><g clip-path="url(#572d96a325)"><rect x="-79.285" width="139.32" fill="#dbdbdb" height="136.079996" y="-51.789999" fill-opacity="1"/></g></g></g></g></g></g><g clip-path="url(#163fadecc0)"><g clip-path="url(#a7a6b0e616)"><g transform="matrix(1, 0, 0, 1, 31, 57)"><g clip-path="url(#a9e64c1edf)"><g clip-path="url(#abed6ccf94)"><g clip-path="url(#cf9f2e2a84)"><rect x="-52.285" width="139.32" fill="#dbdbdb" height="136.079996" y="-77.789999" fill-opacity="1"/></g></g></g></g></g></g><g clip-path="url(#f52beb68d8)"><g clip-path="url(#9a22f9c57d)"><g transform="matrix(1, 0, 0, 1, 2, 31)"><g clip-path="url(#605bb36e49)"><g clip-path="url(#9059cbf149)"><g clip-path="url(#fb4c077fa8)"><rect x="-23.285" width="139.32" fill="#dbdbdb" height="136.079996" y="-51.789999" fill-opacity="1"/></g></g></g></g></g></g><g clip-path="url(#d6e89d43d0)"><g clip-path="url(#7aa7ccac17)"><g transform="matrix(1, 0, 0, 1, 11, 10)"><g clip-path="url(#14d24f7d14)"><g clip-path="url(#e70afb6e2d)"><g clip-path="url(#342001cbfa)"><rect x="-32.285" width="139.32" fill="#dbdbdb" height="136.079996" y="-30.789999" fill-opacity="1"/></g></g></g></g></g></g><g clip-path="url(#8293afda91)"><g clip-path="url(#9420a43fb2)"><g transform="matrix(1, 0, 0, 1, 61, 9)"><g clip-path="url(#b68f65d125)"><g clip-path="url(#b6eb1725fe)"><g clip-path="url(#797c8e7986)"><rect x="-82.285" width="139.32" fill="#dbdbdb" height="136.079996" y="-29.789999" fill-opacity="1"/></g></g></g></g></g></g><g clip-path="url(#0fbb6a6ef8)"><g clip-path="url(#35740b7544)"><g transform="matrix(1, 0, 0, 1, 62, 20)"><g clip-path="url(#089b0a3679)"><g clip-path="url(#ca79d119b5)"><g clip-path="url(#3ed4be9639)"><rect x="-83.285" width="139.32" fill="#dbdbdb" height="136.079996" y="-40.789999" fill-opacity="1"/></g></g></g></g></g></g><g clip-path="url(#b45e846020)"><g clip-path="url(#4b16d49f16)"><g transform="matrix(1, 0, 0, 1, 19, 62)"><g clip-path="url(#9651c698d7)"><g clip-path="url(#01e0d32d68)"><g clip-path="url(#adbff4d6e6)"><rect x="-40.285" width="139.32" fill="#dbdbdb" height="136.079996" y="-82.789999" fill-opacity="1"/></g></g></g></g></g></g><g clip-path="url(#62d75deb81)"><g clip-path="url(#53d52b6db5)"><g transform="matrix(1, 0, 0, 1, 11, 63)"><g clip-path="url(#85ef7f8e34)"><g clip-path="url(#de71fefc5c)"><g clip-path="url(#1531de4843)"><rect x="-32.285" width="139.32" fill="#dbdbdb" height="136.079996" y="-83.789999" fill-opacity="1"/></g></g></g></g></g></g><g clip-path="url(#ac2802c54e)"><g clip-path="url(#f4bd0cc2b5)"><g transform="matrix(1, 0, 0, 1, 61, 61)"><g clip-path="url(#7c4c0748b3)"><g clip-path="url(#44c5c00055)"><g clip-path="url(#3511a3dcd6)"><rect x="-82.285" width="139.32" fill="#dbdbdb" height="136.079996" y="-81.789999" fill-opacity="1"/></g></g></g></g></g></g><g clip-path="url(#58ec9ba389)"><g clip-path="url(#4c57e33fa5)"><g transform="matrix(1, 0, 0, 1, 61, 64)"><g clip-path="url(#6600a06308)"><g clip-path="url(#3a23b125d9)"><g clip-path="url(#f30a41edb6)"><rect x="-82.285" width="139.32" fill="#dbdbdb" height="136.079996" y="-84.789999" fill-opacity="1"/></g></g></g></g></g></g></svg>