<svg xmlns="http://www.w3.org/2000/svg" xmlns:xlink="http://www.w3.org/1999/xlink" width="308" zoomAndPan="magnify" viewBox="0 0 230.87999 231" height="308" preserveAspectRatio="xMidYMid meet" version="1.0"><defs><clipPath id="209b16f577"><path d="M 0 0.0585938 L 230.128906 0.0585938 L 230.128906 230.191406 L 0 230.191406 Z M 0 0.0585938 " clip-rule="nonzero"/></clipPath><clipPath id="aaab1618ad"><path d="M 0.0664062 0.0585938 L 230.195312 0.0585938 L 230.195312 230.191406 L 0.0664062 230.191406 Z M 0.0664062 0.0585938 " clip-rule="nonzero"/></clipPath></defs><path fill="#eeeeee" d="M 198.128906 174.414062 L 196.460938 174.414062 L 196.460938 171.027344 L 198.570312 171.027344 C 199.664062 171.027344 200.910156 171.199219 200.910156 172.628906 C 200.910156 174.269531 199.65625 174.402344 198.128906 174.402344 Z M 198.128906 174.414062 " fill-opacity="1" fill-rule="nonzero"/><path fill="#eeeeee" d="M 198.023438 166.679688 C 193.484375 166.757812 189.867188 170.5 189.933594 175.039062 C 190.011719 179.574219 193.753906 183.203125 198.292969 183.125 C 198.292969 183.125 198.503906 183.125 198.503906 183.125 C 202.945312 183.03125 206.464844 179.355469 206.378906 174.914062 L 206.378906 174.777344 C 206.304688 170.238281 202.5625 166.613281 198.023438 166.691406 Z M 200.996094 179.902344 L 198.261719 175.59375 L 198.226562 175.546875 L 196.460938 175.546875 L 196.460938 179.902344 L 195.03125 179.902344 L 195.03125 169.894531 L 198.847656 169.894531 C 201.207031 169.894531 202.371094 170.804688 202.371094 172.714844 C 202.371094 172.773438 202.371094 172.832031 202.371094 172.886719 C 202.359375 174.296875 201.457031 175.441406 199.597656 175.441406 L 202.550781 179.902344 Z M 200.996094 179.902344 " fill-opacity="1" fill-rule="nonzero"/><g clip-path="url(#209b16f577)"><path fill="#eeeeee" d="M 115.136719 0.0585938 C 51.550781 0.0585938 0 51.613281 0 115.195312 C 0 178.777344 51.550781 230.332031 115.136719 230.332031 C 178.71875 230.332031 230.269531 178.777344 230.269531 115.195312 C 230.269531 51.613281 178.71875 0.0585938 115.136719 0.0585938 Z M 182.652344 173.300781 C 182.574219 178.847656 178.019531 183.296875 172.464844 183.222656 L 55.265625 183.222656 C 49.730469 183.277344 45.179688 178.835938 45.113281 173.300781 L 45.113281 55.613281 C 45.179688 50.078125 49.71875 45.632812 55.265625 45.703125 L 172.464844 45.703125 C 178.007812 45.617188 182.566406 50.058594 182.652344 55.601562 Z M 198.484375 184.199219 C 193.304688 184.246094 189.0625 180.09375 189.015625 174.914062 C 188.964844 169.742188 193.121094 165.5 198.300781 165.441406 L 198.484375 165.441406 C 203.589844 165.492188 207.722656 169.625 207.773438 174.730469 C 207.820312 179.902344 203.664062 184.140625 198.484375 184.199219 Z M 137.847656 95.621094 C 129.949219 95.335938 122.53125 99.402344 118.542969 106.222656 L 118.273438 106.222656 L 118.273438 97.253906 L 98.710938 97.253906 L 98.710938 162.878906 L 119.089844 162.878906 L 119.089844 130.421875 C 119.089844 121.855469 120.710938 113.574219 131.332031 113.574219 C 141.789062 113.574219 141.921875 123.371094 141.921875 130.980469 L 141.921875 162.890625 L 162.300781 162.890625 L 162.300781 126.890625 C 162.300781 109.207031 158.503906 95.632812 137.847656 95.632812 Z M 65.503906 162.878906 L 85.902344 162.878906 L 85.902344 97.253906 L 65.503906 97.253906 Z M 75.710938 64.632812 C 69.175781 64.632812 63.882812 69.929688 63.882812 76.460938 C 63.882812 82.996094 69.175781 88.28125 75.710938 88.28125 C 82.246094 88.28125 87.542969 82.988281 87.542969 76.453125 C 87.542969 69.917969 82.246094 64.621094 75.710938 64.632812 Z M 75.710938 64.632812 " fill-opacity="1" fill-rule="nonzero"/></g><path fill="#eeeeee" d="M 198.195312 174.414062 L 196.523438 174.414062 L 196.523438 171.027344 L 198.636719 171.027344 C 199.730469 171.027344 200.976562 171.199219 200.976562 172.628906 C 200.976562 174.269531 199.71875 174.402344 198.195312 174.402344 Z M 198.195312 174.414062 " fill-opacity="1" fill-rule="nonzero"/><path fill="#eeeeee" d="M 198.089844 166.679688 C 193.550781 166.757812 189.933594 170.5 190 175.039062 C 190.078125 179.574219 193.820312 183.203125 198.359375 183.125 C 198.359375 183.125 198.570312 183.125 198.570312 183.125 C 203.011719 183.03125 206.53125 179.355469 206.445312 174.914062 L 206.445312 174.777344 C 206.371094 170.238281 202.628906 166.613281 198.089844 166.691406 Z M 201.0625 179.902344 L 198.328125 175.59375 L 198.289062 175.546875 L 196.523438 175.546875 L 196.523438 179.902344 L 195.09375 179.902344 L 195.09375 169.894531 L 198.914062 169.894531 C 201.273438 169.894531 202.4375 170.804688 202.4375 172.714844 C 202.4375 172.773438 202.4375 172.832031 202.4375 172.886719 C 202.425781 174.296875 201.523438 175.441406 199.664062 175.441406 L 202.617188 179.902344 Z M 201.0625 179.902344 " fill-opacity="1" fill-rule="nonzero"/><g clip-path="url(#aaab1618ad)"><path fill="#eeeeee" d="M 115.203125 0.0585938 C 51.617188 0.0585938 0.0664062 51.613281 0.0664062 115.195312 C 0.0664062 178.777344 51.617188 230.332031 115.203125 230.332031 C 178.785156 230.332031 230.335938 178.777344 230.335938 115.195312 C 230.335938 51.613281 178.785156 0.0585938 115.203125 0.0585938 Z M 182.71875 173.300781 C 182.640625 178.847656 178.085938 183.296875 172.527344 183.222656 L 55.332031 183.222656 C 49.792969 183.277344 45.246094 178.835938 45.179688 173.300781 L 45.179688 55.613281 C 45.246094 50.078125 49.785156 45.632812 55.332031 45.703125 L 172.527344 45.703125 C 178.074219 45.617188 182.632812 50.058594 182.71875 55.601562 Z M 198.550781 184.199219 C 193.367188 184.246094 189.128906 180.09375 189.078125 174.914062 C 189.03125 169.742188 193.1875 165.5 198.367188 165.441406 L 198.550781 165.441406 C 203.652344 165.492188 207.789062 169.625 207.835938 174.730469 C 207.886719 179.902344 203.730469 184.140625 198.550781 184.199219 Z M 137.910156 95.621094 C 130.015625 95.335938 122.597656 99.402344 118.605469 106.222656 L 118.339844 106.222656 L 118.339844 97.253906 L 98.773438 97.253906 L 98.773438 162.878906 L 119.152344 162.878906 L 119.152344 130.421875 C 119.152344 121.855469 120.777344 113.574219 131.398438 113.574219 C 141.855469 113.574219 141.988281 123.371094 141.988281 130.980469 L 141.988281 162.890625 L 162.367188 162.890625 L 162.367188 126.890625 C 162.367188 109.207031 158.570312 95.632812 137.910156 95.632812 Z M 65.566406 162.878906 L 85.964844 162.878906 L 85.964844 97.253906 L 65.566406 97.253906 Z M 75.777344 64.632812 C 69.242188 64.632812 63.945312 69.929688 63.945312 76.460938 C 63.945312 82.996094 69.242188 88.28125 75.777344 88.28125 C 82.3125 88.28125 87.605469 82.988281 87.605469 76.453125 C 87.605469 69.917969 82.3125 64.621094 75.777344 64.632812 Z M 75.777344 64.632812 " fill-opacity="1" fill-rule="nonzero"/></g></svg>