<svg xmlns="http://www.w3.org/2000/svg" xmlns:xlink="http://www.w3.org/1999/xlink" width="308" zoomAndPan="magnify" viewBox="0 0 230.87999 231" height="308" preserveAspectRatio="xMidYMid meet" version="1.0"><defs><clipPath id="f2d5eaafc2"><path d="M 0 2 L 230.128906 2 L 230.128906 228 L 0 228 Z M 0 2 " clip-rule="nonzero"/></clipPath><clipPath id="024e258df1"><path d="M 0.0664062 2 L 230.195312 2 L 230.195312 228 L 0.0664062 228 Z M 0.0664062 2 " clip-rule="nonzero"/></clipPath></defs><g clip-path="url(#f2d5eaafc2)"><path fill="#eeeeee" d="M 115.136719 2.898438 C 51.550781 2.898438 0 54.441406 0 118.035156 C 0 168.90625 32.984375 212.0625 78.734375 227.289062 C 84.492188 228.355469 86.601562 224.792969 86.601562 221.753906 C 86.601562 219.007812 86.496094 209.941406 86.449219 200.320312 C 54.421875 207.285156 47.65625 186.734375 47.65625 186.734375 C 42.417969 173.425781 34.875 169.886719 34.875 169.886719 C 24.429688 162.738281 35.664062 162.890625 35.664062 162.890625 C 47.226562 163.707031 53.308594 174.757812 53.308594 174.757812 C 63.574219 192.355469 80.238281 187.269531 86.8125 184.324219 C 87.847656 176.878906 90.832031 171.804688 94.125 168.925781 C 68.554688 166.019531 41.667969 156.144531 41.667969 112.027344 C 41.667969 99.460938 46.167969 89.183594 53.539062 81.125 C 52.339844 78.21875 48.394531 66.511719 54.652344 50.652344 C 54.652344 50.652344 64.324219 47.5625 86.324219 62.453125 C 95.503906 59.902344 105.347656 58.625 115.136719 58.578125 C 124.921875 58.625 134.777344 59.902344 143.976562 62.453125 C 165.949219 47.554688 175.609375 50.652344 175.609375 50.652344 C 181.875 66.511719 177.933594 78.21875 176.742188 81.125 C 184.121094 89.183594 188.59375 99.460938 188.59375 112.027344 C 188.59375 156.25 161.660156 165.988281 136.023438 168.839844 C 140.148438 172.410156 143.832031 179.421875 143.832031 190.160156 C 143.832031 205.566406 143.699219 217.964844 143.699219 221.753906 C 143.699219 224.8125 145.769531 228.410156 151.605469 227.28125 C 197.332031 212.035156 230.28125 168.898438 230.28125 118.046875 C 230.269531 54.453125 178.71875 2.898438 115.136719 2.898438 Z M 115.136719 2.898438 " fill-opacity="1" fill-rule="evenodd"/></g><path fill="#eeeeee" d="M 43.609375 168.214844 C 43.359375 168.792969 42.457031 168.964844 41.632812 168.570312 C 40.796875 168.195312 40.328125 167.410156 40.59375 166.84375 C 40.84375 166.257812 41.746094 166.09375 42.582031 166.488281 C 43.414062 166.851562 43.894531 167.640625 43.609375 168.214844 Z M 43.609375 168.214844 " fill-opacity="1" fill-rule="nonzero"/><path fill="#eeeeee" d="M 48.269531 173.414062 C 47.722656 173.925781 46.648438 173.683594 45.917969 172.886719 C 45.160156 172.082031 45.027344 171.007812 45.585938 170.5 C 46.148438 169.992188 47.1875 170.230469 47.945312 171.035156 C 48.703125 171.832031 48.847656 172.898438 48.269531 173.414062 Z M 48.269531 173.414062 " fill-opacity="1" fill-rule="nonzero"/><path fill="#eeeeee" d="M 52.808594 180.046875 C 52.097656 180.535156 50.949219 180.074219 50.238281 179.058594 C 49.527344 178.03125 49.527344 176.800781 50.257812 176.3125 C 50.964844 175.824219 52.109375 176.265625 52.828125 177.28125 C 53.527344 178.320312 53.527344 179.546875 52.808594 180.046875 Z M 52.808594 180.046875 " fill-opacity="1" fill-rule="nonzero"/><path fill="#eeeeee" d="M 59.027344 186.453125 C 58.394531 187.15625 57.050781 186.964844 56.070312 186.011719 C 55.0625 185.082031 54.785156 183.769531 55.417969 183.066406 C 56.0625 182.367188 57.414062 182.570312 58.402344 183.507812 C 59.398438 184.441406 59.699219 185.765625 59.027344 186.453125 Z M 59.027344 186.453125 " fill-opacity="1" fill-rule="nonzero"/><path fill="#eeeeee" d="M 67.613281 190.167969 C 67.335938 191.070312 66.039062 191.480469 64.734375 191.097656 C 63.429688 190.707031 62.574219 189.648438 62.84375 188.738281 C 63.113281 187.828125 64.417969 187.40625 65.734375 187.816406 C 67.027344 188.199219 67.882812 189.257812 67.613281 190.167969 Z M 67.613281 190.167969 " fill-opacity="1" fill-rule="nonzero"/><path fill="#eeeeee" d="M 77.035156 190.859375 C 77.0625 191.808594 75.960938 192.59375 74.589844 192.613281 C 73.214844 192.644531 72.09375 191.875 72.085938 190.945312 C 72.085938 189.984375 73.167969 189.207031 74.539062 189.179688 C 75.914062 189.152344 77.035156 189.917969 77.035156 190.859375 Z M 77.035156 190.859375 " fill-opacity="1" fill-rule="nonzero"/><path fill="#eeeeee" d="M 85.804688 189.371094 C 85.96875 190.292969 85.019531 191.253906 83.65625 191.5 C 82.320312 191.75 81.085938 191.175781 80.910156 190.253906 C 80.75 189.304688 81.71875 188.355469 83.050781 188.105469 C 84.402344 187.863281 85.632812 188.421875 85.804688 189.371094 Z M 85.804688 189.371094 " fill-opacity="1" fill-rule="nonzero"/><g clip-path="url(#024e258df1)"><path fill="#eeeeee" d="M 115.203125 2.898438 C 51.617188 2.898438 0.0664062 54.441406 0.0664062 118.035156 C 0.0664062 168.90625 33.050781 212.0625 78.800781 227.289062 C 84.554688 228.355469 86.667969 224.792969 86.667969 221.753906 C 86.667969 219.007812 86.5625 209.941406 86.511719 200.320312 C 54.488281 207.285156 47.722656 186.734375 47.722656 186.734375 C 42.484375 173.425781 34.941406 169.886719 34.941406 169.886719 C 24.492188 162.738281 35.730469 162.890625 35.730469 162.890625 C 47.289062 163.707031 53.375 174.757812 53.375 174.757812 C 63.640625 192.355469 80.304688 187.269531 86.878906 184.324219 C 87.914062 176.878906 90.898438 171.804688 94.1875 168.925781 C 68.621094 166.019531 41.734375 156.144531 41.734375 112.027344 C 41.734375 99.460938 46.234375 89.183594 53.605469 81.125 C 52.40625 78.21875 48.460938 66.511719 54.714844 50.652344 C 54.714844 50.652344 64.386719 47.5625 86.386719 62.453125 C 95.570312 59.902344 105.414062 58.625 115.203125 58.578125 C 124.988281 58.625 134.839844 59.902344 144.042969 62.453125 C 166.015625 47.554688 175.675781 50.652344 175.675781 50.652344 C 181.941406 66.511719 178 78.21875 176.808594 81.125 C 184.1875 89.183594 188.65625 99.460938 188.65625 112.027344 C 188.65625 156.25 161.726562 165.988281 136.089844 168.839844 C 140.214844 172.410156 143.898438 179.421875 143.898438 190.160156 C 143.898438 205.566406 143.765625 217.964844 143.765625 221.753906 C 143.765625 224.8125 145.835938 228.410156 151.671875 227.28125 C 197.398438 212.035156 230.347656 168.898438 230.347656 118.046875 C 230.335938 54.453125 178.785156 2.898438 115.203125 2.898438 Z M 115.203125 2.898438 " fill-opacity="1" fill-rule="evenodd"/></g><path fill="#eeeeee" d="M 43.671875 168.214844 C 43.425781 168.792969 42.523438 168.964844 41.695312 168.570312 C 40.863281 168.195312 40.390625 167.410156 40.660156 166.84375 C 40.910156 166.257812 41.8125 166.09375 42.648438 166.488281 C 43.480469 166.851562 43.960938 167.640625 43.671875 168.214844 Z M 43.671875 168.214844 " fill-opacity="1" fill-rule="nonzero"/><path fill="#eeeeee" d="M 48.335938 173.414062 C 47.789062 173.925781 46.714844 173.683594 45.984375 172.886719 C 45.226562 172.082031 45.09375 171.007812 45.648438 170.5 C 46.214844 169.992188 47.253906 170.230469 48.011719 171.035156 C 48.769531 171.832031 48.910156 172.898438 48.335938 173.414062 Z M 48.335938 173.414062 " fill-opacity="1" fill-rule="nonzero"/><path fill="#eeeeee" d="M 52.875 180.046875 C 52.164062 180.535156 51.011719 180.074219 50.304688 179.058594 C 49.59375 178.03125 49.59375 176.800781 50.324219 176.3125 C 51.03125 175.824219 52.175781 176.265625 52.894531 177.28125 C 53.59375 178.320312 53.59375 179.546875 52.875 180.046875 Z M 52.875 180.046875 " fill-opacity="1" fill-rule="nonzero"/><path fill="#eeeeee" d="M 59.09375 186.453125 C 58.457031 187.15625 57.117188 186.964844 56.136719 186.011719 C 55.128906 185.082031 54.851562 183.769531 55.484375 183.066406 C 56.128906 182.367188 57.480469 182.570312 58.46875 183.507812 C 59.464844 184.441406 59.761719 185.765625 59.09375 186.453125 Z M 59.09375 186.453125 " fill-opacity="1" fill-rule="nonzero"/><path fill="#eeeeee" d="M 67.679688 190.167969 C 67.402344 191.070312 66.105469 191.480469 64.800781 191.097656 C 63.496094 190.707031 62.640625 189.648438 62.910156 188.738281 C 63.179688 187.828125 64.484375 187.40625 65.796875 187.816406 C 67.09375 188.199219 67.949219 189.257812 67.679688 190.167969 Z M 67.679688 190.167969 " fill-opacity="1" fill-rule="nonzero"/><path fill="#eeeeee" d="M 77.101562 190.859375 C 77.128906 191.808594 76.027344 192.59375 74.65625 192.613281 C 73.28125 192.644531 72.160156 191.875 72.148438 190.945312 C 72.148438 189.984375 73.234375 189.207031 74.605469 189.179688 C 75.976562 189.152344 77.101562 189.917969 77.101562 190.859375 Z M 77.101562 190.859375 " fill-opacity="1" fill-rule="nonzero"/><path fill="#eeeeee" d="M 85.871094 189.371094 C 86.035156 190.292969 85.082031 191.253906 83.722656 191.5 C 82.386719 191.75 81.148438 191.175781 80.976562 190.253906 C 80.8125 189.304688 81.78125 188.355469 83.117188 188.105469 C 84.46875 187.863281 85.699219 188.421875 85.871094 189.371094 Z M 85.871094 189.371094 " fill-opacity="1" fill-rule="nonzero"/></svg>