<svg xmlns="http://www.w3.org/2000/svg" xmlns:xlink="http://www.w3.org/1999/xlink" width="308" zoomAndPan="magnify" viewBox="0 0 230.87999 231" height="308" preserveAspectRatio="xMidYMid meet" version="1.0"><defs><clipPath id="c5ceb00fc2"><path d="M 0 0.0585938 L 230.128906 0.0585938 L 230.128906 230.191406 L 0 230.191406 Z M 0 0.0585938 " clip-rule="nonzero"/></clipPath><clipPath id="dad93f322a"><path d="M 0.0664062 0.0585938 L 230.195312 0.0585938 L 230.195312 230.191406 L 0.0664062 230.191406 Z M 0.0664062 0.0585938 " clip-rule="nonzero"/></clipPath></defs><path fill="#eeeeee" d="M 98.421875 90.890625 L 141.136719 115.195312 L 98.421875 139.5 Z M 98.421875 90.890625 " fill-opacity="1" fill-rule="nonzero"/><g clip-path="url(#c5ceb00fc2)"><path fill="#eeeeee" d="M 115.136719 0.0585938 C 51.550781 0.0585938 0 51.613281 0 115.195312 C 0 178.777344 51.550781 230.332031 115.136719 230.332031 C 178.71875 230.332031 230.269531 178.777344 230.269531 115.195312 C 230.269531 51.613281 178.71875 0.0585938 115.136719 0.0585938 Z M 193.425781 154.78125 C 191.554688 161.855469 186.011719 167.429688 178.976562 169.328125 C 166.238281 172.761719 115.136719 172.761719 115.136719 172.761719 C 115.136719 172.761719 64.035156 172.761719 51.292969 169.328125 C 44.261719 167.4375 38.722656 161.863281 36.84375 154.78125 C 33.417969 141.953125 33.417969 115.195312 33.417969 115.195312 C 33.417969 115.195312 33.417969 88.4375 36.84375 75.609375 C 38.714844 68.535156 44.261719 62.960938 51.292969 61.070312 C 64.035156 57.636719 115.136719 57.636719 115.136719 57.636719 C 115.136719 57.636719 166.238281 57.636719 178.976562 61.070312 C 186.011719 62.960938 191.546875 68.535156 193.425781 75.609375 C 196.84375 88.4375 196.84375 115.195312 196.84375 115.195312 C 196.84375 115.195312 196.84375 141.953125 193.425781 154.78125 Z M 193.425781 154.78125 " fill-opacity="1" fill-rule="nonzero"/></g><path fill="#eeeeee" d="M 98.488281 90.890625 L 141.203125 115.195312 L 98.488281 139.5 Z M 98.488281 90.890625 " fill-opacity="1" fill-rule="nonzero"/><g clip-path="url(#dad93f322a)"><path fill="#eeeeee" d="M 115.203125 0.0585938 C 51.617188 0.0585938 0.0664062 51.613281 0.0664062 115.195312 C 0.0664062 178.777344 51.617188 230.332031 115.203125 230.332031 C 178.785156 230.332031 230.335938 178.777344 230.335938 115.195312 C 230.335938 51.613281 178.785156 0.0585938 115.203125 0.0585938 Z M 193.492188 154.78125 C 191.621094 161.855469 186.078125 167.429688 179.042969 169.328125 C 166.300781 172.761719 115.203125 172.761719 115.203125 172.761719 C 115.203125 172.761719 64.101562 172.761719 51.359375 169.328125 C 44.324219 167.4375 38.789062 161.863281 36.910156 154.78125 C 33.484375 141.953125 33.484375 115.195312 33.484375 115.195312 C 33.484375 115.195312 33.484375 88.4375 36.910156 75.609375 C 38.78125 68.535156 44.324219 62.960938 51.359375 61.070312 C 64.101562 57.636719 115.203125 57.636719 115.203125 57.636719 C 115.203125 57.636719 166.300781 57.636719 179.042969 61.070312 C 186.078125 62.960938 191.613281 68.535156 193.492188 75.609375 C 196.910156 88.4375 196.910156 115.195312 196.910156 115.195312 C 196.910156 115.195312 196.910156 141.953125 193.492188 154.78125 Z M 193.492188 154.78125 " fill-opacity="1" fill-rule="nonzero"/></g></svg>