<svg xmlns="http://www.w3.org/2000/svg" xmlns:xlink="http://www.w3.org/1999/xlink" width="151" zoomAndPan="magnify" viewBox="0 0 113.25 91.499997" height="122" preserveAspectRatio="xMidYMid meet" version="1.0"><defs><clipPath id="b157838906"><path d="M 1.738281 3 L 86.253906 3 L 86.253906 88.390625 L 1.738281 88.390625 Z M 1.738281 3 " clip-rule="nonzero"/></clipPath><clipPath id="70ffb81bff"><path d="M 28.535156 11.527344 C 14.976562 9.140625 11.847656 11.078125 10.578125 12.644531 C 9.6875 13.761719 9.6875 14.359375 9.386719 16.371094 C 8.121094 24.191406 7.152344 68.300781 8.941406 75.15625 C 9.386719 76.71875 9.535156 77.09375 10.503906 77.910156 C 12.515625 79.550781 17.136719 81.042969 22.5 81.933594 C 32.484375 83.574219 55.65625 82.605469 66.832031 82.011719 C 73.613281 81.636719 80.617188 79.773438 83.296875 80.148438 C 84.191406 80.222656 84.566406 80.371094 85.011719 80.816406 C 85.609375 81.414062 86.128906 82.605469 86.054688 83.425781 C 85.980469 84.246094 85.085938 85.363281 84.492188 85.734375 C 83.894531 86.109375 83.148438 86.109375 82.554688 86.035156 C 81.957031 85.957031 81.285156 85.585938 80.914062 85.140625 C 80.46875 84.691406 80.167969 84.023438 80.09375 83.425781 C 80.09375 82.828125 80.167969 82.085938 80.542969 81.5625 C 80.988281 80.890625 82.179688 80.222656 82.925781 80.148438 C 83.597656 80.074219 84.265625 80.296875 84.789062 80.667969 C 85.308594 80.964844 85.757812 81.5625 85.90625 82.160156 C 86.128906 82.902344 85.832031 84.246094 85.460938 84.914062 C 85.085938 85.4375 84.640625 85.660156 83.820312 85.957031 C 82.253906 86.628906 79.796875 87 76.070312 87.375 C 67.203125 88.195312 40.308594 88.195312 30.25 87.96875 C 25.332031 87.820312 22.800781 87.96875 19.296875 87.375 C 15.871094 86.703125 11.699219 85.289062 9.460938 84.320312 C 8.195312 83.722656 7.601562 83.203125 6.707031 82.53125 C 5.738281 81.859375 4.621094 81.191406 3.949219 80.222656 C 3.351562 79.253906 3.277344 78.507812 2.980469 76.496094 C 2.011719 68.300781 0.894531 24.265625 3.652344 14.132812 C 4.542969 10.558594 5.664062 9.140625 7.375 7.429688 C 9.164062 5.640625 12.144531 4.449219 14.007812 3.777344 C 15.273438 3.257812 15.871094 3.03125 17.359375 3.03125 C 20.339844 3.03125 28.984375 4.820312 30.921875 6.238281 C 31.664062 6.832031 31.890625 7.429688 31.964844 8.097656 C 32.113281 8.695312 32.039062 9.589844 31.589844 10.183594 C 31.070312 10.855469 28.535156 11.527344 28.535156 11.527344 " clip-rule="nonzero"/></clipPath><clipPath id="a61b43b0e0"><path d="M 0.738281 0 L 85.253906 0 L 85.253906 85.269531 L 0.738281 85.269531 Z M 0.738281 0 " clip-rule="nonzero"/></clipPath><clipPath id="d91b3c2324"><path d="M 27.535156 8.527344 C 13.976562 6.140625 10.847656 8.078125 9.578125 9.644531 C 8.6875 10.761719 8.6875 11.359375 8.386719 13.371094 C 7.121094 21.191406 6.152344 65.300781 7.941406 72.15625 C 8.386719 73.71875 8.535156 74.09375 9.503906 74.910156 C 11.515625 76.550781 16.136719 78.042969 21.5 78.933594 C 31.484375 80.574219 54.65625 79.605469 65.832031 79.011719 C 72.613281 78.636719 79.617188 76.773438 82.296875 77.148438 C 83.191406 77.222656 83.566406 77.371094 84.011719 77.816406 C 84.609375 78.414062 85.128906 79.605469 85.054688 80.425781 C 84.980469 81.246094 84.085938 82.363281 83.492188 82.734375 C 82.894531 83.109375 82.148438 83.109375 81.554688 83.035156 C 80.957031 82.957031 80.285156 82.585938 79.914062 82.140625 C 79.46875 81.691406 79.167969 81.023438 79.09375 80.425781 C 79.09375 79.828125 79.167969 79.085938 79.542969 78.5625 C 79.988281 77.890625 81.179688 77.222656 81.925781 77.148438 C 82.597656 77.074219 83.265625 77.296875 83.789062 77.667969 C 84.308594 77.964844 84.757812 78.5625 84.90625 79.160156 C 85.128906 79.902344 84.832031 81.246094 84.460938 81.914062 C 84.085938 82.4375 83.640625 82.660156 82.820312 82.957031 C 81.253906 83.628906 78.796875 84 75.070312 84.375 C 66.203125 85.195312 39.308594 85.195312 29.25 84.96875 C 24.332031 84.820312 21.800781 84.96875 18.296875 84.375 C 14.871094 83.703125 10.699219 82.289062 8.460938 81.320312 C 7.195312 80.722656 6.601562 80.203125 5.707031 79.53125 C 4.738281 78.859375 3.621094 78.191406 2.949219 77.222656 C 2.351562 76.253906 2.277344 75.507812 1.980469 73.496094 C 1.011719 65.300781 -0.105469 21.265625 2.652344 11.132812 C 3.542969 7.558594 4.664062 6.140625 6.375 4.429688 C 8.164062 2.640625 11.144531 1.449219 13.007812 0.777344 C 14.273438 0.257812 14.871094 0.03125 16.359375 0.03125 C 19.339844 0.03125 27.984375 1.820312 29.921875 3.238281 C 30.664062 3.832031 30.890625 4.429688 30.964844 5.097656 C 31.113281 5.695312 31.039062 6.589844 30.589844 7.183594 C 30.070312 7.855469 27.535156 8.527344 27.535156 8.527344 " clip-rule="nonzero"/></clipPath><clipPath id="288b1c1835"><rect x="0" width="86" y="0" height="86"/></clipPath><clipPath id="16fb294f65"><path d="M 77.453125 31.683594 L 109.410156 31.683594 L 109.410156 86.90625 L 77.453125 86.90625 Z M 77.453125 31.683594 " clip-rule="nonzero"/></clipPath><clipPath id="12c14cfae2"><path d="M 80.691406 80.519531 C 97.15625 80.742188 99.914062 81.042969 101.328125 80.148438 C 102.371094 79.625 102.894531 78.957031 103.191406 77.761719 C 103.863281 75.527344 102.59375 71.726562 102.519531 67.332031 C 102.222656 59.433594 101.628906 39.316406 102.820312 34.699219 C 103.191406 33.28125 103.5625 32.6875 104.160156 32.238281 C 104.605469 31.792969 105.351562 31.644531 105.949219 31.71875 C 106.542969 31.71875 107.289062 32.015625 107.738281 32.386719 C 108.183594 32.761719 108.628906 33.429688 108.707031 34.027344 C 108.855469 34.773438 108.554688 36.113281 107.960938 36.710938 C 107.4375 37.304688 106.097656 37.679688 105.351562 37.605469 C 104.683594 37.53125 104.085938 37.15625 103.636719 36.710938 C 103.265625 36.261719 102.894531 35.59375 102.820312 34.996094 C 102.746094 34.398438 102.894531 33.65625 103.265625 33.132812 C 103.714844 32.539062 104.90625 31.792969 105.648438 31.71875 C 106.246094 31.644531 106.992188 31.792969 107.511719 32.238281 C 108.109375 32.6875 108.480469 33.28125 108.78125 34.699219 C 109.972656 39.390625 108.109375 61.074219 108.480469 68.152344 C 108.628906 71.503906 109.449219 73.144531 109.300781 75.453125 C 109.152344 77.6875 108.554688 80.296875 107.660156 81.785156 C 106.992188 82.976562 106.097656 83.574219 105.128906 84.320312 C 104.085938 85.066406 103.265625 85.660156 101.550781 86.035156 C 97.828125 87 86.800781 86.777344 83 86.628906 C 81.4375 86.628906 80.46875 86.777344 79.574219 86.332031 C 78.753906 85.882812 77.859375 85.066406 77.636719 84.320312 C 77.414062 83.5 77.636719 82.234375 78.15625 81.636719 C 78.679688 80.964844 80.691406 80.519531 80.691406 80.519531 " clip-rule="nonzero"/></clipPath><clipPath id="6292f1155a"><path d="M 0.453125 0.683594 L 32.410156 0.683594 L 32.410156 55.90625 L 0.453125 55.90625 Z M 0.453125 0.683594 " clip-rule="nonzero"/></clipPath><clipPath id="9a59955bda"><path d="M 3.691406 49.519531 C 20.15625 49.742188 22.914062 50.042969 24.328125 49.148438 C 25.371094 48.625 25.894531 47.957031 26.191406 46.761719 C 26.863281 44.527344 25.59375 40.726562 25.519531 36.332031 C 25.222656 28.433594 24.628906 8.316406 25.820312 3.699219 C 26.191406 2.28125 26.5625 1.6875 27.160156 1.238281 C 27.605469 0.792969 28.351562 0.644531 28.949219 0.71875 C 29.542969 0.71875 30.289062 1.015625 30.738281 1.386719 C 31.183594 1.761719 31.628906 2.429688 31.707031 3.027344 C 31.855469 3.773438 31.554688 5.113281 30.960938 5.710938 C 30.4375 6.304688 29.097656 6.679688 28.351562 6.605469 C 27.683594 6.53125 27.085938 6.15625 26.636719 5.710938 C 26.265625 5.261719 25.894531 4.59375 25.820312 3.996094 C 25.746094 3.398438 25.894531 2.65625 26.265625 2.132812 C 26.714844 1.539062 27.90625 0.792969 28.648438 0.71875 C 29.246094 0.644531 29.992188 0.792969 30.511719 1.238281 C 31.109375 1.6875 31.480469 2.28125 31.78125 3.699219 C 32.972656 8.390625 31.109375 30.074219 31.480469 37.152344 C 31.628906 40.503906 32.449219 42.144531 32.300781 44.453125 C 32.152344 46.6875 31.554688 49.296875 30.660156 50.785156 C 29.992188 51.976562 29.097656 52.574219 28.128906 53.320312 C 27.085938 54.066406 26.265625 54.660156 24.550781 55.035156 C 20.828125 56 9.800781 55.777344 6 55.628906 C 4.4375 55.628906 3.46875 55.777344 2.574219 55.332031 C 1.753906 54.882812 0.859375 54.066406 0.636719 53.320312 C 0.414062 52.5 0.636719 51.234375 1.15625 50.636719 C 1.679688 49.964844 3.691406 49.519531 3.691406 49.519531 " clip-rule="nonzero"/></clipPath><clipPath id="ece50492e2"><rect x="0" width="33" y="0" height="56"/></clipPath><clipPath id="54b2526dcf"><path d="M 19.460938 3.738281 L 45.191406 3.738281 L 45.191406 29.835938 L 19.460938 29.835938 Z M 19.460938 3.738281 " clip-rule="nonzero"/></clipPath><clipPath id="a325075695"><path d="M 22.054688 3.777344 C 32.78125 4.152344 34.421875 5.117188 35.613281 6.011719 C 36.507812 6.683594 36.878906 7.207031 37.625 8.472656 C 39.339844 11.152344 42.992188 19.351562 44.109375 22.554688 C 44.628906 24.191406 45.003906 25.234375 45.003906 26.277344 C 45.078125 27.023438 45.078125 27.621094 44.777344 28.140625 C 44.40625 28.8125 43.289062 29.632812 42.542969 29.78125 C 41.871094 29.929688 41.128906 29.707031 40.605469 29.484375 C 40.085938 29.183594 39.5625 28.664062 39.339844 27.992188 C 39.117188 27.320312 39.117188 25.90625 39.5625 25.234375 C 40.011719 24.566406 41.203125 23.894531 42.023438 23.894531 C 42.839844 23.820312 44.035156 24.492188 44.554688 25.085938 C 44.925781 25.609375 45.078125 26.351562 45.078125 26.949219 C 45.078125 27.546875 44.777344 28.214844 44.40625 28.738281 C 44.035156 29.183594 43.4375 29.632812 42.839844 29.78125 C 42.097656 29.855469 41.054688 29.855469 40.085938 29.035156 C 37.550781 26.875 35.6875 12.347656 31.738281 9.738281 C 28.984375 7.949219 23.917969 10.183594 21.90625 9.664062 C 21.011719 9.441406 20.488281 9.21875 20.117188 8.695312 C 19.59375 7.949219 19.371094 6.085938 19.746094 5.269531 C 20.117188 4.523438 22.054688 3.777344 22.054688 3.777344 " clip-rule="nonzero"/></clipPath><clipPath id="8d495ac8e6"><path d="M 0.460938 0.738281 L 26.191406 0.738281 L 26.191406 26.835938 L 0.460938 26.835938 Z M 0.460938 0.738281 " clip-rule="nonzero"/></clipPath><clipPath id="72354e6312"><path d="M 3.054688 0.777344 C 13.78125 1.152344 15.421875 2.117188 16.613281 3.011719 C 17.507812 3.683594 17.878906 4.207031 18.625 5.472656 C 20.339844 8.152344 23.992188 16.351562 25.109375 19.554688 C 25.628906 21.191406 26.003906 22.234375 26.003906 23.277344 C 26.078125 24.023438 26.078125 24.621094 25.777344 25.140625 C 25.40625 25.8125 24.289062 26.632812 23.542969 26.78125 C 22.871094 26.929688 22.128906 26.707031 21.605469 26.484375 C 21.085938 26.183594 20.5625 25.664062 20.339844 24.992188 C 20.117188 24.320312 20.117188 22.90625 20.5625 22.234375 C 21.011719 21.566406 22.203125 20.894531 23.023438 20.894531 C 23.839844 20.820312 25.035156 21.492188 25.554688 22.085938 C 25.925781 22.609375 26.078125 23.351562 26.078125 23.949219 C 26.078125 24.546875 25.777344 25.214844 25.40625 25.738281 C 25.035156 26.183594 24.4375 26.632812 23.839844 26.78125 C 23.097656 26.855469 22.054688 26.855469 21.085938 26.035156 C 18.550781 23.875 16.6875 9.347656 12.738281 6.738281 C 9.984375 4.949219 4.917969 7.183594 2.90625 6.664062 C 2.011719 6.441406 1.488281 6.21875 1.117188 5.695312 C 0.59375 4.949219 0.371094 3.085938 0.746094 2.269531 C 1.117188 1.523438 3.054688 0.777344 3.054688 0.777344 " clip-rule="nonzero"/></clipPath><clipPath id="ff8bd6aa94"><rect x="0" width="27" y="0" height="27"/></clipPath><clipPath id="935a3ae2e3"><path d="M 39.859375 23.519531 L 102.09375 23.519531 L 102.09375 30.53125 L 39.859375 30.53125 Z M 39.859375 23.519531 " clip-rule="nonzero"/></clipPath><clipPath id="f62349b932"><path d="M 42.839844 23.523438 C 100.808594 24.265625 101.03125 24.492188 101.402344 25.011719 C 101.777344 25.460938 102.148438 26.128906 102.074219 26.800781 C 102 27.546875 101.402344 28.8125 100.808594 29.257812 C 100.359375 29.707031 99.617188 29.929688 99.019531 29.855469 C 98.273438 29.707031 97.082031 29.035156 96.558594 28.441406 C 96.1875 27.917969 96.039062 27.246094 96.113281 26.578125 C 96.261719 25.832031 97.007812 24.714844 97.679688 24.265625 C 98.199219 23.894531 98.945312 23.820312 99.539062 23.894531 C 100.136719 23.96875 100.808594 24.265625 101.253906 24.789062 C 101.703125 25.386719 102.148438 26.652344 102 27.398438 C 101.925781 28.066406 101.550781 28.664062 101.105469 29.109375 C 100.660156 29.484375 100.359375 29.632812 99.316406 29.855469 C 93.730469 30.972656 48.726562 30.527344 42.839844 29.484375 C 41.722656 29.257812 41.351562 29.109375 40.902344 28.738281 C 40.382812 28.289062 39.933594 27.546875 39.859375 26.875 C 39.859375 26.054688 40.308594 24.789062 40.902344 24.265625 C 41.351562 23.746094 42.839844 23.523438 42.839844 23.523438 " clip-rule="nonzero"/></clipPath><clipPath id="8e73d904d2"><path d="M 0.859375 0.519531 L 63.09375 0.519531 L 63.09375 7.53125 L 0.859375 7.53125 Z M 0.859375 0.519531 " clip-rule="nonzero"/></clipPath><clipPath id="cb6ee2b8d8"><path d="M 3.839844 0.523438 C 61.808594 1.265625 62.03125 1.492188 62.402344 2.011719 C 62.777344 2.460938 63.148438 3.128906 63.074219 3.800781 C 63 4.546875 62.402344 5.8125 61.808594 6.257812 C 61.359375 6.707031 60.617188 6.929688 60.019531 6.855469 C 59.273438 6.707031 58.082031 6.035156 57.558594 5.441406 C 57.1875 4.917969 57.039062 4.246094 57.113281 3.578125 C 57.261719 2.832031 58.007812 1.714844 58.679688 1.265625 C 59.199219 0.894531 59.945312 0.820312 60.539062 0.894531 C 61.136719 0.96875 61.808594 1.265625 62.253906 1.789062 C 62.703125 2.386719 63.148438 3.652344 63 4.398438 C 62.925781 5.066406 62.550781 5.664062 62.105469 6.109375 C 61.660156 6.484375 61.359375 6.632812 60.316406 6.855469 C 54.730469 7.972656 9.726562 7.527344 3.839844 6.484375 C 2.722656 6.257812 2.351562 6.109375 1.902344 5.738281 C 1.382812 5.289062 0.933594 4.546875 0.859375 3.875 C 0.859375 3.054688 1.308594 1.789062 1.902344 1.265625 C 2.351562 0.746094 3.839844 0.523438 3.839844 0.523438 " clip-rule="nonzero"/></clipPath><clipPath id="882d3e6cec"><rect x="0" width="64" y="0" height="8"/></clipPath><clipPath id="c8f0188dbc"><path d="M 92.730469 24.871094 L 109.382812 24.871094 L 109.382812 41.347656 L 92.730469 41.347656 Z M 92.730469 24.871094 " clip-rule="nonzero"/></clipPath><clipPath id="9c7b8fa779"><path d="M 103.191406 38.421875 C 102.820312 34.175781 101.851562 30.375 100.359375 29.707031 C 99.019531 29.035156 96.410156 31.046875 95.21875 30.898438 C 94.472656 30.824219 93.953125 30.453125 93.503906 30.003906 C 93.132812 29.558594 92.835938 28.8125 92.761719 28.214844 C 92.761719 27.621094 92.910156 26.875 93.207031 26.351562 C 93.582031 25.832031 94.101562 25.386719 94.699219 25.160156 C 95.441406 24.9375 96.785156 25.085938 97.453125 25.535156 C 98.125 26.054688 98.722656 27.246094 98.722656 28.066406 C 98.796875 28.664062 98.421875 29.332031 98.050781 29.855469 C 97.679688 30.300781 97.082031 30.675781 96.484375 30.824219 C 95.890625 30.972656 95.144531 30.972656 94.550781 30.675781 C 93.878906 30.375 93.058594 29.257812 92.835938 28.515625 C 92.6875 27.917969 92.835938 27.171875 93.058594 26.652344 C 93.355469 26.128906 93.730469 25.609375 94.398438 25.308594 C 95.816406 24.714844 99.988281 24.9375 101.925781 25.386719 C 103.339844 25.757812 104.234375 26.054688 105.203125 27.023438 C 106.84375 28.738281 108.707031 33.582031 109.152344 35.816406 C 109.449219 37.15625 109.375 38.199219 109.078125 39.09375 C 108.855469 39.839844 108.40625 40.507812 107.886719 40.882812 C 107.363281 41.253906 106.46875 41.402344 105.800781 41.328125 C 105.203125 41.253906 104.382812 40.882812 103.9375 40.359375 C 103.488281 39.914062 103.191406 38.421875 103.191406 38.421875 " clip-rule="nonzero"/></clipPath><clipPath id="6f372c1044"><path d="M 0.730469 0.871094 L 17.382812 0.871094 L 17.382812 17.347656 L 0.730469 17.347656 Z M 0.730469 0.871094 " clip-rule="nonzero"/></clipPath><clipPath id="53c3b10a98"><path d="M 11.191406 14.421875 C 10.820312 10.175781 9.851562 6.375 8.359375 5.707031 C 7.019531 5.035156 4.410156 7.046875 3.21875 6.898438 C 2.472656 6.824219 1.953125 6.453125 1.503906 6.003906 C 1.132812 5.558594 0.835938 4.8125 0.761719 4.214844 C 0.761719 3.621094 0.910156 2.875 1.207031 2.351562 C 1.582031 1.832031 2.101562 1.386719 2.699219 1.160156 C 3.441406 0.9375 4.785156 1.085938 5.453125 1.535156 C 6.125 2.054688 6.722656 3.246094 6.722656 4.066406 C 6.796875 4.664062 6.421875 5.332031 6.050781 5.855469 C 5.679688 6.300781 5.082031 6.675781 4.484375 6.824219 C 3.890625 6.972656 3.144531 6.972656 2.550781 6.675781 C 1.878906 6.375 1.058594 5.257812 0.835938 4.515625 C 0.6875 3.917969 0.835938 3.171875 1.058594 2.652344 C 1.355469 2.128906 1.730469 1.609375 2.398438 1.308594 C 3.816406 0.714844 7.988281 0.9375 9.925781 1.386719 C 11.339844 1.757812 12.234375 2.054688 13.203125 3.023438 C 14.84375 4.738281 16.707031 9.582031 17.152344 11.816406 C 17.449219 13.15625 17.375 14.199219 17.078125 15.09375 C 16.855469 15.839844 16.40625 16.507812 15.886719 16.882812 C 15.363281 17.253906 14.46875 17.402344 13.800781 17.328125 C 13.203125 17.253906 12.382812 16.882812 11.9375 16.359375 C 11.488281 15.914062 11.191406 14.421875 11.191406 14.421875 " clip-rule="nonzero"/></clipPath><clipPath id="51b0597b1f"><rect x="0" width="18" y="0" height="18"/></clipPath><clipPath id="4b1dd64fc7"><path d="M 41.660156 3.601562 L 72.285156 3.601562 L 72.285156 30.609375 L 41.660156 30.609375 Z M 41.660156 3.601562 " clip-rule="nonzero"/></clipPath><clipPath id="7768b87534"><path d="M 44.332031 4.152344 C 53.347656 3.40625 57.371094 3.628906 59.53125 4 C 60.945312 4.226562 61.914062 4.300781 62.808594 4.820312 C 63.703125 5.34375 64.375 6.085938 65.117188 7.054688 C 66.011719 8.175781 66.832031 9.441406 67.726562 11.378906 C 69.214844 14.878906 72.046875 23.746094 72.195312 26.800781 C 72.195312 28.066406 72.046875 28.886719 71.601562 29.558594 C 71.226562 30.078125 70.558594 30.453125 69.960938 30.527344 C 69.140625 30.601562 67.875 30.226562 67.28125 29.78125 C 66.757812 29.332031 66.460938 28.664062 66.386719 28.066406 C 66.238281 27.472656 66.3125 26.726562 66.683594 26.203125 C 67.054688 25.535156 68.246094 24.789062 68.992188 24.640625 C 69.589844 24.492188 70.335938 24.714844 70.855469 25.011719 C 71.378906 25.386719 71.898438 25.90625 72.046875 26.503906 C 72.269531 27.246094 72.121094 28.589844 71.75 29.257812 C 71.453125 29.855469 70.78125 30.226562 70.257812 30.453125 C 69.664062 30.601562 68.917969 30.601562 68.324219 30.453125 C 67.800781 30.226562 67.355469 30.003906 66.832031 29.257812 C 65.269531 27.023438 63.332031 15.847656 61.765625 12.71875 C 61.09375 11.378906 60.796875 10.632812 59.753906 10.035156 C 58.113281 9.066406 54.6875 9.367188 52.082031 9.367188 C 49.398438 9.367188 45.300781 10.484375 43.660156 9.886719 C 42.839844 9.664062 42.394531 9.066406 42.097656 8.546875 C 41.796875 7.949219 41.574219 7.054688 41.796875 6.460938 C 42.097656 5.566406 44.332031 4.152344 44.332031 4.152344 " clip-rule="nonzero"/></clipPath><clipPath id="0eec7fa657"><path d="M 0.660156 0.601562 L 31.285156 0.601562 L 31.285156 27.609375 L 0.660156 27.609375 Z M 0.660156 0.601562 " clip-rule="nonzero"/></clipPath><clipPath id="a7a3dd1b2f"><path d="M 3.332031 1.152344 C 12.347656 0.40625 16.371094 0.628906 18.53125 1 C 19.945312 1.226562 20.914062 1.300781 21.808594 1.820312 C 22.703125 2.34375 23.375 3.085938 24.117188 4.054688 C 25.011719 5.175781 25.832031 6.441406 26.726562 8.378906 C 28.214844 11.878906 31.046875 20.746094 31.195312 23.800781 C 31.195312 25.066406 31.046875 25.886719 30.601562 26.558594 C 30.226562 27.078125 29.558594 27.453125 28.960938 27.527344 C 28.140625 27.601562 26.875 27.226562 26.28125 26.78125 C 25.757812 26.332031 25.460938 25.664062 25.386719 25.066406 C 25.238281 24.472656 25.3125 23.726562 25.683594 23.203125 C 26.054688 22.535156 27.246094 21.789062 27.992188 21.640625 C 28.589844 21.492188 29.335938 21.714844 29.855469 22.011719 C 30.378906 22.386719 30.898438 22.90625 31.046875 23.503906 C 31.269531 24.246094 31.121094 25.589844 30.75 26.257812 C 30.453125 26.855469 29.78125 27.226562 29.257812 27.453125 C 28.664062 27.601562 27.917969 27.601562 27.324219 27.453125 C 26.800781 27.226562 26.355469 27.003906 25.832031 26.257812 C 24.269531 24.023438 22.332031 12.847656 20.765625 9.71875 C 20.09375 8.378906 19.796875 7.632812 18.753906 7.035156 C 17.113281 6.066406 13.6875 6.367188 11.082031 6.367188 C 8.398438 6.367188 4.300781 7.484375 2.660156 6.886719 C 1.839844 6.664062 1.394531 6.066406 1.097656 5.546875 C 0.796875 4.949219 0.574219 4.054688 0.796875 3.460938 C 1.097656 2.566406 3.332031 1.152344 3.332031 1.152344 " clip-rule="nonzero"/></clipPath><clipPath id="e0cca8ef82"><rect x="0" width="32" y="0" height="28"/></clipPath><clipPath id="cc435e9e4f"><path d="M 71.867188 4.488281 L 100.15625 4.488281 L 100.15625 28.769531 L 71.867188 28.769531 Z M 71.867188 4.488281 " clip-rule="nonzero"/></clipPath><clipPath id="389772e52b"><path d="M 74.878906 4.523438 C 89.109375 4.820312 90.226562 5.117188 91.34375 5.9375 C 92.460938 6.757812 93.132812 7.800781 94.175781 9.367188 C 95.816406 11.972656 98.945312 17.414062 99.691406 20.691406 C 100.210938 22.925781 100.136719 25.386719 99.691406 26.652344 C 99.464844 27.398438 99.019531 27.84375 98.570312 28.214844 C 98.050781 28.515625 97.304688 28.8125 96.710938 28.738281 C 95.964844 28.589844 94.773438 27.992188 94.324219 27.246094 C 93.878906 26.578125 93.804688 25.234375 94.175781 24.492188 C 94.472656 23.746094 95.667969 23 96.410156 22.777344 C 97.007812 22.628906 97.753906 22.851562 98.273438 23.074219 C 98.796875 23.375 99.316406 23.96875 99.539062 24.492188 C 99.839844 25.011719 99.914062 25.757812 99.765625 26.351562 C 99.617188 26.949219 99.316406 27.621094 98.796875 27.992188 C 98.199219 28.441406 96.859375 28.738281 96.039062 28.589844 C 95.441406 28.515625 94.847656 28.140625 94.472656 27.546875 C 93.878906 26.429688 94.625 24.042969 93.953125 21.882812 C 92.910156 18.679688 90.675781 12.421875 87.320312 10.484375 C 83.96875 8.398438 75.773438 11.527344 73.539062 10.109375 C 72.421875 9.441406 71.898438 8.023438 71.898438 7.128906 C 71.898438 6.460938 72.421875 5.714844 72.941406 5.269531 C 73.390625 4.820312 74.878906 4.523438 74.878906 4.523438 " clip-rule="nonzero"/></clipPath><clipPath id="8257274e79"><path d="M 0.867188 0.488281 L 29.15625 0.488281 L 29.15625 24.769531 L 0.867188 24.769531 Z M 0.867188 0.488281 " clip-rule="nonzero"/></clipPath><clipPath id="d69bf529c6"><path d="M 3.878906 0.523438 C 18.109375 0.820312 19.226562 1.117188 20.34375 1.9375 C 21.460938 2.757812 22.132812 3.800781 23.175781 5.367188 C 24.816406 7.972656 27.945312 13.414062 28.691406 16.691406 C 29.210938 18.925781 29.136719 21.386719 28.691406 22.652344 C 28.464844 23.398438 28.019531 23.84375 27.570312 24.214844 C 27.050781 24.515625 26.304688 24.8125 25.710938 24.738281 C 24.964844 24.589844 23.773438 23.992188 23.324219 23.246094 C 22.878906 22.578125 22.804688 21.234375 23.175781 20.492188 C 23.472656 19.746094 24.667969 19 25.410156 18.777344 C 26.007812 18.628906 26.753906 18.851562 27.273438 19.074219 C 27.796875 19.375 28.316406 19.96875 28.539062 20.492188 C 28.839844 21.011719 28.914062 21.757812 28.765625 22.351562 C 28.617188 22.949219 28.316406 23.621094 27.796875 23.992188 C 27.199219 24.441406 25.859375 24.738281 25.039062 24.589844 C 24.441406 24.515625 23.847656 24.140625 23.472656 23.546875 C 22.878906 22.429688 23.625 20.042969 22.953125 17.882812 C 21.910156 14.679688 19.675781 8.421875 16.320312 6.484375 C 12.96875 4.398438 4.773438 7.527344 2.539062 6.109375 C 1.421875 5.441406 0.898438 4.023438 0.898438 3.128906 C 0.898438 2.460938 1.421875 1.714844 1.941406 1.269531 C 2.390625 0.820312 3.878906 0.523438 3.878906 0.523438 " clip-rule="nonzero"/></clipPath><clipPath id="606246db32"><rect x="0" width="30" y="0" height="25"/></clipPath></defs><g clip-path="url(#b157838906)"><g clip-path="url(#70ffb81bff)"><g transform="matrix(1, 0, 0, 1, 1, 3)"><g clip-path="url(#288b1c1835)"><g clip-path="url(#a61b43b0e0)"><g clip-path="url(#d91b3c2324)"><rect x="-25.915" width="163.08" fill="#675f56" height="131.759996" y="-23.129999" fill-opacity="1"/></g></g></g></g></g></g><g clip-path="url(#16fb294f65)"><g clip-path="url(#12c14cfae2)"><g transform="matrix(1, 0, 0, 1, 77, 31)"><g clip-path="url(#ece50492e2)"><g clip-path="url(#6292f1155a)"><g clip-path="url(#9a59955bda)"><rect x="-101.915" width="163.08" fill="#675f56" height="131.759996" y="-51.129999" fill-opacity="1"/></g></g></g></g></g></g><g clip-path="url(#54b2526dcf)"><g clip-path="url(#a325075695)"><g transform="matrix(1, 0, 0, 1, 19, 3)"><g clip-path="url(#ff8bd6aa94)"><g clip-path="url(#8d495ac8e6)"><g clip-path="url(#72354e6312)"><rect x="-43.915" width="163.08" fill="#675f56" height="131.759996" y="-23.129999" fill-opacity="1"/></g></g></g></g></g></g><g clip-path="url(#935a3ae2e3)"><g clip-path="url(#f62349b932)"><g transform="matrix(1, 0, 0, 1, 39, 23)"><g clip-path="url(#882d3e6cec)"><g clip-path="url(#8e73d904d2)"><g clip-path="url(#cb6ee2b8d8)"><rect x="-63.915" width="163.08" fill="#675f56" height="131.759996" y="-43.129999" fill-opacity="1"/></g></g></g></g></g></g><g clip-path="url(#c8f0188dbc)"><g clip-path="url(#9c7b8fa779)"><g transform="matrix(1, 0, 0, 1, 92, 24)"><g clip-path="url(#51b0597b1f)"><g clip-path="url(#6f372c1044)"><g clip-path="url(#53c3b10a98)"><rect x="-116.915" width="163.08" fill="#675f56" height="131.759996" y="-44.129999" fill-opacity="1"/></g></g></g></g></g></g><g clip-path="url(#4b1dd64fc7)"><g clip-path="url(#7768b87534)"><g transform="matrix(1, 0, 0, 1, 41, 3)"><g clip-path="url(#e0cca8ef82)"><g clip-path="url(#0eec7fa657)"><g clip-path="url(#a7a3dd1b2f)"><rect x="-65.915" width="163.08" fill="#675f56" height="131.759996" y="-23.129999" fill-opacity="1"/></g></g></g></g></g></g><g clip-path="url(#cc435e9e4f)"><g clip-path="url(#389772e52b)"><g transform="matrix(1, 0, 0, 1, 71, 4)"><g clip-path="url(#606246db32)"><g clip-path="url(#8257274e79)"><g clip-path="url(#d69bf529c6)"><rect x="-95.915" width="163.08" fill="#675f56" height="131.759996" y="-24.129999" fill-opacity="1"/></g></g></g></g></g></g></svg>