<svg xmlns="http://www.w3.org/2000/svg" xmlns:xlink="http://www.w3.org/1999/xlink" width="135" zoomAndPan="magnify" viewBox="0 0 101.25 93.749997" height="125" preserveAspectRatio="xMidYMid meet" version="1.0"><defs><clipPath id="bd96151c4d"><path d="M 2.886719 3.109375 L 97.441406 3.109375 L 97.441406 90 L 2.886719 90 Z M 2.886719 3.109375 " clip-rule="nonzero"/></clipPath><clipPath id="211b3ee392"><path d="M 49.210938 10.71875 C 35.4375 11.910156 28.8125 13.398438 24.34375 16.523438 C 19.578125 19.800781 15.113281 26.277344 12.582031 30.746094 C 10.71875 33.945312 9.902344 36.773438 9.304688 40.050781 C 8.636719 43.476562 8.636719 48.390625 8.933594 50.84375 C 9.082031 52.1875 9.230469 52.707031 9.679688 53.898438 C 10.421875 55.535156 11.910156 57.992188 13.175781 59.78125 C 14.515625 61.566406 16.527344 63.128906 17.496094 64.617188 C 18.164062 65.660156 18.539062 66.480469 18.835938 67.523438 C 19.058594 68.488281 18.613281 69.679688 18.910156 70.574219 C 19.207031 71.542969 19.804688 72.210938 20.621094 73.179688 C 21.8125 74.667969 24.195312 77.199219 25.757812 78.464844 C 26.949219 79.433594 27.84375 80.105469 28.960938 80.625 C 30.078125 81.144531 30.96875 81.296875 32.460938 81.59375 C 35.140625 82.1875 39.828125 82.933594 43.851562 83.304688 C 48.390625 83.675781 54.347656 83.902344 58.21875 83.675781 C 60.972656 83.453125 62.835938 83.230469 65.066406 82.710938 C 67.449219 82.039062 69.535156 81.21875 72.066406 80.03125 C 75.566406 78.390625 81.820312 75.710938 83.828125 73.476562 C 84.871094 72.210938 84.574219 71.019531 85.316406 69.679688 C 86.285156 67.96875 88.742188 65.882812 89.636719 64.171875 C 90.230469 62.90625 90.378906 62.085938 90.605469 60.597656 C 91.050781 58.289062 91.570312 54.121094 91.199219 51.292969 C 90.902344 48.835938 89.5625 46.898438 89.113281 44.742188 C 88.742188 42.582031 89.488281 40.71875 88.742188 38.1875 C 87.550781 33.945312 84.050781 26.722656 80.253906 22.480469 C 76.609375 18.3125 70.429688 14.960938 66.558594 12.800781 C 64.027344 11.3125 62.386719 10.496094 59.78125 9.824219 C 56.730469 9.078125 52.636719 9.003906 49.136719 9.15625 C 45.636719 9.304688 40.796875 11.015625 38.9375 10.570312 C 38.117188 10.421875 37.671875 9.972656 37.375 9.527344 C 37 9.078125 36.703125 8.335938 36.777344 7.738281 C 36.851562 6.921875 37.449219 5.730469 38.042969 5.28125 C 38.5625 4.835938 39.308594 4.6875 39.90625 4.761719 C 40.648438 4.910156 41.839844 5.582031 42.285156 6.25 C 42.660156 6.773438 42.808594 7.441406 42.660156 8.113281 C 42.511719 8.855469 41.839844 9.972656 41.09375 10.421875 C 40.351562 10.792969 39.011719 10.644531 38.339844 10.34375 C 37.746094 10.121094 37.296875 9.527344 37 9.003906 C 36.777344 8.410156 36.628906 7.664062 36.851562 7.070312 C 37.074219 6.324219 37.820312 5.507812 38.640625 4.984375 C 39.753906 4.316406 41.320312 4.015625 43.03125 3.71875 C 45.488281 3.347656 48.765625 3.125 51.816406 3.199219 C 55.242188 3.273438 59.484375 3.644531 62.535156 4.464844 C 65.140625 5.207031 66.78125 5.953125 69.3125 7.367188 C 73.109375 9.527344 79.511719 13.695312 82.710938 16.671875 C 84.945312 18.757812 86.0625 20.320312 87.625 22.703125 C 89.5625 25.609375 91.945312 30.820312 93.136719 33.351562 C 93.730469 34.691406 93.953125 35.0625 94.402344 36.550781 C 95.292969 39.753906 96.859375 48.164062 97.15625 52.1875 C 97.378906 54.71875 97.230469 56.28125 97.007812 58.363281 C 96.707031 60.597656 96.558594 62.683594 95.515625 65.140625 C 94.027344 68.789062 91.199219 74.222656 87.773438 77.5 C 84.425781 80.847656 78.914062 83.15625 75.34375 84.941406 C 72.886719 86.207031 71.171875 86.953125 68.789062 87.699219 C 66.109375 88.589844 63.132812 89.261719 60.003906 89.632812 C 56.582031 89.929688 53.230469 89.855469 49.136719 89.558594 C 43.925781 89.261719 34.84375 88.070312 31.34375 87.398438 C 29.855469 87.175781 29.40625 87.175781 28.214844 86.65625 C 26.429688 85.910156 23.75 84.570312 21.589844 82.710938 C 18.910156 80.476562 15.410156 76.605469 13.773438 73.777344 C 12.582031 71.617188 12.804688 69.457031 11.835938 67.597656 C 10.796875 65.585938 8.933594 64.171875 7.59375 62.160156 C 6.179688 60.003906 4.542969 57.398438 3.796875 55.015625 C 3.125 52.929688 3.050781 51.21875 2.976562 48.910156 C 2.828125 45.78125 2.902344 41.613281 3.648438 38.039062 C 4.46875 34.390625 5.582031 30.96875 7.667969 27.320312 C 10.421875 22.554688 16.75 15.332031 19.878906 12.578125 C 21.441406 11.238281 22.035156 10.941406 23.824219 10.121094 C 26.726562 8.707031 32.757812 6.921875 36.40625 5.953125 C 39.085938 5.207031 41.320312 4.613281 43.625 4.464844 C 45.710938 4.316406 48.167969 4.390625 49.65625 4.761719 C 50.476562 4.984375 51.144531 5.132812 51.519531 5.65625 C 52.113281 6.324219 52.5625 8.113281 52.113281 9.003906 C 51.742188 9.824219 49.210938 10.71875 49.210938 10.71875 " clip-rule="nonzero"/></clipPath><clipPath id="f8d7041a58"><path d="M 0.886719 0.109375 L 95.4375 0.109375 L 95.4375 87 L 0.886719 87 Z M 0.886719 0.109375 " clip-rule="nonzero"/></clipPath><clipPath id="b6f4ac2c88"><path d="M 47.210938 7.71875 C 33.4375 8.910156 26.8125 10.398438 22.34375 13.523438 C 17.578125 16.800781 13.113281 23.277344 10.582031 27.746094 C 8.71875 30.945312 7.902344 33.773438 7.304688 37.050781 C 6.636719 40.476562 6.636719 45.390625 6.933594 47.84375 C 7.082031 49.1875 7.230469 49.707031 7.679688 50.898438 C 8.421875 52.535156 9.910156 54.992188 11.175781 56.78125 C 12.515625 58.566406 14.527344 60.128906 15.496094 61.617188 C 16.164062 62.660156 16.539062 63.480469 16.835938 64.523438 C 17.058594 65.488281 16.613281 66.679688 16.910156 67.574219 C 17.207031 68.542969 17.804688 69.210938 18.621094 70.179688 C 19.8125 71.667969 22.195312 74.199219 23.757812 75.464844 C 24.949219 76.433594 25.84375 77.105469 26.960938 77.625 C 28.078125 78.144531 28.96875 78.296875 30.460938 78.59375 C 33.140625 79.1875 37.828125 79.933594 41.851562 80.304688 C 46.390625 80.675781 52.347656 80.902344 56.21875 80.675781 C 58.972656 80.453125 60.835938 80.230469 63.066406 79.710938 C 65.449219 79.039062 67.535156 78.21875 70.066406 77.03125 C 73.566406 75.390625 79.820312 72.710938 81.828125 70.476562 C 82.871094 69.210938 82.574219 68.019531 83.316406 66.679688 C 84.285156 64.96875 86.742188 62.882812 87.636719 61.171875 C 88.230469 59.90625 88.378906 59.085938 88.605469 57.597656 C 89.050781 55.289062 89.570312 51.121094 89.199219 48.292969 C 88.902344 45.835938 87.5625 43.898438 87.113281 41.742188 C 86.742188 39.582031 87.488281 37.71875 86.742188 35.1875 C 85.550781 30.945312 82.050781 23.722656 78.253906 19.480469 C 74.609375 15.3125 68.429688 11.960938 64.558594 9.800781 C 62.027344 8.3125 60.386719 7.496094 57.78125 6.824219 C 54.730469 6.078125 50.636719 6.003906 47.136719 6.15625 C 43.636719 6.304688 38.796875 8.015625 36.9375 7.570312 C 36.117188 7.421875 35.671875 6.972656 35.375 6.527344 C 35 6.078125 34.703125 5.335938 34.777344 4.738281 C 34.851562 3.921875 35.449219 2.730469 36.042969 2.28125 C 36.5625 1.835938 37.308594 1.6875 37.90625 1.761719 C 38.648438 1.910156 39.839844 2.582031 40.285156 3.25 C 40.660156 3.773438 40.808594 4.441406 40.660156 5.113281 C 40.511719 5.855469 39.839844 6.972656 39.09375 7.421875 C 38.351562 7.792969 37.011719 7.644531 36.339844 7.34375 C 35.746094 7.121094 35.296875 6.527344 35 6.003906 C 34.777344 5.410156 34.628906 4.664062 34.851562 4.070312 C 35.074219 3.324219 35.820312 2.507812 36.640625 1.984375 C 37.753906 1.316406 39.320312 1.015625 41.03125 0.71875 C 43.488281 0.347656 46.765625 0.125 49.816406 0.199219 C 53.242188 0.273438 57.484375 0.644531 60.535156 1.464844 C 63.140625 2.207031 64.78125 2.953125 67.3125 4.367188 C 71.109375 6.527344 77.511719 10.695312 80.710938 13.671875 C 82.945312 15.757812 84.0625 17.320312 85.625 19.703125 C 87.5625 22.609375 89.945312 27.820312 91.136719 30.351562 C 91.730469 31.691406 91.953125 32.0625 92.402344 33.550781 C 93.292969 36.753906 94.859375 45.164062 95.15625 49.1875 C 95.378906 51.71875 95.230469 53.28125 95.007812 55.363281 C 94.707031 57.597656 94.558594 59.683594 93.515625 62.140625 C 92.027344 65.789062 89.199219 71.222656 85.773438 74.5 C 82.425781 77.847656 76.914062 80.15625 73.34375 81.941406 C 70.886719 83.207031 69.171875 83.953125 66.789062 84.699219 C 64.109375 85.589844 61.132812 86.261719 58.003906 86.632812 C 54.582031 86.929688 51.230469 86.855469 47.136719 86.558594 C 41.925781 86.261719 32.84375 85.070312 29.34375 84.398438 C 27.855469 84.175781 27.40625 84.175781 26.214844 83.65625 C 24.429688 82.910156 21.75 81.570312 19.589844 79.710938 C 16.910156 77.476562 13.410156 73.605469 11.773438 70.777344 C 10.582031 68.617188 10.804688 66.457031 9.835938 64.597656 C 8.796875 62.585938 6.933594 61.171875 5.59375 59.160156 C 4.179688 57.003906 2.542969 54.398438 1.796875 52.015625 C 1.125 49.929688 1.050781 48.21875 0.976562 45.910156 C 0.828125 42.78125 0.902344 38.613281 1.648438 35.039062 C 2.46875 31.390625 3.582031 27.96875 5.667969 24.320312 C 8.421875 19.554688 14.75 12.332031 17.878906 9.578125 C 19.441406 8.238281 20.035156 7.941406 21.824219 7.121094 C 24.726562 5.707031 30.757812 3.921875 34.40625 2.953125 C 37.085938 2.207031 39.320312 1.613281 41.625 1.464844 C 43.710938 1.316406 46.167969 1.390625 47.65625 1.761719 C 48.476562 1.984375 49.144531 2.132812 49.519531 2.65625 C 50.113281 3.324219 50.5625 5.113281 50.113281 6.003906 C 49.742188 6.824219 47.210938 7.71875 47.210938 7.71875 " clip-rule="nonzero"/></clipPath><clipPath id="02b1d4e9ae"><rect x="0" width="96" y="0" height="87"/></clipPath><clipPath id="39c7e85852"><path d="M 38.769531 33.808594 L 63.628906 33.808594 L 63.628906 68.421875 L 38.769531 68.421875 Z M 38.769531 33.808594 " clip-rule="nonzero"/></clipPath><clipPath id="2ea2348013"><path d="M 52.710938 39.753906 C 48.839844 52.78125 47.347656 58.8125 48.765625 59.703125 C 49.953125 60.523438 54.570312 56.429688 56.65625 55.832031 C 57.921875 55.535156 58.8125 55.238281 59.78125 55.609375 C 61.046875 55.984375 62.6875 57.546875 63.28125 58.664062 C 63.726562 59.628906 63.726562 60.820312 63.355469 61.789062 C 62.835938 62.980469 61.34375 64.691406 60.078125 65.066406 C 58.738281 65.511719 56.582031 65.066406 55.539062 64.246094 C 54.496094 63.351562 53.675781 61.269531 53.675781 60.003906 C 53.675781 58.960938 54.273438 57.84375 54.941406 57.097656 C 55.613281 56.355469 56.730469 55.683594 57.699219 55.535156 C 58.664062 55.3125 59.929688 55.535156 60.824219 55.984375 C 61.71875 56.429688 62.609375 57.324219 63.058594 58.214844 C 63.503906 59.109375 63.652344 60.300781 63.429688 61.34375 C 63.28125 62.3125 62.835938 63.203125 61.941406 64.023438 C 60.527344 65.363281 57.175781 66.480469 54.792969 67.222656 C 52.5625 67.894531 50.253906 68.488281 47.945312 68.339844 C 45.636719 68.191406 42.585938 67.820312 41.09375 66.40625 C 39.753906 65.214844 39.308594 62.832031 39.011719 60.96875 C 38.714844 59.183594 38.9375 57.546875 39.160156 55.386719 C 39.457031 52.484375 40.277344 48.3125 41.09375 45.113281 C 41.914062 42.136719 42.957031 38.636719 44 36.773438 C 44.667969 35.582031 45.117188 34.691406 46.082031 34.242188 C 47.199219 33.722656 49.210938 33.648438 50.402344 34.167969 C 51.371094 34.542969 52.1875 35.582031 52.5625 36.550781 C 53.007812 37.445312 52.710938 39.753906 52.710938 39.753906 " clip-rule="nonzero"/></clipPath><clipPath id="bef2f5a05e"><path d="M 0.769531 0.808594 L 25.628906 0.808594 L 25.628906 35.421875 L 0.769531 35.421875 Z M 0.769531 0.808594 " clip-rule="nonzero"/></clipPath><clipPath id="2660fe9664"><path d="M 14.710938 6.753906 C 10.839844 19.78125 9.347656 25.8125 10.765625 26.703125 C 11.953125 27.523438 16.570312 23.429688 18.65625 22.832031 C 19.921875 22.535156 20.8125 22.238281 21.78125 22.609375 C 23.046875 22.984375 24.6875 24.546875 25.28125 25.664062 C 25.726562 26.628906 25.726562 27.820312 25.355469 28.789062 C 24.835938 29.980469 23.34375 31.691406 22.078125 32.066406 C 20.738281 32.511719 18.582031 32.066406 17.539062 31.246094 C 16.496094 30.351562 15.675781 28.269531 15.675781 27.003906 C 15.675781 25.960938 16.273438 24.84375 16.941406 24.097656 C 17.613281 23.355469 18.730469 22.683594 19.699219 22.535156 C 20.664062 22.3125 21.929688 22.535156 22.824219 22.984375 C 23.71875 23.429688 24.609375 24.324219 25.058594 25.214844 C 25.503906 26.109375 25.652344 27.300781 25.429688 28.34375 C 25.28125 29.3125 24.835938 30.203125 23.941406 31.023438 C 22.527344 32.363281 19.175781 33.480469 16.792969 34.222656 C 14.5625 34.894531 12.253906 35.488281 9.945312 35.339844 C 7.636719 35.191406 4.585938 34.820312 3.09375 33.40625 C 1.753906 32.214844 1.308594 29.832031 1.011719 27.96875 C 0.714844 26.183594 0.9375 24.546875 1.160156 22.386719 C 1.457031 19.484375 2.277344 15.3125 3.09375 12.113281 C 3.914062 9.136719 4.957031 5.636719 6 3.773438 C 6.667969 2.582031 7.117188 1.691406 8.082031 1.242188 C 9.199219 0.722656 11.210938 0.648438 12.402344 1.167969 C 13.371094 1.542969 14.1875 2.582031 14.5625 3.550781 C 15.007812 4.445312 14.710938 6.753906 14.710938 6.753906 " clip-rule="nonzero"/></clipPath><clipPath id="f654204cb5"><rect x="0" width="26" y="0" height="36"/></clipPath><clipPath id="17477fc888"><path d="M 45.917969 16.726562 L 60.835938 16.726562 L 60.835938 29.945312 L 45.917969 29.945312 Z M 45.917969 16.726562 " clip-rule="nonzero"/></clipPath><clipPath id="da535a8195"><path d="M 54.71875 26.203125 C 52.261719 26.351562 53.378906 21.8125 52.636719 20.695312 C 52.1875 20.097656 50.847656 20.246094 50.773438 19.875 C 50.625 19.578125 50.921875 19.203125 51.296875 18.832031 C 51.964844 18.164062 53.976562 16.824219 55.242188 16.75 C 56.359375 16.671875 57.699219 17.34375 58.441406 17.9375 C 59.113281 18.460938 59.484375 19.054688 59.78125 19.875 C 60.078125 20.769531 60.378906 22.332031 59.78125 23.300781 C 58.890625 24.640625 55.167969 26.425781 53.601562 26.128906 C 52.261719 25.832031 50.847656 24.042969 50.550781 22.703125 C 50.253906 21.4375 50.773438 19.355469 51.667969 18.3125 C 52.5625 17.34375 54.570312 16.597656 55.910156 16.824219 C 57.25 16.972656 58.964844 18.238281 59.558594 19.429688 C 60.15625 20.621094 60.003906 22.851562 59.410156 23.96875 C 59.039062 24.9375 58.070312 25.609375 57.175781 25.980469 C 56.207031 26.425781 55.015625 26.574219 54.050781 26.277344 C 52.859375 25.832031 51.144531 24.492188 50.699219 23.226562 C 50.253906 21.960938 50.550781 19.800781 51.371094 18.757812 C 52.113281 17.640625 55.316406 16.671875 55.390625 16.75 C 55.464844 16.824219 50.847656 20.023438 50.773438 19.875 C 50.625 19.726562 52.1875 17.789062 53.007812 17.269531 C 53.675781 16.898438 54.421875 16.671875 55.242188 16.75 C 56.207031 16.824219 57.625 17.269531 58.441406 17.9375 C 59.261719 18.683594 59.707031 19.800781 60.003906 20.992188 C 60.453125 22.480469 61.195312 24.863281 60.453125 26.277344 C 59.78125 27.691406 57.25 28.808594 55.539062 29.40625 C 53.976562 29.851562 52.261719 30.074219 50.773438 29.703125 C 49.210938 29.328125 47.273438 28.363281 46.53125 26.949219 C 45.710938 25.53125 45.785156 22.554688 46.53125 20.992188 C 47.125 19.652344 48.765625 18.757812 50.03125 18.164062 C 51.296875 17.566406 52.859375 17.121094 54.050781 17.417969 C 55.316406 17.640625 56.878906 18.832031 57.398438 19.949219 C 57.921875 21.066406 57.773438 23.078125 57.25 24.117188 C 56.804688 25.085938 54.71875 26.203125 54.71875 26.203125 " clip-rule="nonzero"/></clipPath><clipPath id="b8e3ef36fd"><path d="M 0.917969 0.726562 L 15.835938 0.726562 L 15.835938 13.945312 L 0.917969 13.945312 Z M 0.917969 0.726562 " clip-rule="nonzero"/></clipPath><clipPath id="e6c092e56f"><path d="M 9.71875 10.203125 C 7.261719 10.351562 8.378906 5.8125 7.636719 4.695312 C 7.1875 4.097656 5.847656 4.246094 5.773438 3.875 C 5.625 3.578125 5.921875 3.203125 6.296875 2.832031 C 6.964844 2.164062 8.976562 0.824219 10.242188 0.75 C 11.359375 0.671875 12.699219 1.34375 13.441406 1.9375 C 14.113281 2.460938 14.484375 3.054688 14.78125 3.875 C 15.078125 4.769531 15.378906 6.332031 14.78125 7.300781 C 13.890625 8.640625 10.167969 10.425781 8.601562 10.128906 C 7.261719 9.832031 5.847656 8.042969 5.550781 6.703125 C 5.253906 5.4375 5.773438 3.355469 6.667969 2.3125 C 7.5625 1.34375 9.570312 0.597656 10.910156 0.824219 C 12.25 0.972656 13.964844 2.238281 14.558594 3.429688 C 15.15625 4.621094 15.003906 6.851562 14.410156 7.96875 C 14.039062 8.9375 13.070312 9.609375 12.175781 9.980469 C 11.207031 10.425781 10.015625 10.574219 9.050781 10.277344 C 7.859375 9.832031 6.144531 8.492188 5.699219 7.226562 C 5.253906 5.960938 5.550781 3.800781 6.371094 2.757812 C 7.113281 1.640625 10.316406 0.671875 10.390625 0.75 C 10.464844 0.824219 5.847656 4.023438 5.773438 3.875 C 5.625 3.726562 7.1875 1.789062 8.007812 1.269531 C 8.675781 0.898438 9.421875 0.671875 10.242188 0.75 C 11.207031 0.824219 12.625 1.269531 13.441406 1.9375 C 14.261719 2.683594 14.707031 3.800781 15.003906 4.992188 C 15.453125 6.480469 16.195312 8.863281 15.453125 10.277344 C 14.78125 11.691406 12.25 12.808594 10.539062 13.40625 C 8.976562 13.851562 7.261719 14.074219 5.773438 13.703125 C 4.210938 13.328125 2.273438 12.363281 1.53125 10.949219 C 0.710938 9.53125 0.785156 6.554688 1.53125 4.992188 C 2.125 3.652344 3.765625 2.757812 5.03125 2.164062 C 6.296875 1.566406 7.859375 1.121094 9.050781 1.417969 C 10.316406 1.640625 11.878906 2.832031 12.398438 3.949219 C 12.921875 5.066406 12.773438 7.078125 12.25 8.117188 C 11.804688 9.085938 9.71875 10.203125 9.71875 10.203125 " clip-rule="nonzero"/></clipPath><clipPath id="8d47d88233"><rect x="0" width="16" y="0" height="14"/></clipPath></defs><g clip-path="url(#bd96151c4d)"><g clip-path="url(#211b3ee392)"><g transform="matrix(1, 0, 0, 1, 2, 3)"><g clip-path="url(#02b1d4e9ae)"><g clip-path="url(#f8d7041a58)"><g clip-path="url(#b6f4ac2c88)"><rect x="-24.275" width="145.8" fill="#eeeeee" height="134.999996" y="-23.624999" fill-opacity="1"/></g></g></g></g></g></g><g clip-path="url(#39c7e85852)"><g clip-path="url(#2ea2348013)"><g transform="matrix(1, 0, 0, 1, 38, 33)"><g clip-path="url(#f654204cb5)"><g clip-path="url(#bef2f5a05e)"><g clip-path="url(#2660fe9664)"><rect x="-60.275" width="145.8" fill="#eeeeee" height="134.999996" y="-53.624999" fill-opacity="1"/></g></g></g></g></g></g><g clip-path="url(#17477fc888)"><g clip-path="url(#da535a8195)"><g transform="matrix(1, 0, 0, 1, 45, 16)"><g clip-path="url(#8d47d88233)"><g clip-path="url(#b8e3ef36fd)"><g clip-path="url(#e6c092e56f)"><rect x="-67.275" width="145.8" fill="#eeeeee" height="134.999996" y="-36.624999" fill-opacity="1"/></g></g></g></g></g></g></svg>