<svg xmlns="http://www.w3.org/2000/svg" xmlns:xlink="http://www.w3.org/1999/xlink" width="108" zoomAndPan="magnify" viewBox="0 0 81 86.999996" height="116" preserveAspectRatio="xMidYMid meet" version="1.0"><defs><clipPath id="63b5d8df70"><path d="M 24.375 20 L 77.554688 20 L 77.554688 82.601562 L 24.375 82.601562 Z M 24.375 20 " clip-rule="nonzero"/></clipPath><clipPath id="ab1f3c9b81"><path d="M 37.136719 81.816406 C 30.378906 72.960938 28.867188 70.074219 27.820312 67.449219 C 26.769531 65.152344 25.980469 62.722656 25.523438 60.558594 C 25.0625 58.65625 24.867188 57.34375 24.734375 55.246094 C 24.539062 52.160156 24.40625 46.976562 25.128906 43.960938 C 25.652344 41.792969 26.636719 39.695312 27.621094 38.578125 C 28.277344 37.792969 29.195312 37.921875 29.789062 37.070312 C 30.902344 35.625 31.230469 31.296875 32.148438 29.523438 C 32.738281 28.34375 33.132812 27.621094 34.117188 26.902344 C 35.625 25.71875 37.988281 24.996094 40.746094 24.078125 C 44.746094 22.703125 51.308594 20.796875 56.292969 20.273438 C 60.757812 19.75 66.660156 20.078125 69.285156 20.472656 C 70.464844 20.667969 70.925781 20.796875 71.84375 21.324219 C 73.417969 22.175781 76.960938 24.667969 77.421875 26.113281 C 77.683594 26.964844 77.289062 27.949219 76.765625 28.476562 C 76.304688 29 75.191406 29.394531 74.46875 29.328125 C 73.746094 29.195312 72.828125 28.476562 72.5 27.820312 C 72.171875 27.164062 72.238281 25.980469 72.566406 25.390625 C 72.960938 24.734375 73.945312 24.144531 74.664062 24.078125 C 75.386719 24.015625 76.503906 24.539062 76.894531 25.0625 C 77.355469 25.652344 77.550781 26.835938 77.355469 27.492188 C 77.160156 28.210938 76.242188 29 75.585938 29.195312 C 75.058594 29.460938 74.601562 29.394531 73.945312 29.132812 C 72.566406 28.738281 70.730469 26.375 68.433594 25.71875 C 65.414062 24.800781 61.085938 24.996094 57.082031 25.457031 C 52.554688 25.980469 45.601562 28.015625 42.648438 28.933594 C 41.269531 29.394531 40.546875 29.523438 39.628906 30.117188 C 38.515625 30.902344 37.136719 32.082031 36.546875 33.394531 C 35.953125 34.578125 36.414062 36.347656 36.085938 37.660156 C 35.757812 38.710938 35.363281 39.890625 34.707031 40.546875 C 34.050781 41.203125 32.804688 41.203125 32.082031 41.792969 C 31.429688 42.386719 30.902344 43.171875 30.507812 44.023438 C 30.050781 45.074219 29.851562 46.125 29.722656 47.632812 C 29.589844 50.390625 29.917969 56.03125 30.574219 59.179688 C 31.035156 61.542969 31.691406 63.183594 32.542969 65.21875 C 33.527344 67.515625 34.773438 70.007812 36.21875 72.304688 C 37.792969 74.730469 41.203125 77.75 41.664062 79.457031 C 41.859375 80.242188 41.730469 80.765625 41.464844 81.292969 C 41.136719 81.816406 40.613281 82.40625 40.023438 82.539062 C 39.300781 82.734375 37.136719 81.816406 37.136719 81.816406 " clip-rule="nonzero"/></clipPath><clipPath id="1933e830f2"><path d="M 0.375 0 L 53.554688 0 L 53.554688 62.601562 L 0.375 62.601562 Z M 0.375 0 " clip-rule="nonzero"/></clipPath><clipPath id="27ec433a3d"><path d="M 13.136719 61.816406 C 6.378906 52.960938 4.867188 50.074219 3.820312 47.449219 C 2.769531 45.152344 1.980469 42.722656 1.523438 40.558594 C 1.0625 38.65625 0.867188 37.34375 0.734375 35.246094 C 0.539062 32.160156 0.40625 26.976562 1.128906 23.960938 C 1.652344 21.792969 2.636719 19.695312 3.621094 18.578125 C 4.277344 17.792969 5.195312 17.921875 5.789062 17.070312 C 6.902344 15.625 7.230469 11.296875 8.148438 9.523438 C 8.738281 8.34375 9.132812 7.621094 10.117188 6.902344 C 11.625 5.71875 13.988281 4.996094 16.746094 4.078125 C 20.746094 2.703125 27.308594 0.796875 32.292969 0.273438 C 36.757812 -0.25 42.660156 0.078125 45.285156 0.472656 C 46.464844 0.667969 46.925781 0.796875 47.84375 1.324219 C 49.417969 2.175781 52.960938 4.667969 53.421875 6.113281 C 53.683594 6.964844 53.289062 7.949219 52.765625 8.476562 C 52.304688 9 51.191406 9.394531 50.46875 9.328125 C 49.746094 9.195312 48.828125 8.476562 48.5 7.820312 C 48.171875 7.164062 48.238281 5.980469 48.566406 5.390625 C 48.960938 4.734375 49.945312 4.144531 50.664062 4.078125 C 51.386719 4.015625 52.503906 4.539062 52.894531 5.0625 C 53.355469 5.652344 53.550781 6.835938 53.355469 7.492188 C 53.160156 8.210938 52.242188 9 51.585938 9.195312 C 51.058594 9.460938 50.601562 9.394531 49.945312 9.132812 C 48.566406 8.738281 46.730469 6.375 44.433594 5.71875 C 41.414062 4.800781 37.085938 4.996094 33.082031 5.457031 C 28.554688 5.980469 21.601562 8.015625 18.648438 8.933594 C 17.269531 9.394531 16.546875 9.523438 15.628906 10.117188 C 14.515625 10.902344 13.136719 12.082031 12.546875 13.394531 C 11.953125 14.578125 12.414062 16.347656 12.085938 17.660156 C 11.757812 18.710938 11.363281 19.890625 10.707031 20.546875 C 10.050781 21.203125 8.804688 21.203125 8.082031 21.792969 C 7.429688 22.386719 6.902344 23.171875 6.507812 24.023438 C 6.050781 25.074219 5.851562 26.125 5.722656 27.632812 C 5.589844 30.390625 5.917969 36.03125 6.574219 39.179688 C 7.035156 41.542969 7.691406 43.183594 8.542969 45.21875 C 9.527344 47.515625 10.773438 50.007812 12.21875 52.304688 C 13.792969 54.730469 17.203125 57.75 17.664062 59.457031 C 17.859375 60.242188 17.730469 60.765625 17.464844 61.292969 C 17.136719 61.816406 16.613281 62.40625 16.023438 62.539062 C 15.300781 62.734375 13.136719 61.816406 13.136719 61.816406 " clip-rule="nonzero"/></clipPath><clipPath id="f9353ffc51"><rect x="0" width="54" y="0" height="63"/></clipPath><clipPath id="0f9bedac71"><path d="M 2.511719 2.511719 L 77.863281 2.511719 L 77.863281 83.828125 L 2.511719 83.828125 Z M 2.511719 2.511719 " clip-rule="nonzero"/></clipPath><clipPath id="18acc65e65"><path d="M 37.792969 83.785156 C 19.09375 78.273438 18.566406 77.550781 17.253906 76.304688 C 15.289062 74.46875 12.53125 71.582031 10.628906 68.628906 C 8.53125 65.414062 6.691406 60.558594 5.511719 57.410156 C 4.722656 55.246094 4.265625 54.195312 3.804688 51.832031 C 3.082031 47.960938 2.625 40.480469 2.625 36.480469 C 2.691406 33.855469 2.425781 32.214844 3.148438 29.984375 C 4.066406 27.164062 6.625 23.6875 8.660156 21.324219 C 10.367188 19.289062 11.941406 18.109375 14.238281 16.335938 C 17.320312 13.777344 21.980469 10.039062 25.71875 7.875 C 28.867188 6.101562 31.886719 4.789062 34.773438 3.9375 C 37.265625 3.148438 39.824219 2.820312 41.992188 2.625 C 43.695312 2.492188 44.746094 2.425781 46.714844 2.753906 C 49.996094 3.410156 55.902344 5.707031 59.773438 7.480469 C 63.117188 8.988281 66.726562 10.957031 68.695312 12.402344 C 69.808594 13.320312 70.136719 13.710938 71.058594 14.828125 C 72.828125 16.992188 77.550781 22.964844 77.75 25.195312 C 77.878906 26.179688 77.355469 26.964844 76.832031 27.492188 C 76.4375 27.886719 75.847656 28.082031 75.320312 28.082031 C 74.796875 28.082031 74.140625 27.949219 73.679688 27.621094 C 73.15625 27.230469 72.566406 26.113281 72.566406 25.457031 C 72.5 24.867188 72.761719 24.277344 73.089844 23.882812 C 73.417969 23.421875 73.945312 23.03125 74.46875 22.898438 C 75.125 22.832031 76.304688 23.09375 76.894531 23.488281 C 77.355469 23.816406 77.617188 24.40625 77.75 24.933594 C 77.816406 25.390625 77.816406 26.046875 77.550781 26.574219 C 77.222656 27.164062 76.242188 27.886719 75.585938 28.082031 C 75.058594 28.210938 74.601562 28.148438 73.945312 27.753906 C 72.171875 26.703125 68.5 19.683594 66.464844 17.648438 C 65.285156 16.535156 64.691406 16.207031 63.445312 15.417969 C 61.542969 14.304688 58.917969 12.859375 56.292969 11.679688 C 53.144531 10.300781 48.09375 8.398438 45.664062 7.9375 C 44.417969 7.675781 44.023438 7.675781 42.777344 7.808594 C 40.285156 8.070312 34.773438 9.121094 31.691406 10.367188 C 29.132812 11.480469 27.753906 12.730469 25.261719 14.433594 C 21.71875 16.992188 14.367188 22.046875 12.464844 24.539062 C 11.613281 25.589844 11.808594 26.308594 11.285156 27.230469 C 10.5625 28.34375 8.921875 29.261719 8.398438 30.707031 C 7.675781 32.476562 7.9375 34.839844 8.003906 37.398438 C 8.003906 40.746094 8.265625 45.863281 8.792969 49.144531 C 9.1875 51.570312 9.578125 53.078125 10.367188 55.375 C 11.351562 58.328125 12.859375 62.460938 14.695312 65.347656 C 16.46875 68.105469 19.289062 71.058594 20.996094 72.632812 C 21.980469 73.550781 22.242188 73.878906 23.554688 74.535156 C 26.507812 75.976562 37.265625 77.488281 39.433594 78.929688 C 40.152344 79.457031 40.417969 79.847656 40.546875 80.441406 C 40.679688 80.964844 40.746094 81.75 40.417969 82.277344 C 39.957031 82.933594 37.792969 83.785156 37.792969 83.785156 " clip-rule="nonzero"/></clipPath><clipPath id="834b41bfe1"><path d="M 0.511719 0.511719 L 75.863281 0.511719 L 75.863281 81.828125 L 0.511719 81.828125 Z M 0.511719 0.511719 " clip-rule="nonzero"/></clipPath><clipPath id="197bfe89bc"><path d="M 35.792969 81.785156 C 17.09375 76.273438 16.566406 75.550781 15.253906 74.304688 C 13.289062 72.46875 10.53125 69.582031 8.628906 66.628906 C 6.53125 63.414062 4.691406 58.558594 3.511719 55.410156 C 2.722656 53.246094 2.265625 52.195312 1.804688 49.832031 C 1.082031 45.960938 0.625 38.480469 0.625 34.480469 C 0.691406 31.855469 0.425781 30.214844 1.148438 27.984375 C 2.066406 25.164062 4.625 21.6875 6.660156 19.324219 C 8.367188 17.289062 9.941406 16.109375 12.238281 14.335938 C 15.320312 11.777344 19.980469 8.039062 23.71875 5.875 C 26.867188 4.101562 29.886719 2.789062 32.773438 1.9375 C 35.265625 1.148438 37.824219 0.820312 39.992188 0.625 C 41.695312 0.492188 42.746094 0.425781 44.714844 0.753906 C 47.996094 1.410156 53.902344 3.707031 57.773438 5.480469 C 61.117188 6.988281 64.726562 8.957031 66.695312 10.402344 C 67.808594 11.320312 68.136719 11.710938 69.058594 12.828125 C 70.828125 14.992188 75.550781 20.964844 75.75 23.195312 C 75.878906 24.179688 75.355469 24.964844 74.832031 25.492188 C 74.4375 25.886719 73.847656 26.082031 73.320312 26.082031 C 72.796875 26.082031 72.140625 25.949219 71.679688 25.621094 C 71.15625 25.230469 70.566406 24.113281 70.566406 23.457031 C 70.5 22.867188 70.761719 22.277344 71.089844 21.882812 C 71.417969 21.421875 71.945312 21.03125 72.46875 20.898438 C 73.125 20.832031 74.304688 21.09375 74.894531 21.488281 C 75.355469 21.816406 75.617188 22.40625 75.75 22.933594 C 75.816406 23.390625 75.816406 24.046875 75.550781 24.574219 C 75.222656 25.164062 74.242188 25.886719 73.585938 26.082031 C 73.058594 26.210938 72.601562 26.148438 71.945312 25.753906 C 70.171875 24.703125 66.5 17.683594 64.464844 15.648438 C 63.285156 14.535156 62.691406 14.207031 61.445312 13.417969 C 59.542969 12.304688 56.917969 10.859375 54.292969 9.679688 C 51.144531 8.300781 46.09375 6.398438 43.664062 5.9375 C 42.417969 5.675781 42.023438 5.675781 40.777344 5.808594 C 38.285156 6.070312 32.773438 7.121094 29.691406 8.367188 C 27.132812 9.480469 25.753906 10.730469 23.261719 12.433594 C 19.71875 14.992188 12.367188 20.046875 10.464844 22.539062 C 9.613281 23.589844 9.808594 24.308594 9.285156 25.230469 C 8.5625 26.34375 6.921875 27.261719 6.398438 28.707031 C 5.675781 30.476562 5.9375 32.839844 6.003906 35.398438 C 6.003906 38.746094 6.265625 43.863281 6.792969 47.144531 C 7.1875 49.570312 7.578125 51.078125 8.367188 53.375 C 9.351562 56.328125 10.859375 60.460938 12.695312 63.347656 C 14.46875 66.105469 17.289062 69.058594 18.996094 70.632812 C 19.980469 71.550781 20.242188 71.878906 21.554688 72.535156 C 24.507812 73.976562 35.265625 75.488281 37.433594 76.929688 C 38.152344 77.457031 38.417969 77.847656 38.546875 78.441406 C 38.679688 78.964844 38.746094 79.75 38.417969 80.277344 C 37.957031 80.933594 35.792969 81.785156 35.792969 81.785156 " clip-rule="nonzero"/></clipPath><clipPath id="72b4e6c5d8"><rect x="0" width="76" y="0" height="82"/></clipPath><clipPath id="5eb8182121"><rect x="0" width="81" y="0" height="87"/></clipPath></defs><g transform="matrix(1, 0, 0, 1, 0, -0.000000000000010127)"><g clip-path="url(#5eb8182121)"><g clip-path="url(#63b5d8df70)"><g clip-path="url(#ab1f3c9b81)"><g transform="matrix(1, 0, 0, 1, 24, 20)"><g clip-path="url(#f9353ffc51)"><g clip-path="url(#1933e830f2)"><g clip-path="url(#27ec433a3d)"><rect x="-53.484" width="139.968" fill="#675f56" y="-51.667999" height="150.335993" fill-opacity="1"/></g></g></g></g></g></g><g clip-path="url(#0f9bedac71)"><g clip-path="url(#18acc65e65)"><g transform="matrix(1, 0, 0, 1, 2, 2)"><g clip-path="url(#72b4e6c5d8)"><g clip-path="url(#834b41bfe1)"><g clip-path="url(#197bfe89bc)"><rect x="-31.484" width="139.968" fill="#675f56" y="-33.667999" height="150.335993" fill-opacity="1"/></g></g></g></g></g></g></g></g></svg>