<svg xmlns="http://www.w3.org/2000/svg" xmlns:xlink="http://www.w3.org/1999/xlink" width="124" zoomAndPan="magnify" viewBox="0 0 93 86.999996" height="116" preserveAspectRatio="xMidYMid meet" version="1.0"><defs><clipPath id="d10dd51925"><path d="M 26.828125 26.5 L 68 26.5 L 68 65 L 26.828125 65 Z M 26.828125 26.5 " clip-rule="nonzero"/></clipPath><clipPath id="761c29ded0"><path d="M 67.199219 52.199219 C 58.5 60.675781 56.925781 62.023438 54.675781 63 C 52.199219 64.125 48.523438 65.101562 45.898438 64.949219 C 43.726562 64.800781 42 64.050781 39.898438 62.925781 C 37.125 61.425781 32.773438 58.050781 30.976562 56.175781 C 29.925781 55.125 29.550781 54.523438 29.023438 53.25 C 28.273438 51.523438 27.75 48.824219 27.449219 46.425781 C 27.074219 43.875 26.699219 40.726562 27.226562 38.398438 C 27.601562 36.523438 28.5 34.875 29.773438 33.449219 C 31.125 31.800781 33.375 30.375 35.476562 29.324219 C 37.648438 28.199219 40.425781 27.523438 42.523438 27.074219 C 44.25 26.699219 45.675781 26.550781 47.101562 26.550781 C 48.449219 26.625 49.726562 26.550781 51.074219 27.074219 C 52.574219 27.675781 54.449219 29.101562 55.648438 30.300781 C 56.773438 31.425781 57.523438 32.699219 58.273438 33.898438 C 59.101562 35.175781 59.925781 36.523438 60.300781 37.875 C 60.75 39.148438 60.898438 40.574219 60.824219 42 C 60.75 43.5 60.601562 45.375 59.925781 46.800781 C 59.175781 48.300781 57.976562 49.726562 56.550781 50.925781 C 54.824219 52.199219 52.125 53.476562 50.023438 54 C 48.074219 54.449219 46.125 54.449219 44.324219 54.074219 C 42.675781 53.699219 40.800781 53.023438 39.75 52.050781 C 38.773438 51.226562 38.101562 50.023438 38.023438 48.824219 C 37.875 47.476562 38.625 45.675781 39.601562 44.25 C 40.800781 42.449219 44.023438 40.050781 45.523438 39.523438 C 46.273438 39.226562 46.875 39.300781 47.476562 39.449219 C 48.074219 39.675781 48.675781 40.125 49.050781 40.648438 C 49.351562 41.101562 49.574219 41.851562 49.574219 42.449219 C 49.5 43.050781 49.351562 43.800781 48.898438 44.25 C 48.300781 44.773438 47.101562 45.375 46.273438 45.300781 C 45.449219 45.226562 44.324219 44.550781 43.949219 43.800781 C 43.5 43.050781 43.5 41.699219 43.875 40.949219 C 44.25 40.273438 45.375 39.449219 46.199219 39.375 C 47.023438 39.300781 48.300781 39.75 48.824219 40.351562 C 49.351562 40.949219 49.574219 42.300781 49.425781 43.125 C 49.351562 43.726562 48.976562 44.175781 48.375 44.699219 C 47.398438 45.675781 43.425781 47.101562 43.574219 47.699219 C 43.648438 48.148438 45.601562 48.449219 46.875 48.300781 C 48.75 48.148438 52.199219 47.023438 53.476562 45.75 C 54.449219 44.851562 54.675781 43.5 54.824219 42.375 C 54.976562 41.175781 54.898438 40.050781 54.375 38.851562 C 53.625 37.050781 51.824219 33.824219 49.726562 32.925781 C 47.550781 31.949219 44.023438 32.699219 41.476562 33.449219 C 38.925781 34.199219 35.699219 35.773438 34.425781 37.273438 C 33.523438 38.175781 33.375 39 33.226562 40.351562 C 32.925781 42.675781 33.226562 47.925781 34.199219 50.25 C 34.875 51.75 35.851562 52.351562 36.976562 53.398438 C 38.550781 54.824219 41.175781 56.699219 42.824219 57.675781 C 43.949219 58.273438 44.699219 58.800781 45.675781 58.949219 C 46.875 59.101562 48.148438 58.875 49.425781 58.5 C 50.851562 58.125 52.199219 57.675781 53.851562 56.625 C 56.625 54.75 61.351562 48 63.976562 47.324219 C 65.25 47.023438 66.601562 47.625 67.273438 48.226562 C 67.800781 48.675781 68.023438 49.574219 67.949219 50.25 C 67.949219 50.925781 67.199219 52.199219 67.199219 52.199219 " clip-rule="nonzero"/></clipPath><clipPath id="50145183b4"><path d="M 0.828125 0.5 L 42 0.5 L 42 39 L 0.828125 39 Z M 0.828125 0.5 " clip-rule="nonzero"/></clipPath><clipPath id="d64a30c70f"><path d="M 41.199219 26.199219 C 32.5 34.675781 30.925781 36.023438 28.675781 37 C 26.199219 38.125 22.523438 39.101562 19.898438 38.949219 C 17.726562 38.800781 16 38.050781 13.898438 36.925781 C 11.125 35.425781 6.773438 32.050781 4.976562 30.175781 C 3.925781 29.125 3.550781 28.523438 3.023438 27.25 C 2.273438 25.523438 1.75 22.824219 1.449219 20.425781 C 1.074219 17.875 0.699219 14.726562 1.226562 12.398438 C 1.601562 10.523438 2.5 8.875 3.773438 7.449219 C 5.125 5.800781 7.375 4.375 9.476562 3.324219 C 11.648438 2.199219 14.425781 1.523438 16.523438 1.074219 C 18.25 0.699219 19.675781 0.550781 21.101562 0.550781 C 22.449219 0.625 23.726562 0.550781 25.074219 1.074219 C 26.574219 1.675781 28.449219 3.101562 29.648438 4.300781 C 30.773438 5.425781 31.523438 6.699219 32.273438 7.898438 C 33.101562 9.175781 33.925781 10.523438 34.300781 11.875 C 34.75 13.148438 34.898438 14.574219 34.824219 16 C 34.75 17.5 34.601562 19.375 33.925781 20.800781 C 33.175781 22.300781 31.976562 23.726562 30.550781 24.925781 C 28.824219 26.199219 26.125 27.476562 24.023438 28 C 22.074219 28.449219 20.125 28.449219 18.324219 28.074219 C 16.675781 27.699219 14.800781 27.023438 13.75 26.050781 C 12.773438 25.226562 12.101562 24.023438 12.023438 22.824219 C 11.875 21.476562 12.625 19.675781 13.601562 18.25 C 14.800781 16.449219 18.023438 14.050781 19.523438 13.523438 C 20.273438 13.226562 20.875 13.300781 21.476562 13.449219 C 22.074219 13.675781 22.675781 14.125 23.050781 14.648438 C 23.351562 15.101562 23.574219 15.851562 23.574219 16.449219 C 23.5 17.050781 23.351562 17.800781 22.898438 18.25 C 22.300781 18.773438 21.101562 19.375 20.273438 19.300781 C 19.449219 19.226562 18.324219 18.550781 17.949219 17.800781 C 17.5 17.050781 17.5 15.699219 17.875 14.949219 C 18.25 14.273438 19.375 13.449219 20.199219 13.375 C 21.023438 13.300781 22.300781 13.75 22.824219 14.351562 C 23.351562 14.949219 23.574219 16.300781 23.425781 17.125 C 23.351562 17.726562 22.976562 18.175781 22.375 18.699219 C 21.398438 19.675781 17.425781 21.101562 17.574219 21.699219 C 17.648438 22.148438 19.601562 22.449219 20.875 22.300781 C 22.75 22.148438 26.199219 21.023438 27.476562 19.75 C 28.449219 18.851562 28.675781 17.5 28.824219 16.375 C 28.976562 15.175781 28.898438 14.050781 28.375 12.851562 C 27.625 11.050781 25.824219 7.824219 23.726562 6.925781 C 21.550781 5.949219 18.023438 6.699219 15.476562 7.449219 C 12.925781 8.199219 9.699219 9.773438 8.425781 11.273438 C 7.523438 12.175781 7.375 13 7.226562 14.351562 C 6.925781 16.675781 7.226562 21.925781 8.199219 24.25 C 8.875 25.75 9.851562 26.351562 10.976562 27.398438 C 12.550781 28.824219 15.175781 30.699219 16.824219 31.675781 C 17.949219 32.273438 18.699219 32.800781 19.675781 32.949219 C 20.875 33.101562 22.148438 32.875 23.425781 32.5 C 24.851562 32.125 26.199219 31.675781 27.851562 30.625 C 30.625 28.75 35.351562 22 37.976562 21.324219 C 39.25 21.023438 40.601562 21.625 41.273438 22.226562 C 41.800781 22.675781 42.023438 23.574219 41.949219 24.25 C 41.949219 24.925781 41.199219 26.199219 41.199219 26.199219 " clip-rule="nonzero"/></clipPath><clipPath id="ca8e87f569"><rect x="0" width="42" y="0" height="39"/></clipPath><clipPath id="e657cba49a"><path d="M 34.664062 3 L 41.761719 3 L 41.761719 17.636719 L 34.664062 17.636719 Z M 34.664062 3 " clip-rule="nonzero"/></clipPath><clipPath id="965bc22eec"><path d="M 40.726562 5.773438 C 41.476562 16.050781 41.175781 16.5 40.726562 16.875 C 40.199219 17.25 39.523438 17.625 38.925781 17.625 C 38.101562 17.550781 36.898438 17.023438 36.375 16.425781 C 35.925781 15.976562 35.773438 15.226562 35.773438 14.625 C 35.699219 14.023438 35.925781 13.273438 36.375 12.824219 C 36.824219 12.226562 38.101562 11.625 38.851562 11.625 C 39.523438 11.550781 40.199219 11.925781 40.648438 12.300781 C 41.101562 12.675781 41.550781 13.351562 41.699219 13.949219 C 41.773438 14.550781 41.699219 15.300781 41.476562 15.824219 C 41.25 16.425781 40.726562 16.949219 40.125 17.25 C 39.601562 17.550781 38.851562 17.625 38.25 17.550781 C 37.648438 17.476562 37.050781 17.324219 36.601562 16.648438 C 35.476562 15.148438 34.5 8.550781 34.726562 6.226562 C 34.875 5.101562 35.25 4.199219 35.851562 3.675781 C 36.375 3.226562 37.199219 3 37.875 3 C 38.550781 3.074219 39.300781 3.375 39.824219 3.824219 C 40.273438 4.351562 40.726562 5.773438 40.726562 5.773438 " clip-rule="nonzero"/></clipPath><clipPath id="34da1f944d"><path d="M 0.664062 0 L 7.761719 0 L 7.761719 14.636719 L 0.664062 14.636719 Z M 0.664062 0 " clip-rule="nonzero"/></clipPath><clipPath id="df015ee7c0"><path d="M 6.726562 2.773438 C 7.476562 13.050781 7.175781 13.5 6.726562 13.875 C 6.199219 14.25 5.523438 14.625 4.925781 14.625 C 4.101562 14.550781 2.898438 14.023438 2.375 13.425781 C 1.925781 12.976562 1.773438 12.226562 1.773438 11.625 C 1.699219 11.023438 1.925781 10.273438 2.375 9.824219 C 2.824219 9.226562 4.101562 8.625 4.851562 8.625 C 5.523438 8.550781 6.199219 8.925781 6.648438 9.300781 C 7.101562 9.675781 7.550781 10.351562 7.699219 10.949219 C 7.773438 11.550781 7.699219 12.300781 7.476562 12.824219 C 7.25 13.425781 6.726562 13.949219 6.125 14.25 C 5.601562 14.550781 4.851562 14.625 4.25 14.550781 C 3.648438 14.476562 3.050781 14.324219 2.601562 13.648438 C 1.476562 12.148438 0.5 5.550781 0.726562 3.226562 C 0.875 2.101562 1.25 1.199219 1.851562 0.675781 C 2.375 0.226562 3.199219 0 3.875 0 C 4.550781 0.0742188 5.300781 0.375 5.824219 0.824219 C 6.273438 1.351562 6.726562 2.773438 6.726562 2.773438 " clip-rule="nonzero"/></clipPath><clipPath id="862cd07caa"><rect x="0" width="8" y="0" height="15"/></clipPath><clipPath id="6185206bc6"><path d="M 50.375 5.65625 L 60.625 5.65625 L 60.625 19.894531 L 50.375 19.894531 Z M 50.375 5.65625 " clip-rule="nonzero"/></clipPath><clipPath id="8d5375b2de"><path d="M 60.375 9.824219 C 55.425781 19.050781 55.125 19.351562 54.601562 19.648438 C 54 19.875 53.25 19.949219 52.648438 19.800781 C 52.050781 19.648438 51.449219 19.199219 51.074219 18.75 C 50.625 18.300781 50.398438 17.550781 50.398438 16.949219 C 50.324219 16.351562 50.550781 15.601562 50.925781 15.148438 C 51.300781 14.625 51.824219 14.175781 52.5 14.023438 C 53.25 13.800781 54.601562 14.023438 55.199219 14.550781 C 55.875 15 56.398438 16.273438 56.324219 17.101562 C 56.324219 17.925781 55.5 19.050781 54.824219 19.5 C 54.300781 19.800781 53.550781 19.949219 52.949219 19.875 C 52.351562 19.726562 51.675781 19.425781 51.226562 18.976562 C 50.851562 18.601562 50.476562 17.851562 50.398438 17.25 C 50.324219 16.648438 50.476562 16.199219 50.773438 15.375 C 51.449219 13.425781 54 7.273438 55.875 6.148438 C 56.925781 5.476562 58.5 5.625 59.25 6 C 59.925781 6.300781 60.375 7.050781 60.523438 7.726562 C 60.75 8.324219 60.375 9.824219 60.375 9.824219 " clip-rule="nonzero"/></clipPath><clipPath id="3e137ffc09"><path d="M 0.375 0.65625 L 10.625 0.65625 L 10.625 14.894531 L 0.375 14.894531 Z M 0.375 0.65625 " clip-rule="nonzero"/></clipPath><clipPath id="082e1a208a"><path d="M 10.375 4.824219 C 5.425781 14.050781 5.125 14.351562 4.601562 14.648438 C 4 14.875 3.25 14.949219 2.648438 14.800781 C 2.050781 14.648438 1.449219 14.199219 1.074219 13.75 C 0.625 13.300781 0.398438 12.550781 0.398438 11.949219 C 0.324219 11.351562 0.550781 10.601562 0.925781 10.148438 C 1.300781 9.625 1.824219 9.175781 2.5 9.023438 C 3.25 8.800781 4.601562 9.023438 5.199219 9.550781 C 5.875 10 6.398438 11.273438 6.324219 12.101562 C 6.324219 12.925781 5.5 14.050781 4.824219 14.5 C 4.300781 14.800781 3.550781 14.949219 2.949219 14.875 C 2.351562 14.726562 1.675781 14.425781 1.226562 13.976562 C 0.851562 13.601562 0.476562 12.851562 0.398438 12.25 C 0.324219 11.648438 0.476562 11.199219 0.773438 10.375 C 1.449219 8.425781 4 2.273438 5.875 1.148438 C 6.925781 0.476562 8.5 0.625 9.25 1 C 9.925781 1.300781 10.375 2.050781 10.523438 2.726562 C 10.75 3.324219 10.375 4.824219 10.375 4.824219 " clip-rule="nonzero"/></clipPath><clipPath id="1552208b71"><rect x="0" width="11" y="0" height="15"/></clipPath><clipPath id="0c05d0efb4"><path d="M 61.691406 14.363281 L 77.332031 14.363281 L 77.332031 27.410156 L 61.691406 27.410156 Z M 61.691406 14.363281 " clip-rule="nonzero"/></clipPath><clipPath id="a739cab555"><path d="M 76.125 19.726562 C 64.351562 27.523438 63.449219 27.148438 62.773438 26.699219 C 62.25 26.324219 61.949219 25.648438 61.800781 25.050781 C 61.648438 24.523438 61.648438 23.773438 62.023438 23.175781 C 62.398438 22.5 63.449219 21.675781 64.199219 21.449219 C 64.875 21.300781 65.550781 21.523438 66.148438 21.75 C 66.675781 22.050781 67.199219 22.648438 67.425781 23.175781 C 67.726562 23.699219 67.800781 24.449219 67.648438 25.050781 C 67.5 25.648438 67.199219 26.324219 66.675781 26.699219 C 66.074219 27.148438 64.726562 27.523438 63.898438 27.300781 C 63.148438 27.074219 62.175781 26.101562 61.875 25.425781 C 61.648438 24.824219 61.648438 24.074219 61.875 23.476562 C 62.101562 22.875 62.398438 22.574219 63 21.976562 C 64.726562 20.324219 71.25 14.625 73.800781 14.398438 C 75.074219 14.324219 76.351562 15.148438 76.875 15.824219 C 77.324219 16.351562 77.398438 17.25 77.25 17.925781 C 77.175781 18.601562 76.125 19.726562 76.125 19.726562 " clip-rule="nonzero"/></clipPath><clipPath id="37c82f1395"><path d="M 0.691406 0.363281 L 16.332031 0.363281 L 16.332031 13.410156 L 0.691406 13.410156 Z M 0.691406 0.363281 " clip-rule="nonzero"/></clipPath><clipPath id="a3941e725e"><path d="M 15.125 5.726562 C 3.351562 13.523438 2.449219 13.148438 1.773438 12.699219 C 1.25 12.324219 0.949219 11.648438 0.800781 11.050781 C 0.648438 10.523438 0.648438 9.773438 1.023438 9.175781 C 1.398438 8.5 2.449219 7.675781 3.199219 7.449219 C 3.875 7.300781 4.550781 7.523438 5.148438 7.75 C 5.675781 8.050781 6.199219 8.648438 6.425781 9.175781 C 6.726562 9.699219 6.800781 10.449219 6.648438 11.050781 C 6.5 11.648438 6.199219 12.324219 5.675781 12.699219 C 5.074219 13.148438 3.726562 13.523438 2.898438 13.300781 C 2.148438 13.074219 1.175781 12.101562 0.875 11.425781 C 0.648438 10.824219 0.648438 10.074219 0.875 9.476562 C 1.101562 8.875 1.398438 8.574219 2 7.976562 C 3.726562 6.324219 10.25 0.625 12.800781 0.398438 C 14.074219 0.324219 15.351562 1.148438 15.875 1.824219 C 16.324219 2.351562 16.398438 3.25 16.25 3.925781 C 16.175781 4.601562 15.125 5.726562 15.125 5.726562 " clip-rule="nonzero"/></clipPath><clipPath id="c10e8e5c2e"><rect x="0" width="17" y="0" height="14"/></clipPath><clipPath id="8eafb91198"><path d="M 71.515625 35.777344 L 88.441406 35.777344 L 88.441406 42.535156 L 71.515625 42.535156 Z M 71.515625 35.777344 " clip-rule="nonzero"/></clipPath><clipPath id="40161d6465"><path d="M 85.199219 42.523438 C 72.75 41.550781 72.375 41.175781 72.074219 40.726562 C 71.699219 40.199219 71.550781 39.449219 71.550781 38.851562 C 71.625 38.25 71.925781 37.574219 72.300781 37.050781 C 72.675781 36.601562 73.351562 36.226562 73.949219 36.148438 C 74.773438 36 76.050781 36.449219 76.648438 36.898438 C 77.175781 37.351562 77.476562 38.023438 77.550781 38.625 C 77.625 39.226562 77.550781 39.976562 77.175781 40.5 C 76.726562 41.175781 75.601562 41.925781 74.851562 42.074219 C 74.175781 42.148438 73.5 41.925781 72.976562 41.625 C 72.449219 41.25 72 40.726562 71.773438 40.125 C 71.550781 39.523438 71.476562 38.773438 71.699219 38.175781 C 72 37.5 72.601562 36.601562 73.648438 36.226562 C 75.898438 35.324219 83.398438 36 85.648438 36.601562 C 86.625 36.824219 87.074219 36.976562 87.601562 37.5 C 88.050781 37.949219 88.351562 38.773438 88.425781 39.449219 C 88.425781 40.125 88.199219 40.949219 87.75 41.476562 C 87.226562 42.074219 85.199219 42.523438 85.199219 42.523438 " clip-rule="nonzero"/></clipPath><clipPath id="9a7bcc73dc"><path d="M 0.515625 0.777344 L 17.441406 0.777344 L 17.441406 7.535156 L 0.515625 7.535156 Z M 0.515625 0.777344 " clip-rule="nonzero"/></clipPath><clipPath id="e6416c0b99"><path d="M 14.199219 7.523438 C 1.75 6.550781 1.375 6.175781 1.074219 5.726562 C 0.699219 5.199219 0.550781 4.449219 0.550781 3.851562 C 0.625 3.25 0.925781 2.574219 1.300781 2.050781 C 1.675781 1.601562 2.351562 1.226562 2.949219 1.148438 C 3.773438 1 5.050781 1.449219 5.648438 1.898438 C 6.175781 2.351562 6.476562 3.023438 6.550781 3.625 C 6.625 4.226562 6.550781 4.976562 6.175781 5.5 C 5.726562 6.175781 4.601562 6.925781 3.851562 7.074219 C 3.175781 7.148438 2.5 6.925781 1.976562 6.625 C 1.449219 6.25 1 5.726562 0.773438 5.125 C 0.550781 4.523438 0.476562 3.773438 0.699219 3.175781 C 1 2.5 1.601562 1.601562 2.648438 1.226562 C 4.898438 0.324219 12.398438 1 14.648438 1.601562 C 15.625 1.824219 16.074219 1.976562 16.601562 2.5 C 17.050781 2.949219 17.351562 3.773438 17.425781 4.449219 C 17.425781 5.125 17.199219 5.949219 16.75 6.476562 C 16.226562 7.074219 14.199219 7.523438 14.199219 7.523438 " clip-rule="nonzero"/></clipPath><clipPath id="4d584eab4a"><rect x="0" width="18" y="0" height="8"/></clipPath><clipPath id="4e29b8f821"><path d="M 64.460938 58.460938 L 75.988281 58.460938 L 75.988281 68.851562 L 64.460938 68.851562 Z M 64.460938 58.460938 " clip-rule="nonzero"/></clipPath><clipPath id="06511d3568"><path d="M 71.175781 68.398438 C 64.273438 61.199219 64.726562 60.074219 65.324219 59.476562 C 65.851562 58.875 67.125 58.425781 67.949219 58.574219 C 68.773438 58.648438 69.824219 59.550781 70.199219 60.226562 C 70.5 60.824219 70.574219 61.574219 70.425781 62.175781 C 70.273438 62.699219 69.898438 63.375 69.449219 63.824219 C 69 64.199219 68.25 64.5 67.648438 64.5 C 67.050781 64.574219 66.300781 64.425781 65.851562 63.976562 C 65.25 63.523438 64.5 62.398438 64.5 61.5 C 64.5 60.675781 65.175781 59.550781 65.773438 59.023438 C 66.300781 58.648438 67.050781 58.5 67.648438 58.5 C 68.25 58.574219 68.699219 58.800781 69.449219 59.25 C 70.800781 60 73.875 62.476562 74.925781 63.75 C 75.523438 64.425781 75.976562 64.875 75.976562 65.550781 C 76.050781 66.449219 75.375 68.175781 74.550781 68.625 C 73.800781 69.148438 71.175781 68.398438 71.175781 68.398438 " clip-rule="nonzero"/></clipPath><clipPath id="a8bfdd2e8a"><path d="M 0.460938 0.460938 L 11.988281 0.460938 L 11.988281 10.851562 L 0.460938 10.851562 Z M 0.460938 0.460938 " clip-rule="nonzero"/></clipPath><clipPath id="913945a5f8"><path d="M 7.175781 10.398438 C 0.273438 3.199219 0.726562 2.074219 1.324219 1.476562 C 1.851562 0.875 3.125 0.425781 3.949219 0.574219 C 4.773438 0.648438 5.824219 1.550781 6.199219 2.226562 C 6.5 2.824219 6.574219 3.574219 6.425781 4.175781 C 6.273438 4.699219 5.898438 5.375 5.449219 5.824219 C 5 6.199219 4.25 6.5 3.648438 6.5 C 3.050781 6.574219 2.300781 6.425781 1.851562 5.976562 C 1.25 5.523438 0.5 4.398438 0.5 3.5 C 0.5 2.675781 1.175781 1.550781 1.773438 1.023438 C 2.300781 0.648438 3.050781 0.5 3.648438 0.5 C 4.25 0.574219 4.699219 0.800781 5.449219 1.25 C 6.800781 2 9.875 4.476562 10.925781 5.75 C 11.523438 6.425781 11.976562 6.875 11.976562 7.550781 C 12.050781 8.449219 11.375 10.175781 10.550781 10.625 C 9.800781 11.148438 7.175781 10.398438 7.175781 10.398438 " clip-rule="nonzero"/></clipPath><clipPath id="13691b99d0"><rect x="0" width="12" y="0" height="11"/></clipPath><clipPath id="fcc9a53be1"><path d="M 73.828125 51.703125 L 90.121094 51.703125 L 90.121094 59.296875 L 73.828125 59.296875 Z M 73.828125 51.703125 " clip-rule="nonzero"/></clipPath><clipPath id="e312ac05d9"><path d="M 87 59.25 C 74.023438 56.324219 73.949219 55.726562 73.875 55.125 C 73.800781 54.523438 73.949219 53.773438 74.25 53.25 C 74.550781 52.726562 75.074219 52.199219 75.675781 51.976562 C 76.199219 51.675781 76.949219 51.675781 77.550781 51.824219 C 78.148438 51.976562 78.824219 52.273438 79.199219 52.800781 C 79.574219 53.476562 79.949219 54.824219 79.726562 55.574219 C 79.425781 56.398438 78.523438 57.300781 77.699219 57.601562 C 76.949219 57.824219 75.601562 57.449219 74.925781 57.074219 C 74.398438 56.699219 74.101562 56.023438 73.949219 55.425781 C 73.800781 54.824219 73.800781 54.074219 74.101562 53.550781 C 74.324219 52.949219 74.851562 52.425781 75.375 52.125 C 75.898438 51.824219 76.351562 51.75 77.25 51.75 C 79.5 51.75 87.601562 52.425781 89.25 54.074219 C 90.148438 54.976562 90.300781 56.550781 89.925781 57.449219 C 89.550781 58.273438 87 59.25 87 59.25 " clip-rule="nonzero"/></clipPath><clipPath id="90bf6003be"><path d="M 0.828125 0.703125 L 17.121094 0.703125 L 17.121094 8.28125 L 0.828125 8.28125 Z M 0.828125 0.703125 " clip-rule="nonzero"/></clipPath><clipPath id="d45903bb0e"><path d="M 14 8.25 C 1.023438 5.324219 0.949219 4.726562 0.875 4.125 C 0.800781 3.523438 0.949219 2.773438 1.25 2.25 C 1.550781 1.726562 2.074219 1.199219 2.675781 0.976562 C 3.199219 0.675781 3.949219 0.675781 4.550781 0.824219 C 5.148438 0.976562 5.824219 1.273438 6.199219 1.800781 C 6.574219 2.476562 6.949219 3.824219 6.726562 4.574219 C 6.425781 5.398438 5.523438 6.300781 4.699219 6.601562 C 3.949219 6.824219 2.601562 6.449219 1.925781 6.074219 C 1.398438 5.699219 1.101562 5.023438 0.949219 4.425781 C 0.800781 3.824219 0.800781 3.074219 1.101562 2.550781 C 1.324219 1.949219 1.851562 1.425781 2.375 1.125 C 2.898438 0.824219 3.351562 0.75 4.25 0.75 C 6.5 0.75 14.601562 1.425781 16.25 3.074219 C 17.148438 3.976562 17.300781 5.550781 16.925781 6.449219 C 16.550781 7.273438 14 8.25 14 8.25 " clip-rule="nonzero"/></clipPath><clipPath id="6d28549c5f"><rect x="0" width="18" y="0" height="9"/></clipPath><clipPath id="512a578968"><path d="M 54.851562 65.050781 L 66.191406 65.050781 L 66.191406 80.816406 L 54.851562 80.816406 Z M 54.851562 65.050781 " clip-rule="nonzero"/></clipPath><clipPath id="9303298348"><path d="M 60.375 78.898438 C 57.148438 70.949219 55.875 70.5 55.351562 69.675781 C 55.050781 69.074219 54.898438 68.476562 54.898438 67.800781 C 54.976562 67.199219 55.199219 66.523438 55.648438 66.074219 C 56.25 65.550781 57.523438 65.023438 58.273438 65.101562 C 58.949219 65.101562 59.625 65.550781 60 65.925781 C 60.449219 66.375 60.824219 67.050781 60.898438 67.648438 C 60.898438 68.476562 60.449219 69.75 59.925781 70.273438 C 59.476562 70.800781 58.726562 71.023438 58.125 71.101562 C 57.523438 71.101562 56.773438 70.949219 56.324219 70.574219 C 55.800781 70.273438 55.273438 69.675781 55.125 69.074219 C 54.898438 68.550781 54.824219 67.800781 55.050781 67.199219 C 55.351562 66.449219 56.25 65.476562 57 65.175781 C 57.824219 64.949219 58.875 65.25 59.773438 65.699219 C 60.976562 66.375 62.324219 67.875 63.300781 69.523438 C 64.5 71.476562 65.773438 75.226562 66.074219 76.949219 C 66.226562 77.851562 66.226562 78.449219 66 79.125 C 65.699219 79.726562 65.101562 80.398438 64.5 80.625 C 63.75 80.925781 62.398438 80.851562 61.726562 80.476562 C 61.125 80.175781 60.375 78.824219 60.375 78.824219 " clip-rule="nonzero"/></clipPath><clipPath id="507cc047b8"><path d="M 0.851562 0.0507812 L 12.191406 0.0507812 L 12.191406 15.816406 L 0.851562 15.816406 Z M 0.851562 0.0507812 " clip-rule="nonzero"/></clipPath><clipPath id="8dcabba842"><path d="M 6.375 13.898438 C 3.148438 5.949219 1.875 5.5 1.351562 4.675781 C 1.050781 4.074219 0.898438 3.476562 0.898438 2.800781 C 0.976562 2.199219 1.199219 1.523438 1.648438 1.074219 C 2.25 0.550781 3.523438 0.0234375 4.273438 0.101562 C 4.949219 0.101562 5.625 0.550781 6 0.925781 C 6.449219 1.375 6.824219 2.050781 6.898438 2.648438 C 6.898438 3.476562 6.449219 4.75 5.925781 5.273438 C 5.476562 5.800781 4.726562 6.023438 4.125 6.101562 C 3.523438 6.101562 2.773438 5.949219 2.324219 5.574219 C 1.800781 5.273438 1.273438 4.675781 1.125 4.074219 C 0.898438 3.550781 0.824219 2.800781 1.050781 2.199219 C 1.351562 1.449219 2.25 0.476562 3 0.175781 C 3.824219 -0.0507812 4.875 0.25 5.773438 0.699219 C 6.976562 1.375 8.324219 2.875 9.300781 4.523438 C 10.5 6.476562 11.773438 10.226562 12.074219 11.949219 C 12.226562 12.851562 12.226562 13.449219 12 14.125 C 11.699219 14.726562 11.101562 15.398438 10.5 15.625 C 9.75 15.925781 8.398438 15.851562 7.726562 15.476562 C 7.125 15.175781 6.375 13.824219 6.375 13.824219 " clip-rule="nonzero"/></clipPath><clipPath id="cf44a451cd"><rect x="0" width="13" y="0" height="16"/></clipPath><clipPath id="58f8511ec1"><path d="M 38.203125 67.304688 L 48.109375 67.304688 L 48.109375 83.792969 L 38.203125 83.792969 Z M 38.203125 67.304688 " clip-rule="nonzero"/></clipPath><clipPath id="e1251bb535"><path d="M 38.25 79.800781 C 43.574219 67.5 44.175781 67.425781 44.773438 67.351562 C 45.375 67.273438 46.125 67.5 46.648438 67.800781 C 47.175781 68.101562 47.625 68.699219 47.851562 69.300781 C 48.074219 69.824219 48.148438 70.574219 47.925781 71.175781 C 47.625 71.925781 46.726562 72.976562 45.976562 73.199219 C 45.148438 73.425781 43.875 73.199219 43.199219 72.675781 C 42.523438 72.226562 42 70.949219 42.074219 70.125 C 42.074219 69.300781 42.824219 68.175781 43.574219 67.726562 C 44.25 67.351562 45.601562 67.351562 46.351562 67.648438 C 46.949219 67.875 47.476562 68.324219 47.699219 69 C 48.148438 70.125 47.773438 72.300781 47.324219 74.101562 C 46.726562 76.574219 44.851562 80.476562 43.800781 82.050781 C 43.273438 82.875 42.976562 83.398438 42.300781 83.625 C 41.476562 83.925781 39.675781 83.773438 38.925781 83.101562 C 38.25 82.5 38.25 79.800781 38.25 79.800781 " clip-rule="nonzero"/></clipPath><clipPath id="184165c278"><path d="M 0.203125 0.304688 L 10.109375 0.304688 L 10.109375 16.792969 L 0.203125 16.792969 Z M 0.203125 0.304688 " clip-rule="nonzero"/></clipPath><clipPath id="106df6efaa"><path d="M 0.25 12.800781 C 5.574219 0.5 6.175781 0.425781 6.773438 0.351562 C 7.375 0.273438 8.125 0.5 8.648438 0.800781 C 9.175781 1.101562 9.625 1.699219 9.851562 2.300781 C 10.074219 2.824219 10.148438 3.574219 9.925781 4.175781 C 9.625 4.925781 8.726562 5.976562 7.976562 6.199219 C 7.148438 6.425781 5.875 6.199219 5.199219 5.675781 C 4.523438 5.226562 4 3.949219 4.074219 3.125 C 4.074219 2.300781 4.824219 1.175781 5.574219 0.726562 C 6.25 0.351562 7.601562 0.351562 8.351562 0.648438 C 8.949219 0.875 9.476562 1.324219 9.699219 2 C 10.148438 3.125 9.773438 5.300781 9.324219 7.101562 C 8.726562 9.574219 6.851562 13.476562 5.800781 15.050781 C 5.273438 15.875 4.976562 16.398438 4.300781 16.625 C 3.476562 16.925781 1.675781 16.773438 0.925781 16.101562 C 0.25 15.5 0.25 12.800781 0.25 12.800781 " clip-rule="nonzero"/></clipPath><clipPath id="9c6ed9e8b3"><rect x="0" width="11" y="0" height="17"/></clipPath><clipPath id="bda4ac27ed"><path d="M 22.359375 62.484375 L 33.964844 62.484375 L 33.964844 79.617188 L 22.359375 79.617188 Z M 22.359375 62.484375 " clip-rule="nonzero"/></clipPath><clipPath id="f1ef6af750"><path d="M 22.425781 75.226562 C 30.074219 62.476562 30.675781 62.476562 31.273438 62.550781 C 31.875 62.625 32.550781 62.925781 33 63.375 C 33.449219 63.824219 33.75 64.5 33.898438 65.101562 C 33.976562 65.699219 33.898438 66.449219 33.601562 66.976562 C 33.148438 67.648438 32.023438 68.476562 31.273438 68.550781 C 30.449219 68.625 29.175781 68.101562 28.648438 67.5 C 28.125 66.824219 27.824219 65.550781 28.050781 64.726562 C 28.273438 63.976562 29.175781 63 30 62.699219 C 30.75 62.476562 32.101562 62.773438 32.699219 63.148438 C 33.300781 63.523438 33.675781 63.976562 33.824219 64.726562 C 33.976562 66.226562 32.699219 69.226562 31.574219 71.476562 C 30.300781 74.101562 28.050781 78.75 26.175781 79.425781 C 25.125 79.875 23.476562 79.351562 22.875 78.675781 C 22.273438 77.925781 22.425781 75.226562 22.425781 75.226562 " clip-rule="nonzero"/></clipPath><clipPath id="5634361f54"><path d="M 0.359375 0.484375 L 11.964844 0.484375 L 11.964844 17.617188 L 0.359375 17.617188 Z M 0.359375 0.484375 " clip-rule="nonzero"/></clipPath><clipPath id="c685fa17e8"><path d="M 0.425781 13.226562 C 8.074219 0.476562 8.675781 0.476562 9.273438 0.550781 C 9.875 0.625 10.550781 0.925781 11 1.375 C 11.449219 1.824219 11.75 2.5 11.898438 3.101562 C 11.976562 3.699219 11.898438 4.449219 11.601562 4.976562 C 11.148438 5.648438 10.023438 6.476562 9.273438 6.550781 C 8.449219 6.625 7.175781 6.101562 6.648438 5.5 C 6.125 4.824219 5.824219 3.550781 6.050781 2.726562 C 6.273438 1.976562 7.175781 1 8 0.699219 C 8.75 0.476562 10.101562 0.773438 10.699219 1.148438 C 11.300781 1.523438 11.675781 1.976562 11.824219 2.726562 C 11.976562 4.226562 10.699219 7.226562 9.574219 9.476562 C 8.300781 12.101562 6.050781 16.75 4.175781 17.425781 C 3.125 17.875 1.476562 17.351562 0.875 16.675781 C 0.273438 15.925781 0.425781 13.226562 0.425781 13.226562 " clip-rule="nonzero"/></clipPath><clipPath id="f7cad3caae"><rect x="0" width="12" y="0" height="18"/></clipPath><clipPath id="5672903be5"><path d="M 8 56.484375 L 22.328125 56.484375 L 22.328125 66.578125 L 8 66.578125 Z M 8 56.484375 " clip-rule="nonzero"/></clipPath><clipPath id="df0e5a315d"><path d="M 9.449219 60.976562 C 20.101562 56.476562 20.550781 56.699219 21.074219 57.074219 C 21.523438 57.449219 21.976562 58.050781 22.199219 58.648438 C 22.351562 59.175781 22.351562 60 22.125 60.523438 C 21.898438 61.125 21.449219 61.726562 20.925781 62.023438 C 20.398438 62.324219 19.726562 62.625 19.050781 62.476562 C 18.300781 62.324219 17.101562 61.726562 16.726562 60.976562 C 16.273438 60.226562 16.351562 58.875 16.648438 58.125 C 16.875 57.523438 17.476562 57.074219 18 56.773438 C 18.523438 56.550781 19.273438 56.476562 19.875 56.550781 C 20.476562 56.699219 21.148438 57.074219 21.523438 57.523438 C 21.976562 57.976562 22.273438 58.648438 22.273438 59.25 C 22.351562 59.851562 22.351562 60.449219 21.824219 61.125 C 20.625 62.625 14.550781 65.398438 12.523438 66.148438 C 11.625 66.449219 11.101562 66.675781 10.425781 66.449219 C 9.601562 66.226562 8.175781 64.949219 8.023438 64.050781 C 7.875 63.148438 9.449219 60.976562 9.449219 60.976562 " clip-rule="nonzero"/></clipPath><clipPath id="3841838c30"><path d="M 0 0.484375 L 14.328125 0.484375 L 14.328125 10.578125 L 0 10.578125 Z M 0 0.484375 " clip-rule="nonzero"/></clipPath><clipPath id="55f21dfdc9"><path d="M 1.449219 4.976562 C 12.101562 0.476562 12.550781 0.699219 13.074219 1.074219 C 13.523438 1.449219 13.976562 2.050781 14.199219 2.648438 C 14.351562 3.175781 14.351562 4 14.125 4.523438 C 13.898438 5.125 13.449219 5.726562 12.925781 6.023438 C 12.398438 6.324219 11.726562 6.625 11.050781 6.476562 C 10.300781 6.324219 9.101562 5.726562 8.726562 4.976562 C 8.273438 4.226562 8.351562 2.875 8.648438 2.125 C 8.875 1.523438 9.476562 1.074219 10 0.773438 C 10.523438 0.550781 11.273438 0.476562 11.875 0.550781 C 12.476562 0.699219 13.148438 1.074219 13.523438 1.523438 C 13.976562 1.976562 14.273438 2.648438 14.273438 3.25 C 14.351562 3.851562 14.351562 4.449219 13.824219 5.125 C 12.625 6.625 6.550781 9.398438 4.523438 10.148438 C 3.625 10.449219 3.101562 10.675781 2.425781 10.449219 C 1.601562 10.226562 0.175781 8.949219 0.0234375 8.050781 C -0.125 7.148438 1.449219 4.976562 1.449219 4.976562 " clip-rule="nonzero"/></clipPath><clipPath id="32e9bc08a2"><rect x="0" width="15" y="0" height="11"/></clipPath><clipPath id="d7d7e9eef6"><path d="M 4.929688 43.230469 L 21.0625 43.230469 L 21.0625 50.394531 L 4.929688 50.394531 Z M 4.929688 43.230469 " clip-rule="nonzero"/></clipPath><clipPath id="f5dce18c90"><path d="M 7.574219 44.398438 C 20.324219 43.875 20.625 44.476562 20.851562 45 C 21.074219 45.601562 21.074219 46.351562 20.925781 46.949219 C 20.773438 47.476562 20.324219 48.148438 19.875 48.523438 C 19.425781 48.898438 18.675781 49.199219 18.074219 49.125 C 17.324219 49.050781 16.050781 48.523438 15.601562 47.851562 C 15.074219 47.175781 15 45.75 15.226562 45 C 15.449219 44.398438 15.898438 43.875 16.5 43.574219 C 17.175781 43.199219 18.601562 43.125 19.273438 43.425781 C 19.875 43.648438 20.398438 44.175781 20.699219 44.699219 C 21 45.226562 21.074219 45.976562 21 46.574219 C 20.925781 47.175781 20.550781 47.851562 20.101562 48.300781 C 19.648438 48.75 19.273438 48.898438 18.375 49.125 C 16.273438 49.648438 8.925781 50.851562 6.898438 50.175781 C 6.074219 49.949219 5.625 49.425781 5.324219 48.824219 C 5.023438 48.226562 4.800781 47.398438 5.023438 46.726562 C 5.324219 45.898438 7.574219 44.398438 7.574219 44.398438 " clip-rule="nonzero"/></clipPath><clipPath id="d1d35d9db4"><path d="M 0.929688 0.230469 L 17.0625 0.230469 L 17.0625 7.394531 L 0.929688 7.394531 Z M 0.929688 0.230469 " clip-rule="nonzero"/></clipPath><clipPath id="762a81b97a"><path d="M 3.574219 1.398438 C 16.324219 0.875 16.625 1.476562 16.851562 2 C 17.074219 2.601562 17.074219 3.351562 16.925781 3.949219 C 16.773438 4.476562 16.324219 5.148438 15.875 5.523438 C 15.425781 5.898438 14.675781 6.199219 14.074219 6.125 C 13.324219 6.050781 12.050781 5.523438 11.601562 4.851562 C 11.074219 4.175781 11 2.75 11.226562 2 C 11.449219 1.398438 11.898438 0.875 12.5 0.574219 C 13.175781 0.199219 14.601562 0.125 15.273438 0.425781 C 15.875 0.648438 16.398438 1.175781 16.699219 1.699219 C 17 2.226562 17.074219 2.976562 17 3.574219 C 16.925781 4.175781 16.550781 4.851562 16.101562 5.300781 C 15.648438 5.75 15.273438 5.898438 14.375 6.125 C 12.273438 6.648438 4.925781 7.851562 2.898438 7.175781 C 2.074219 6.949219 1.625 6.425781 1.324219 5.824219 C 1.023438 5.226562 0.800781 4.398438 1.023438 3.726562 C 1.324219 2.898438 3.574219 1.398438 3.574219 1.398438 " clip-rule="nonzero"/></clipPath><clipPath id="fa8f0bc60d"><rect x="0" width="18" y="0" height="8"/></clipPath><clipPath id="780b325416"><path d="M 2.898438 28.53125 L 24.382812 28.53125 L 24.382812 38.066406 L 2.898438 38.066406 Z M 2.898438 28.53125 " clip-rule="nonzero"/></clipPath><clipPath id="bd93cd2692"><path d="M 6.75 28.574219 C 23.925781 33.148438 24.074219 33.675781 24.226562 34.273438 C 24.375 34.800781 24.375 35.550781 24.148438 36.148438 C 23.773438 36.824219 22.726562 37.726562 21.976562 37.949219 C 21.375 38.175781 20.625 38.023438 20.023438 37.726562 C 19.5 37.5 18.976562 36.976562 18.675781 36.449219 C 18.375 35.851562 18.226562 35.175781 18.375 34.5 C 18.601562 33.75 19.425781 32.699219 20.101562 32.324219 C 20.625 31.949219 21.375 31.949219 21.976562 32.101562 C 22.574219 32.25 23.25 32.550781 23.625 33.074219 C 24.074219 33.75 24.375 35.101562 24.226562 35.851562 C 24.074219 36.449219 23.625 37.050781 23.101562 37.425781 C 22.648438 37.800781 22.199219 37.949219 21.300781 38.023438 C 18.601562 38.175781 7.726562 35.550781 5.175781 34.351562 C 4.199219 33.976562 3.75 33.675781 3.449219 33.148438 C 3.074219 32.550781 2.851562 31.726562 3 31.050781 C 3.074219 30.375 3.449219 29.625 4.050781 29.175781 C 4.648438 28.726562 6.75 28.574219 6.75 28.574219 " clip-rule="nonzero"/></clipPath><clipPath id="a032126efe"><path d="M 0.898438 0.558594 L 22.382812 0.558594 L 22.382812 10.066406 L 0.898438 10.066406 Z M 0.898438 0.558594 " clip-rule="nonzero"/></clipPath><clipPath id="3ab0b9b9c5"><path d="M 4.75 0.574219 C 21.925781 5.148438 22.074219 5.675781 22.226562 6.273438 C 22.375 6.800781 22.375 7.550781 22.148438 8.148438 C 21.773438 8.824219 20.726562 9.726562 19.976562 9.949219 C 19.375 10.175781 18.625 10.023438 18.023438 9.726562 C 17.5 9.5 16.976562 8.976562 16.675781 8.449219 C 16.375 7.851562 16.226562 7.175781 16.375 6.5 C 16.601562 5.75 17.425781 4.699219 18.101562 4.324219 C 18.625 3.949219 19.375 3.949219 19.976562 4.101562 C 20.574219 4.25 21.25 4.550781 21.625 5.074219 C 22.074219 5.75 22.375 7.101562 22.226562 7.851562 C 22.074219 8.449219 21.625 9.050781 21.101562 9.425781 C 20.648438 9.800781 20.199219 9.949219 19.300781 10.023438 C 16.601562 10.175781 5.726562 7.550781 3.175781 6.351562 C 2.199219 5.976562 1.75 5.675781 1.449219 5.148438 C 1.074219 4.550781 0.851562 3.726562 1 3.050781 C 1.074219 2.375 1.449219 1.625 2.050781 1.175781 C 2.648438 0.726562 4.75 0.574219 4.75 0.574219 " clip-rule="nonzero"/></clipPath><clipPath id="1a74083b1d"><rect x="0" width="23" y="0" height="11"/></clipPath><clipPath id="8cb0745f6d"><path d="M 11.890625 15.621094 L 26.425781 15.621094 L 26.425781 27.207031 L 11.890625 27.207031 Z M 11.890625 15.621094 " clip-rule="nonzero"/></clipPath><clipPath id="16fa4e38bd"><path d="M 16.425781 16.125 C 26.550781 23.925781 26.398438 24.523438 26.175781 25.050781 C 26.023438 25.648438 25.574219 26.25 25.050781 26.625 C 24.601562 27 23.851562 27.226562 23.25 27.148438 C 22.648438 27.148438 21.898438 26.925781 21.449219 26.476562 C 20.925781 25.949219 20.324219 24.675781 20.324219 23.925781 C 20.398438 23.25 20.699219 22.574219 21.148438 22.125 C 21.675781 21.601562 22.949219 21.074219 23.773438 21.226562 C 24.601562 21.300781 25.648438 22.199219 26.023438 22.875 C 26.398438 23.398438 26.398438 24.148438 26.324219 24.75 C 26.175781 25.351562 25.800781 26.023438 25.351562 26.398438 C 24.898438 26.851562 24.148438 27.148438 23.550781 27.148438 C 22.949219 27.226562 22.5 27.074219 21.75 26.699219 C 19.726562 25.800781 13.125 22.199219 12.148438 20.101562 C 11.625 18.976562 12 17.476562 12.449219 16.726562 C 12.824219 16.125 13.648438 15.75 14.324219 15.675781 C 15 15.601562 16.425781 16.125 16.425781 16.125 " clip-rule="nonzero"/></clipPath><clipPath id="cc497cc76c"><path d="M 0.890625 0.621094 L 15.425781 0.621094 L 15.425781 12.207031 L 0.890625 12.207031 Z M 0.890625 0.621094 " clip-rule="nonzero"/></clipPath><clipPath id="7283721163"><path d="M 5.425781 1.125 C 15.550781 8.925781 15.398438 9.523438 15.175781 10.050781 C 15.023438 10.648438 14.574219 11.25 14.050781 11.625 C 13.601562 12 12.851562 12.226562 12.25 12.148438 C 11.648438 12.148438 10.898438 11.925781 10.449219 11.476562 C 9.925781 10.949219 9.324219 9.675781 9.324219 8.925781 C 9.398438 8.25 9.699219 7.574219 10.148438 7.125 C 10.675781 6.601562 11.949219 6.074219 12.773438 6.226562 C 13.601562 6.300781 14.648438 7.199219 15.023438 7.875 C 15.398438 8.398438 15.398438 9.148438 15.324219 9.75 C 15.175781 10.351562 14.800781 11.023438 14.351562 11.398438 C 13.898438 11.851562 13.148438 12.148438 12.550781 12.148438 C 11.949219 12.226562 11.5 12.074219 10.75 11.699219 C 8.726562 10.800781 2.125 7.199219 1.148438 5.101562 C 0.625 3.976562 1 2.476562 1.449219 1.726562 C 1.824219 1.125 2.648438 0.75 3.324219 0.675781 C 4 0.601562 5.425781 1.125 5.425781 1.125 " clip-rule="nonzero"/></clipPath><clipPath id="07f3f42976"><rect x="0" width="16" y="0" height="13"/></clipPath></defs><g clip-path="url(#d10dd51925)"><g clip-path="url(#761c29ded0)"><g transform="matrix(1, 0, 0, 1, 26, 26)"><g clip-path="url(#ca8e87f569)"><g clip-path="url(#50145183b4)"><g clip-path="url(#d64a30c70f)"><rect x="-46.46" width="133.92" fill="#eeeeee" height="125.279994" y="-45.139999" fill-opacity="1"/></g></g></g></g></g></g><g clip-path="url(#e657cba49a)"><g clip-path="url(#965bc22eec)"><g transform="matrix(1, 0, 0, 1, 34, 3)"><g clip-path="url(#862cd07caa)"><g clip-path="url(#34da1f944d)"><g clip-path="url(#df015ee7c0)"><rect x="-54.46" width="133.92" fill="#eeeeee" height="125.279994" y="-22.139999" fill-opacity="1"/></g></g></g></g></g></g><g clip-path="url(#6185206bc6)"><g clip-path="url(#8d5375b2de)"><g transform="matrix(1, 0, 0, 1, 50, 5)"><g clip-path="url(#1552208b71)"><g clip-path="url(#3e137ffc09)"><g clip-path="url(#082e1a208a)"><rect x="-70.46" width="133.92" fill="#eeeeee" height="125.279994" y="-24.139999" fill-opacity="1"/></g></g></g></g></g></g><g clip-path="url(#0c05d0efb4)"><g clip-path="url(#a739cab555)"><g transform="matrix(1, 0, 0, 1, 61, 14)"><g clip-path="url(#c10e8e5c2e)"><g clip-path="url(#37c82f1395)"><g clip-path="url(#a3941e725e)"><rect x="-81.46" width="133.92" fill="#eeeeee" height="125.279994" y="-33.139999" fill-opacity="1"/></g></g></g></g></g></g><g clip-path="url(#8eafb91198)"><g clip-path="url(#40161d6465)"><g transform="matrix(1, 0, 0, 1, 71, 35)"><g clip-path="url(#4d584eab4a)"><g clip-path="url(#9a7bcc73dc)"><g clip-path="url(#e6416c0b99)"><rect x="-91.46" width="133.92" fill="#eeeeee" height="125.279994" y="-54.139999" fill-opacity="1"/></g></g></g></g></g></g><g clip-path="url(#4e29b8f821)"><g clip-path="url(#06511d3568)"><g transform="matrix(1, 0, 0, 1, 64, 58)"><g clip-path="url(#13691b99d0)"><g clip-path="url(#a8bfdd2e8a)"><g clip-path="url(#913945a5f8)"><rect x="-84.46" width="133.92" fill="#eeeeee" height="125.279994" y="-77.139999" fill-opacity="1"/></g></g></g></g></g></g><g clip-path="url(#fcc9a53be1)"><g clip-path="url(#e312ac05d9)"><g transform="matrix(1, 0, 0, 1, 73, 51)"><g clip-path="url(#6d28549c5f)"><g clip-path="url(#90bf6003be)"><g clip-path="url(#d45903bb0e)"><rect x="-93.46" width="133.92" fill="#eeeeee" height="125.279994" y="-70.139999" fill-opacity="1"/></g></g></g></g></g></g><g clip-path="url(#512a578968)"><g clip-path="url(#9303298348)"><g transform="matrix(1, 0, 0, 1, 54, 65)"><g clip-path="url(#cf44a451cd)"><g clip-path="url(#507cc047b8)"><g clip-path="url(#8dcabba842)"><rect x="-74.46" width="133.92" fill="#eeeeee" height="125.279994" y="-84.139999" fill-opacity="1"/></g></g></g></g></g></g><g clip-path="url(#58f8511ec1)"><g clip-path="url(#e1251bb535)"><g transform="matrix(1, 0, 0, 1, 38, 67)"><g clip-path="url(#9c6ed9e8b3)"><g clip-path="url(#184165c278)"><g clip-path="url(#106df6efaa)"><rect x="-58.46" width="133.92" fill="#eeeeee" height="125.279994" y="-86.139999" fill-opacity="1"/></g></g></g></g></g></g><g clip-path="url(#bda4ac27ed)"><g clip-path="url(#f1ef6af750)"><g transform="matrix(1, 0, 0, 1, 22, 62)"><g clip-path="url(#f7cad3caae)"><g clip-path="url(#5634361f54)"><g clip-path="url(#c685fa17e8)"><rect x="-42.46" width="133.92" fill="#eeeeee" height="125.279994" y="-81.139999" fill-opacity="1"/></g></g></g></g></g></g><g clip-path="url(#5672903be5)"><g clip-path="url(#df0e5a315d)"><g transform="matrix(1, 0, 0, 1, 8, 56)"><g clip-path="url(#32e9bc08a2)"><g clip-path="url(#3841838c30)"><g clip-path="url(#55f21dfdc9)"><rect x="-28.46" width="133.92" fill="#eeeeee" height="125.279994" y="-75.139999" fill-opacity="1"/></g></g></g></g></g></g><g clip-path="url(#d7d7e9eef6)"><g clip-path="url(#f5dce18c90)"><g transform="matrix(1, 0, 0, 1, 4, 43)"><g clip-path="url(#fa8f0bc60d)"><g clip-path="url(#d1d35d9db4)"><g clip-path="url(#762a81b97a)"><rect x="-24.46" width="133.92" fill="#eeeeee" height="125.279994" y="-62.139999" fill-opacity="1"/></g></g></g></g></g></g><g clip-path="url(#780b325416)"><g clip-path="url(#bd93cd2692)"><g transform="matrix(1, 0, 0, 1, 2, 28)"><g clip-path="url(#1a74083b1d)"><g clip-path="url(#a032126efe)"><g clip-path="url(#3ab0b9b9c5)"><rect x="-22.46" width="133.92" fill="#eeeeee" height="125.279994" y="-47.139999" fill-opacity="1"/></g></g></g></g></g></g><g clip-path="url(#8cb0745f6d)"><g clip-path="url(#16fa4e38bd)"><g transform="matrix(1, 0, 0, 1, 11, 15)"><g clip-path="url(#07f3f42976)"><g clip-path="url(#cc497cc76c)"><g clip-path="url(#7283721163)"><rect x="-31.46" width="133.92" fill="#eeeeee" height="125.279994" y="-34.139999" fill-opacity="1"/></g></g></g></g></g></g></svg>